<?xml version="1.0" standalone="no"?>
<!DOCTYPE svg PUBLIC "-//W3C//DTD SVG 1.1//EN" "http://www.w3.org/Graphics/SVG/1.1/DTD/svg11.dtd" >
<svg>
<metadata>
Created by FontForge 20090914 at Mon Mar  1 20:42:31 2021
 By www-data
</metadata>
<defs>
<font id="TaylorBold" horiz-adv-x="721" >
  <font-face 
    font-family="Taylor"
    font-weight="700"
    font-stretch="normal"
    units-per-em="1000"
    panose-1="0 0 0 0 0 0 0 0 0 0"
    ascent="800"
    descent="-200"
    x-height="733"
    cap-height="735"
    bbox="-340.002 -307.996 1503 1190.99"
    underline-thickness="50"
    underline-position="-150"
    unicode-range="U+000A-U+F068"
  />
<missing-glyph horiz-adv-x="527" 
d="M50 700h427v-700h-427v700zM78 680l185 -309l186 309h-371zM251 350l-180 300v-601zM264 329l-185 -308h370zM276 350l181 -303v605z" />
    <glyph glyph-name=".notdef" horiz-adv-x="527" 
d="M50 700h427v-700h-427v700zM78 680l185 -309l186 309h-371zM251 350l-180 300v-601zM264 329l-185 -308h370zM276 350l181 -303v605z" />
    <glyph glyph-name=".null" horiz-adv-x="0" 
 />
    <glyph glyph-name=".null" horiz-adv-x="0" 
 />
    <glyph glyph-name="controlLF" unicode="&#xa;" horiz-adv-x="0" 
 />
    <glyph glyph-name="controlCR" unicode="&#xd;" horiz-adv-x="0" 
 />
    <glyph glyph-name="space" unicode=" " horiz-adv-x="475" 
 />
    <glyph glyph-name="exclam" unicode="!" horiz-adv-x="289" 
d="M133 88c-12 0 -22.5 4.16602 -31.5 12.499s-13.5 18.5 -13.5 30.5v511c0 8 2 15.333 6 22s9.5 11.834 16.5 15.501s14.5 5.5 22.5 5.5h22c12.667 0 23.334 -4.16699 32.001 -12.5s13 -18.5 13 -30.5v-511c0 -12 -4.33301 -22.167 -13 -30.5s-19.334 -12.5 -32.001 -12.5
h-22zM144 -61.001c-20 0 -37.167 6.66699 -51.5 20s-21.5 29.5 -21.5 48.5s7.16699 35.167 21.5 48.5s31.5 20 51.5 20s37.167 -6.66699 51.5 -20s21.5 -29.5 21.5 -48.5s-7.16699 -35.167 -21.5 -48.5s-31.5 -20 -51.5 -20z" />
    <glyph glyph-name="quotedbl" unicode="&#x22;" horiz-adv-x="385" 
d="M324 645c8 -8 12.002 -18 12.002 -30l-3 -184c-0.666992 -12 -5.33398 -22.167 -14.001 -30.5s-19.334 -12.5 -32.001 -12.5h-14c-12 0 -22.5 4.16699 -31.5 12.5s-13.5 18.5 -13.5 30.5l-4 184c0 11.333 4.33301 21.333 13 30c8.66699 9.33301 19.667 14 33 14h21
c13.333 0 24.333 -4.66699 33 -14zM115.002 659c12.667 0 23.335 -4.66699 32.002 -14c8.66699 -8.66699 13 -18.667 13 -30l-4 -184c0 -12 -4.33301 -22.167 -13 -30.5s-19.334 -12.5 -32.001 -12.5h-14c-12.667 0 -23.334 4.16699 -32.001 12.5s-13 18.5 -13 30.5l-4 184
c0 11.333 4 21.333 12 30c9.33301 9.33301 20.333 14 33 14h22z" />
    <glyph glyph-name="numbersign" unicode="#" horiz-adv-x="825" 
d="M727 416c8 0 15.498 -1.99902 22.498 -5.99902s12.5 -9.33301 16.5 -16s6 -13.667 6 -21v-20c0 -12 -4.33301 -22.167 -13 -30.5s-19.334 -12.5 -32.001 -12.5h-109l-32 -166h97c12.667 0 23.334 -4.33301 32.001 -13s13 -18.667 13 -30v-20
c0 -12 -4.33301 -22.333 -13 -31s-19.334 -13 -32.001 -13h-118l-19 -99c-2 -12 -8 -21.333 -18 -28s-21 -9 -33 -7l-22 3c-12.667 2 -22.667 8.33301 -30 19c-7.33301 9.33301 -9.66602 20 -6.99902 32l15 80h-158l-19 -99c-2 -10.667 -7.16699 -19.334 -15.5 -26.001
s-17.833 -10 -28.5 -10c-2.66699 0 -5 0.333008 -7 1l-22 3c-12.667 2 -22.667 8 -30 18s-9.66602 20.667 -6.99902 32l15 81h-83c-12.667 0 -23.334 4.33301 -32.001 13s-13 19 -13 31v20c0 11.333 4.33301 21.333 13 30s19.334 13 32.001 13h103l32 165h-91
c-8 0 -15.5 2 -22.5 6s-12.5 9.33301 -16.5 16s-6 14 -6 22v20c0 11.333 4.33301 21.333 13 30s19.334 13 32.001 13h112l24 128c2.66699 12 9 21.333 19 28s21 9 33 7l22 -3c12.667 -2 22.667 -8.33301 30 -19c6.66699 -9.33301 9 -20 7 -32l-21 -109h158l25 128
c2 12 8 21.333 18 28s21 9 33 7l22 -3c12.667 -2 22.667 -8.33301 30 -19c6.66699 -9.33301 9 -20 7 -32l-21 -109h89zM313.998 144.001h158l32 166h-158z" />
    <glyph glyph-name="dollar" unicode="$" horiz-adv-x="632" 
d="M465 542c-18 31.333 -43.999 52.6709 -77.999 64.0039v-203c16 -6.66699 29.667 -12.667 41 -18s26 -14 44 -26s32.5 -24.333 43.5 -37s20.833 -28.834 29.5 -48.501s13 -40.834 13 -63.501c0 -46 -15.167 -85.5 -45.5 -118.5s-72.166 -55.5 -125.499 -67.5v-68
c0 -12 -4.33301 -22.167 -13 -30.5s-19.334 -12.5 -32.001 -12.5h-22c-12.667 0 -23.334 4.16699 -32.001 12.5s-13 18.5 -13 30.5v64c-52.667 6.66699 -97.5 24.667 -134.5 54s-63.167 67.666 -78.5 114.999c-4 11.333 -2.66699 22.333 4 33
c6.66699 12 16.667 19.333 30 22l22 4c7.33301 1.33301 14.5 1 21.5 -1s13.167 -5.5 18.5 -10.5s9.33301 -10.833 12 -17.5c16.667 -50 51.667 -80.333 105 -91v204c-20.667 8 -37.5 15 -50.5 21s-29.333 15 -49 27s-35.167 24.167 -46.5 36.5s-21.333 28.166 -30 47.499
s-13 40.333 -13 63c0 18 3.5 36.667 10.5 56s17.5 38.5 31.5 57.5s33.833 35.667 59.5 50s54.834 23.833 87.501 28.5v73c0 7.33301 2 14.333 6 21s9.5 12 16.5 16s14.5 6 22.5 6h22c12.667 0 23.334 -4.33301 32.001 -13s13 -18.667 13 -30v-76
c80 -15.333 139 -57 177 -125c6 -10.667 7 -22 3 -34c-4.66699 -12.667 -13.334 -21.667 -26.001 -27l-20 -7c-10.667 -4 -21.334 -4.16699 -32.001 -0.5s-18.667 10.167 -24 19.5zM198.001 526.005c0 -15.333 5.83203 -28.832 17.499 -40.499s31.5 -23.834 59.5 -36.501
v161c-16.667 -4 -30.667 -10.333 -42 -19s-19.166 -18 -23.499 -28s-7.33301 -17.667 -9 -23s-2.5 -10 -2.5 -14zM446 210.006c0 9.33301 -1.5 17.666 -4.5 24.999s-8.83301 15.333 -17.5 24s-21 17 -37 25v-148c39.333 14.667 59 39.334 59 74.001z" />
    <glyph glyph-name="percent" unicode="%" horiz-adv-x="838" 
d="M374 550c0 -47.333 -15.166 -86.333 -45.499 -117s-69.166 -46 -116.499 -46s-86.333 15.333 -117 46s-46 69.667 -46 117c0 28 4.83301 53 14.5 75s22.667 39 39 51s33.666 21 51.999 27s37.166 9 56.499 9h1c20 0 39.167 -3 57.5 -9s35.5 -15 51.5 -27
s28.833 -29 38.5 -51s14.5 -47 14.5 -75zM262.001 549c0 22 -4.16699 37 -12.5 45s-21 12 -38 12s-29.667 -4 -38 -12s-12.5 -23 -12.5 -45c0 -17.333 4.5 -31 13.5 -41s21.5 -15 37.5 -15s28.333 5 37 15s13 23.667 13 41zM624.001 351
c20 0 39.332 -2.99902 57.999 -8.99902s36 -15.167 52 -27.5s28.833 -29.333 38.5 -51s14.5 -46.834 14.5 -75.501c0 -31.333 -6.83301 -59.333 -20.5 -84s-33 -44 -58 -58s-52.833 -21 -83.5 -21c-47.333 0 -86.333 15.333 -117 46s-46 69.667 -46 117
c0 23.333 3.33301 44.333 10 63s15.334 34 26.001 46s23 22.167 37 30.5s28.5 14.333 43.5 18s30.167 5.5 45.5 5.5zM675 188.001c0 22 -4.16602 36.833 -12.499 44.5s-20.833 11.5 -37.5 11.5s-29.334 -3.83301 -38.001 -11.5s-13 -22.5 -13 -44.5c0 -18 4.5 -32 13.5 -42
s21.5 -15 37.5 -15s28.333 5 37 15s13 24 13 42zM653.001 797.001c4.66699 -11.333 4.33496 -22.332 -0.998047 -32.999l-371 -802c-8 -17.333 -21.667 -26 -41 -26c-6 0 -11.667 1 -17 3l-20 8c-12.667 4.66699 -21.334 12.667 -26.001 24s-4.33398 22.666 0.999023 33.999
l371 802c5.33301 10 13.5 17.333 24.5 22s22.167 4.66699 33.5 0l21 -8c12 -4 20.333 -12 25 -24z" />
    <glyph glyph-name="ampersand" unicode="&#x26;" horiz-adv-x="823" 
d="M755 -14c18.667 -35.333 27.3311 -71.9951 25.998 -109.995c0 -19.333 -3 -38.333 -9 -57c-6 -20 -15 -38.333 -27 -55c-12.667 -18 -28.667 -33 -48 -45c-8.66699 -6 -18.667 -11.333 -30 -16c-13.333 -4.66699 -25.333 -7.66699 -36 -9
c-4 -0.666992 -9.33301 -1.33398 -16 -2.00098h-5h-7h-7c-12 0.666992 -24 2.66699 -36 6c-24.667 6.66699 -45.667 19 -63 37c-18 18 -29.333 39 -34 63c-4.66699 26 -1 50.333 11 73c6.66699 12.667 15.667 23.334 27 32.001c10.667 8.66699 23.334 15 38.001 19
c12 3.33301 25 5 39 5c10.667 0 21.667 -1.33301 33 -4l-6 -26l-7 -35l-4 -26c-8 1.33301 -13.667 2 -17 2s-6.33301 -0.666992 -9 -2c-3.33301 -0.666992 -5.66602 -2.66699 -6.99902 -6c-2 -4 -2.66699 -8.66699 -2 -14c1.33301 -5.33301 4.33301 -10.333 9 -15
c5.33301 -5.33301 11.666 -8.66602 18.999 -9.99902c4 -1.33301 8.33301 -2 13 -2h4l4 1h3h2c18.667 3.33301 33.334 13.333 44.001 30c11.333 16 17 35 17 57c-0.666992 21.333 -6.33398 41.666 -17.001 60.999s-26.667 37.333 -48 54c-16.667 14 -40.667 29.667 -72 47
l-11 7c-14 -12.667 -28.667 -23.667 -44 -33c-17.333 -10.667 -36 -19.334 -56 -26.001s-40.333 -11 -61 -13c-20.667 -2.66699 -41 -3 -61 -1c-21.333 1.33301 -41.333 4.33301 -60 9c-41.333 10.667 -77.666 29 -108.999 55c-34.667 28 -58.334 61 -71.001 99
c-14 42 -13.333 83.333 2 124c6 18 15.667 36 29 54c12 15.333 25.667 29.666 41 42.999c12 10.667 25.333 20.667 40 30c-11.333 31.333 -19 61.666 -23 90.999c-1.33301 10 -2 19 -2 27v8c0 3.33301 0.333008 6 1 8c0 5.33301 0.333008 10.666 1 15.999
c2.66699 18.667 8 37.334 16 56.001c8.66699 19.333 19.334 36.666 32.001 51.999c6.66699 8.66699 14.334 16.667 23.001 24s18 14 28 20c19.333 12 41.333 20 66 24c12 2 23.333 3.33301 34 4c12 0 24 -1 36 -3c50.667 -7.33301 90.667 -30 120 -68
c15.333 -19.333 25.333 -40.333 30 -63s4.33398 -45.334 -0.999023 -68.001c-4.66699 -20.667 -13.334 -40.334 -26.001 -59.001c-10.667 -16 -24 -31.333 -40 -46c-25.333 -22.667 -57 -43 -95 -61c-1.33301 0 -3.33301 -0.666992 -6 -2h403v-106h-138
c-0.666992 -2.66699 -1.33398 -5.66699 -2.00098 -9c-4.66699 -16 -10 -32 -16 -48c-6.66699 -18 -14.667 -35.333 -24 -52l3 -1c36 -21.333 64.667 -40.666 86 -57.999c15.333 -12.667 29 -25.667 41 -39c12 -15.333 22.667 -31.333 32 -48zM434.997 225.005
l17.001 -11.999c4 -2.66699 10.333 -6.33398 19 -11.001l19 -11c5.33301 8.66699 10.666 19.667 15.999 33c2.66699 6 4.66699 11.667 6 17h-98c6.66699 -6 13.667 -11.333 21 -16zM368.998 602.006c-4 0.666992 -8 1.00098 -12 1.00098c-5.33301 0 -11 -0.333008 -17 -1
c-5.33301 -1.33301 -9.66602 -2.33301 -12.999 -3c-4 -2 -7.66699 -4 -11 -6c-15.333 -8.66699 -27.333 -23 -36 -43c-4.66699 -10 -7.66699 -19.667 -9 -29c0 -2.66699 -0.333008 -5 -1 -7v-7c0 -4 0.333008 -9.66699 1 -17c2 -16.667 6 -34.334 12 -53.001
c14 4.66699 27 10 39 16c27.333 12.667 49 26.334 65 41.001c18 15.333 28.667 30.666 32 45.999c3.33301 14 0.666016 26.667 -8.00098 38c-10 13.333 -24 21.333 -42 24zM217.998 272.007c-9.33301 -8 -16.998 -16.002 -22.998 -24.002
c-6.66699 -8.66699 -11.334 -17 -14.001 -25c-6.66699 -17.333 -7 -34.666 -1 -51.999s17.667 -33 35 -47c17.333 -14.667 38 -25 62 -31c10.667 -3.33301 23 -5.33301 37 -6c12 -1.33301 24.333 -1.33301 37 0c23.333 2.66699 44.333 9.33398 63 20.001l-1.5 1
c-1 0.666992 -1.83301 1 -2.5 1c-10 6 -17 10.333 -21 13l-23 15c-28.667 20 -55.334 43.333 -80.001 70c-20.667 22 -39.667 46.667 -57 74z" />
    <glyph glyph-name="quotesingle" unicode="'" horiz-adv-x="208" 
d="M147 611c8.66699 -8.66699 13 -18.667 13 -30l-4 -185c0 -11.333 -4.5 -21.166 -13.5 -29.499s-19.5 -12.5 -31.5 -12.5h-14c-12.667 0 -23.334 4.16699 -32.001 12.5s-13 18.166 -13 29.499l-4 185c0 11.333 4 21.333 12 30c9.33301 9.33301 20.333 14 33 14h22
c12.667 0 23.334 -4.66699 32.001 -14z" />
    <glyph glyph-name="parenleft" unicode="(" horiz-adv-x="378" 
d="M348 752c6.66699 -10.667 8.66602 -21.499 5.99902 -32.499s-9 -19.833 -19 -26.5c-24.667 -16 -46 -34 -64 -54c-21.333 -22.667 -39 -49 -53 -79c-24.667 -54.667 -38 -118 -40 -190c-0.666992 -36.667 1.33301 -69.334 6 -98.001c4.66699 -34 12.667 -65.333 24 -94
c22 -56.667 56.667 -105.334 104 -146.001c8.66699 -8 13.334 -17.667 14.001 -29c1.33301 -11.333 -2 -21.666 -10 -30.999l-2 -3c-9.33301 -10.667 -21 -16 -35 -16c-10 0 -18.667 2.66699 -26 8c-66 45.333 -114.667 105 -146 179c-30.667 71.333 -44 149 -40 233
c1.33301 44 6 82.667 14 116c0.666992 4.66699 2.66699 12.334 6 23.001l16 48c0.666992 2 2 5.66699 4 11l4 9c4.66699 10 8.66699 18 12 24c19.333 37.333 44.333 70.666 75 99.999c26.667 26 57 47.333 91 64c10.667 5.33301 21.667 6.5 33 3.5s20 -9.5 26 -19.5z" />
    <glyph glyph-name="parenright" unicode=")" horiz-adv-x="378" 
d="M311 373c4 -84 -9.33398 -161.669 -40.001 -233.002c-32 -74 -80.667 -133.667 -146 -179c-8 -5.33301 -17 -8 -27 -8c-14 0 -25.667 5.33301 -35 16l-2 3c-7.33301 8.66699 -10.666 18.834 -9.99902 30.501s5.66699 21.5 15 29.5
c47.333 40.667 81.666 89.334 102.999 146.001c11.333 28.667 19.666 59.667 24.999 93c4 29.333 5.66699 62.333 5 99c-1.33301 72 -14.666 135.333 -39.999 190c-14 30 -31.333 56.333 -52 79c-18.667 20.667 -40.334 38.667 -65.001 54
c-10 6.66699 -16.333 15.5 -19 26.5s-1 21.5 5 31.5c6.66699 10.667 15.834 17.5 27.501 20.5s22.834 1.83301 33.501 -3.5c33.333 -16.667 63.333 -38 90 -64c31.333 -29.333 56.666 -63 75.999 -101l11 -23l4 -9c2.66699 -5.33301 4.33398 -9 5.00098 -11l16 -49l6 -23
c7.33301 -32.667 12 -71 14 -115z" />
    <glyph glyph-name="asterisk" unicode="*" horiz-adv-x="483" 
d="M436 597c4 -11.333 3.66895 -22.3311 -0.998047 -32.998c-5.33301 -12 -14 -20 -26 -24l-79 -26l51 -68c7.33301 -10 10 -21 8 -33c-2.66699 -12 -9.33398 -21.667 -20.001 -29l-19 -11c-10 -6 -20.833 -8 -32.5 -6s-21.167 7.66699 -28.5 17l-47 63l-49 -63
c-8.66699 -12 -20.667 -18 -36 -18c-9.33301 0 -17.666 2.33301 -24.999 7l-18 12c-10.667 6.66699 -17.334 16.334 -20.001 29.001c-2 12 1 23 9 33l48 63l-79 30c-12 4.66699 -20.333 13 -25 25c-4.66699 11.333 -4.33398 22.333 0.999023 33l9 19
c4.66699 10 12.667 17.167 24 21.5s22.666 4.5 33.999 0.5l69 -27l2 84c0 11.333 4.5 21.166 13.5 29.499s19.5 12.5 31.5 12.5h1h22c12.667 -0.666992 23.334 -5.33398 32.001 -14.001s12.667 -18.667 12 -30l-1 -78l74 24c11.333 4 22.5 3.66699 33.5 -1
s18.833 -12.334 23.5 -23.001z" />
    <glyph glyph-name="plus" unicode="+" horiz-adv-x="634" 
d="M546 375c12.667 0 23.333 -4.16699 32 -12.5s13 -18.5 13 -30.5v-20c0 -7.33301 -2 -14.333 -6 -21s-9.5 -12 -16.5 -16s-14.5 -6 -22.5 -6h-176v-119c0 -12 -4.33301 -22.167 -13 -30.5s-19.334 -12.5 -32.001 -12.5h-22c-12.667 0 -23.334 4.16699 -32.001 12.5
s-13 18.5 -13 30.5v119h-171c-12.667 0 -23.334 4.33301 -32.001 13s-13 18.667 -13 30v20c0 12 4.33301 22.167 13 30.5s19.334 12.5 32.001 12.5h171v120c0 11.333 4.33301 21.333 13 30s19.334 13 32.001 13h22c12.667 0 23.334 -4.33301 32.001 -13s13 -18.667 13 -30
v-120h176z" />
    <glyph glyph-name="comma" unicode="," horiz-adv-x="223" 
d="M185 115c7.33301 -12.667 8 -25.333 2 -38l-66 -141c-7.33301 -16 -20 -24 -38 -24h-29c-16 0 -28 6.66699 -36 20c-7.33301 12 -8 24.667 -2 38l66 140c7.33301 16 20.333 24 39 24h28c15.333 0 27.333 -6.33301 36 -19z" />
    <glyph glyph-name="hyphen" unicode="-" horiz-adv-x="380" 
d="M304 375c12.667 0 23.332 -4.16699 31.999 -12.5s13 -18.5 13 -30.5v-20c0 -7.33301 -2 -14.333 -6 -21s-9.5 -12 -16.5 -16s-14.5 -6 -22.5 -6h-229c-8 0 -15.5 2 -22.5 6s-12.5 9.33301 -16.5 16s-6 13.667 -6 21v20c0 12 4.33301 22.167 13 30.5
s19.334 12.5 32.001 12.5h229z" />
    <glyph glyph-name="period" unicode="." horiz-adv-x="213" 
d="M106 146c20 0 37.165 -6.83301 51.498 -20.5s21.5 -29.834 21.5 -48.501c0 -12 -3.16699 -23.333 -9.5 -34s-15.166 -19 -26.499 -25s-23.666 -9 -36.999 -9s-25.5 3 -36.5 9s-19.833 14.333 -26.5 25s-10 22 -10 34c0 18.667 7.16699 34.834 21.5 48.501
s31.5 20.5 51.5 20.5z" />
    <glyph glyph-name="slash" unicode="/" horiz-adv-x="485" 
d="M443 718c8.66699 -12.667 9.66699 -25.999 3 -39.999l-296 -639c-7.33301 -16.667 -21 -25 -41 -25h-24c-16.667 0 -29.334 6.66699 -38.001 20s-9.66699 26.666 -3 39.999l296 639c7.33301 17.333 21 26 41 26h24c16.667 0 29.334 -7 38.001 -21z" />
    <glyph glyph-name="zero" unicode="0" horiz-adv-x="716" 
d="M569 652c54.667 -65.333 81.999 -158.666 81.999 -279.999c0 -110.667 -27 -200.334 -81 -269.001c-26.667 -34 -58.167 -60 -94.5 -78s-75.166 -27.333 -116.499 -28c-87.333 0.666992 -158.333 36 -213 106c-54 68.667 -81 158.334 -81 269.001
c0 121.333 27.333 214.666 82 279.999c52 63.333 122 95 210 95h2c88 0 158 -31.667 210 -95zM537.999 372c0 23.333 -1.17285 45.667 -3.50586 67s-7.33301 44.833 -15 70.5s-17.667 47.667 -30 66s-29.833 33.833 -52.5 46.5s-49 19 -79 19
c-22 0 -41.833 -3.33301 -59.5 -10s-32.667 -15.334 -45 -26.001s-23.166 -23.5 -32.499 -38.5s-16.666 -30.333 -21.999 -46s-9.66602 -32.667 -12.999 -51s-5.66602 -35.166 -6.99902 -50.499s-2 -31 -2 -47c0 -52.667 7.5 -99.334 22.5 -140.001
s36.167 -72.167 63.5 -94.5s59 -33.5 95 -33.5c21.333 0 41.333 4.16699 60 12.5s35.334 20.333 50.001 36s27.334 34.334 38.001 56.001s18.667 46.5 24 74.5s8 57.667 8 89z" />
    <glyph glyph-name="one" unicode="1" horiz-adv-x="387" 
d="M38 661l269 98v-747h-112v591l-117 -42l-9 25l-12 26h-1z" />
    <glyph glyph-name="two" unicode="2" horiz-adv-x="612" 
d="M185 120l367.003 0.00195312v-106h-490v53c0.666992 40.667 13 86.667 37 138c8 18 19.167 35.5 33.5 52.5s32.5 34.167 54.5 51.5s40.333 31 55 41l62 42c64 41.333 99 67.666 105 78.999c10 20 14.5 40.833 13.5 62.5s-7.83301 41.167 -20.5 58.5
c-22 31.333 -56.333 47 -103 47c-23.333 0 -47.833 -10.5 -73.5 -31.5s-40.167 -50.833 -43.5 -89.5l-2 -25l-112 5l2 27c3.33301 43.333 17 82.333 41 117s52.667 60.667 86 78s67.333 26 102 26c42 0 79.833 -8.16699 113.5 -24.5s61.5 -39.833 83.5 -70.5
c23.333 -32.667 36.166 -69.334 38.499 -110.001s-5.83398 -79.667 -24.501 -117c-7.33301 -13.333 -19 -27.333 -35 -42s-30.833 -26.834 -44.5 -36.501s-34.5 -23.5 -62.5 -41.5c-22 -14 -39.167 -25.333 -51.5 -34l-46 -33.5c-18.333 -13.667 -33 -26.667 -44 -39
s-19.167 -24.166 -24.5 -35.499c-4.66699 -8.66699 -10.334 -22.667 -17.001 -42z" />
    <glyph glyph-name="three" unicode="3" horiz-adv-x="595" 
d="M449 379c24 -20 42.5029 -44.998 55.5029 -74.998s19.5 -61.667 19.5 -95c0 -37.333 -10.333 -71.833 -31 -103.5s-48.834 -56.834 -84.501 -75.501s-74.5 -28 -116.5 -28c-32 0 -63.333 6.66699 -94 20s-58.834 35.166 -84.501 65.499s-42.834 66.5 -51.501 108.5l-5 27
l111 16l5 -24c7.33301 -36 22.5 -62.833 45.5 -80.5s47.5 -26.5 73.5 -26.5c32.667 0 60.834 10 84.501 30s35.5 43.667 35.5 71c0 6.66699 -0.5 13.834 -1.5 21.501s-3.66699 17.167 -8 28.5s-10 21.333 -17 30s-17.5 16.334 -31.5 23.001s-30.667 10.334 -50 11.001h-19
l-26 1v106h26h19c21.333 0.666992 39.666 5.66699 54.999 15s26.5 20.666 33.5 33.999s12 25.166 15 35.499s4.5 19.166 4.5 26.499c0 13.333 -2.5 26 -7.5 38s-12.167 23 -21.5 33s-21.833 18 -37.5 24s-33.5 9 -53.5 9c-24.667 0 -47.667 -10 -69 -30
c-18.667 -17.333 -29 -38.333 -31 -63l-2 -24l-112 2l2 27c3.33301 52.667 24.666 97.334 63.999 134.001c20 18.667 43.333 33.334 70 44.001s52.667 16 78 16c36.667 0 70 -6 100 -18s54.5 -28 73.5 -48s33.5 -42.333 43.5 -67s15 -50.334 15 -77.001
c0 -26 -6.16699 -53.833 -18.5 -83.5s-31.166 -55.834 -56.499 -78.501z" />
    <glyph glyph-name="four" unicode="4" horiz-adv-x="654" 
d="M508 736v-445h94v-107h-94v-172h-112v172h-348v101l317 451h74l9 11v-11h60zM396 587l-207 -296h207v296z" />
    <glyph glyph-name="five" unicode="5" horiz-adv-x="614" 
d="M302 521c70 0 129.168 -24.999 177.501 -74.999s72.5 -111 72.5 -183c0 -73.333 -24.5 -136 -73.5 -188s-107.833 -78.333 -176.5 -79c-52 0 -99.333 16 -142 48s-73.334 73.667 -92.001 125l-9 27l108 28l8 -22c10.667 -30 27.667 -54 51 -72s48.666 -27 75.999 -27
c38 0 70.333 15.667 97 47s40 69 40 113c0 42 -13.167 77.667 -39.5 107s-58.833 44 -97.5 44c-16 0 -32.5 -3.66699 -49.5 -11s-28.667 -13.333 -35 -18s-10.833 -8.33398 -13.5 -11.001l-8 -16l-125 -1l15 55l87 324h35h327l-45 -106h-230l-32 -121
c24.667 8 49.334 12 74.001 12z" />
    <glyph glyph-name="six" unicode="6" horiz-adv-x="605" 
d="M306 508c68 0 125.498 -23.832 172.498 -71.499s70.5 -105.834 70.5 -174.501c0 -70 -23.833 -129.833 -71.5 -179.5s-105 -74.5 -172 -74.5s-124.333 24.833 -172 74.5s-71.5 109.5 -71.5 179.5v3c0 67.333 15.833 142.833 47.5 226.5s69.834 161.5 114.501 233.5
l22 -14h39c6 9.33301 9 14.333 9 15l22 -15l21 -14c-42.667 -64 -78.667 -131 -108 -201c24.667 8 50.334 12 77.001 12zM436.998 262.001c0 38.667 -12.667 71.498 -38 98.498s-56.333 40.5 -93 40.5c-24.667 0 -47 -6.16699 -67 -18.5s-35.833 -29.166 -47.5 -50.499
s-17.5 -44.666 -17.5 -69.999c0 -40.667 12.833 -75.334 38.5 -104.001s56.667 -43 93 -43s67.333 14.333 93 43s38.5 63.334 38.5 104.001z" />
    <glyph glyph-name="seven" unicode="7" horiz-adv-x="574" 
d="M72 736l462 -0.00292969v-144l-12 -7c-4.66699 -2.66699 -11 -7 -19 -13s-21.667 -19.5 -41 -40.5s-36.333 -43.833 -51 -68.5c-8.66699 -14 -17.667 -31 -27 -51s-20.333 -48 -33 -84s-23.167 -79.167 -31.5 -129.5s-12.833 -103.166 -13.5 -158.499l-1 -26l-112 1v26
c1.33301 63.333 7.33301 124.333 18 183s23.5 108.334 38.5 149.001s32.5 79.334 52.5 116.001s37.333 65 52 85s29.667 38.333 45 55h-371z" />
    <glyph glyph-name="eight" unicode="8" horiz-adv-x="605" 
d="M453 396c27.333 -20 48.335 -44.5 63.002 -73.5s22 -59.833 22 -92.5c0 -60.667 -23 -112.5 -69 -155.5s-101.5 -64.5 -166.5 -64.5s-120.667 21.5 -167 64.5s-69.5 94.833 -69.5 155.5c0 32.667 7.5 63.5 22.5 92.5s35.833 53.5 62.5 73.5
c-45.333 41.333 -68 92 -68 152c0 57.333 21.167 105.666 63.5 144.999s94.166 59 155.499 59s113.166 -19.667 155.499 -59s63.5 -87.666 63.5 -144.999c0 -60 -22.667 -110.667 -68 -152zM302.002 338c-34.667 0 -64 -10.5 -88 -31.5s-36 -46.5 -36 -76.5
c0 -20.667 5.5 -39.667 16.5 -57s26.167 -31.166 45.5 -41.499s40 -15.5 62 -15.5c34 0 63.167 11.167 87.5 33.5s36.5 49.166 36.5 80.499c0 30 -12 55.5 -36 76.5s-53.333 31.5 -88 31.5zM302.002 444c29.333 0 54.5 10.167 75.5 30.5s31.5 44.833 31.5 73.5
c0 28 -10.167 51.167 -30.5 69.5s-45.666 27.5 -75.999 27.5s-55.666 -9.16699 -75.999 -27.5s-30.5 -41.5 -30.5 -69.5c0 -18.667 4.66699 -36 14 -52s22.166 -28.667 38.499 -38s34.166 -14 53.499 -14z" />
    <glyph glyph-name="nine" unicode="9" horiz-adv-x="614" 
d="M303.5 741c69 0 127.833 -24.332 176.5 -72.999s73 -107.667 73 -177v-3c0 -69.333 -17.333 -147 -52 -233s-75 -163.667 -121 -233l-22 14h-34c-6 -8.66699 -9.33301 -13.334 -10 -14.001l-21 14v0l-21 15c38.667 56.667 76 126.667 112 210
c-26 -8.66699 -52.667 -13 -80 -13c-70 0 -129.167 23.5 -177.5 70.5s-72.5 104.5 -72.5 172.5c0 69.333 24.333 128.333 73 177s107.5 73 176.5 73zM441 491.001c0 40 -13.5 74 -40.5 102s-59.167 42 -96.5 42c-25.333 0 -48.5 -6.5 -69.5 -19.5s-37.667 -30.5 -50 -52.5
s-18.5 -46 -18.5 -72c0 -38 13.333 -70.167 40 -96.5s59.167 -39.5 97.5 -39.5s70.833 13.167 97.5 39.5s40 58.5 40 96.5z" />
    <glyph glyph-name="colon" unicode=":" horiz-adv-x="229" 
d="M114 239c-13.333 0 -25.501 2.99707 -36.501 8.99707s-19.833 14.333 -26.5 25s-10 22 -10 34c0 18.667 7.16699 34.667 21.5 48s31.5 20 51.5 20c10 0 19.5 -1.66699 28.5 -5s16.833 -8.16602 23.5 -14.499s11.834 -13.666 15.501 -21.999s5.5 -17.166 5.5 -26.499
c0 -18.667 -7.16699 -34.667 -21.5 -48s-31.5 -20 -51.5 -20zM113.999 75.9971c20 0 37.167 -6.66602 51.5 -19.999s21.5 -29.5 21.5 -48.5s-7.16699 -35.167 -21.5 -48.5s-31.5 -20 -51.5 -20c-13.333 0 -25.5 3 -36.5 9s-19.833 14.333 -26.5 25s-10 22 -10 34
c0 19.333 7.16699 35.666 21.5 48.999s31.5 20 51.5 20z" />
    <glyph glyph-name="semicolon" unicode=";" horiz-adv-x="222" 
d="M115 45c15.333 0 27.333 -6.33301 36 -19c7.33301 -12 8 -24.667 2 -38l-66 -141c-7.33301 -15.333 -20 -23 -38 -23h-29c-16 0 -28 6.33301 -36 19c-7.33301 12 -8 24.667 -2 38l66 141c7.33301 15.333 20.333 23 39 23h28zM111.5 239c-20.333 0 -37.5 6.66699 -51.5 20
s-21 29.333 -21 48s7 34.667 21 48s31.167 20 51.5 20s37.666 -6.66699 51.999 -20s21.5 -29.333 21.5 -48s-7.16699 -34.667 -21.5 -48s-31.666 -20 -51.999 -20z" />
    <glyph glyph-name="less" unicode="&#x3c;" horiz-adv-x="371" 
d="M305 222c10 -8 15.1689 -18.333 15.502 -31s-4.16699 -23.334 -13.5 -32.001l-15 -14c-8.66699 -8.66699 -19.334 -13 -32.001 -13c-11.333 0 -21.333 3.66699 -30 11l-173 148c-10 8.66699 -15 19.5 -15 32.5s5 23.833 15 32.5l173 144c9.33301 8 20 11.667 32 11
s22 -5 30 -13l15 -14c9.33301 -9.33301 13.666 -20.166 12.999 -32.499s-5.66699 -22.5 -15 -30.5l-117 -98z" />
    <glyph glyph-name="equal" unicode="=" horiz-adv-x="634" 
d="M546 224c12.667 0 23.334 -4.33301 32.001 -13s13 -19 13 -31v-19c0 -12 -4.33301 -22.333 -13 -31s-19.334 -13 -32.001 -13h-459c-12.667 0 -23.334 4.33301 -32.001 13s-13 19 -13 31v19c0 12 4.33301 22.333 13 31s19.334 13 32.001 13h459zM579 408
c8 -8.66699 12 -18.666 12 -29.999v-20c0 -8 -2 -15.333 -6 -22s-9.5 -11.834 -16.5 -15.501s-14.5 -5.5 -22.5 -5.5h-459c-12.667 0 -23.334 4.16699 -32.001 12.5s-13 18.5 -13 30.5v20c0 11.333 4.33301 21.333 13 30s19.334 13 32.001 13h459
c12.667 0 23.667 -4.33301 33 -13z" />
    <glyph glyph-name="greater" unicode="&#x3e;" horiz-adv-x="371" 
d="M313 356c10 -8.66699 14.999 -19.499 14.999 -32.499s-5 -23.833 -15 -32.5l-173 -148c-8 -7.33301 -18 -11 -30 -11s-22.333 4.33301 -31 13l-16 14c-8.66699 8.66699 -13 19.167 -13 31.5s5 22.833 15 31.5l118 101l-117 98c-10 8 -15.167 18.167 -15.5 30.5
s3.83398 23.166 12.501 32.499l15 14c8.66699 8 19 12.333 31 13s22.333 -3 31 -11z" />
    <glyph glyph-name="question" unicode="?" horiz-adv-x="586" 
d="M460 610c48.667 -46 72.998 -103.332 72.998 -171.999c0 -16 -2 -31.333 -6 -46s-10.5 -28.834 -19.5 -42.501s-17.5 -25.667 -25.5 -36s-19 -21.5 -33 -33.5s-25.167 -21.167 -33.5 -27.5l-34.5 -25.5c-35.333 -26.667 -55.333 -43.667 -60 -51v-68
c0 -16.667 -7.33301 -29.334 -22 -38.001c13.333 -4.66699 24 -12.834 32 -24.501s12 -24.5 12 -38.5c0 -18.667 -7 -34.667 -21 -48s-31.167 -20 -51.5 -20s-37.666 6.66699 -51.999 20s-21.5 29.333 -21.5 48c0 13.333 3.66699 25.333 11 36s17 19 29 25
c-18.667 7.33301 -28 20.666 -28 39.999v71c0 13.333 2.5 25.833 7.5 37.5s13.333 23.334 25 35.001s22 21.167 31 28.5s22.167 17.333 39.5 30c10 7.33301 17.5 13 22.5 17l21 17c9 7.33301 16 13.333 21 18s10.667 10.5 17 17.5s11.166 13.5 14.499 19.5
s6.33301 12.333 9 19s4 13.334 4 20.001c0 38.667 -13 70.667 -39 96s-59 38 -99 38c-26.667 0 -53.5 -10 -80.5 -30s-42.833 -41.667 -47.5 -65c-1.33301 -7.33301 -4.16602 -13.666 -8.49902 -18.999s-9.66602 -9.5 -15.999 -12.5s-12.833 -4.5 -19.5 -4.5h-23
c-14 0 -25.667 5.33301 -35 16c-8 9.33301 -11.333 20.333 -10 33c5.33301 32.667 20 63.5 44 92.5s53.5 52.167 88.5 69.5s70.833 26 107.5 26c70 0 129 -22.667 177 -68z" />
    <glyph glyph-name="at" unicode="@" horiz-adv-x="964" 
d="M792 525c36.667 -31.333 64.666 -67.3281 83.999 -107.995s29 -83.667 29 -129c0 -61.333 -14.667 -117.333 -44 -168c-9.33301 -16.667 -21.833 -31.334 -37.5 -44.001s-33.167 -22.334 -52.5 -29.001s-39.666 -10 -60.999 -10c-29.333 0 -56.833 6.66699 -82.5 20
s-46.5 31.333 -62.5 54c-32 -20 -67.667 -30 -107 -30h-2c-53.333 0 -98.833 17.167 -136.5 51.5s-56.5 75.833 -56.5 124.5c0 49.333 18.833 91.333 56.5 126s83.167 52 136.5 52h2c28.667 0 55.667 -5.33301 81 -16c2 10 7.16699 18.333 15.5 25s18.166 10 29.499 10h22
c12.667 0 23.334 -4.33301 32.001 -13s13 -18.667 13 -30v-214c0 -14.667 5.66699 -27.167 17 -37.5s25 -15.5 41 -15.5c25.333 0 43.333 9 54 27c20 34.667 30 74 30 118c0 61.333 -25.333 113.666 -76 156.999c-30.667 26 -67.667 45.5 -111 58.5s-89 18.167 -137 15.5h-2
c-52 0 -100.833 -12 -146.5 -36s-82.167 -56 -109.5 -96s-41 -82.667 -41 -128v-4c0 -69.333 27.667 -128.833 83 -178.5s122 -74.5 200 -74.5h8c50 0 97 11.333 141 34l20 11l61 -90l-26 -14c-60.667 -31.333 -126 -47 -196 -47h-8c-71.333 0 -137.333 16 -198 48
s-108.667 75.667 -144 131s-53 115.333 -53 180v4c0 47.333 10.833 93.666 32.5 138.999s52.167 85.333 91.5 120c38 34 81.833 60.333 131.5 79s100.167 28 151.5 28c62.667 3.33301 122.5 -3.83398 179.5 -21.501s106.167 -44.167 147.5 -79.5zM538.999 259.005
c0 19.333 -7.83301 35.833 -23.5 49.5s-34.834 20.5 -57.501 20.5h-3c-22 0 -40.833 -6.83301 -56.5 -20.5s-23.5 -30.167 -23.5 -49.5c0 -20 7.83301 -37 23.5 -51s34.5 -21 56.5 -21h3c22.667 0 41.834 6.83301 57.501 20.5s23.5 30.167 23.5 49.5v2z" />
    <glyph glyph-name="A" unicode="A" 
d="M678 70l28 -60h-123l-59 144h-348l-4 -8l-55 -136h-101l24 59l241 595l-71 71h199l11 -28zM213 248h273l-139 334z" />
    <glyph glyph-name="B" unicode="B" horiz-adv-x="706" 
d="M546 396c36 -18 64.666 -43.334 85.999 -76.001s32 -68 32 -106c0 -56 -21.167 -104 -63.5 -144s-93.166 -60 -152.499 -60h-367v661l-47 68h47h286c30.667 0 60 -5.66699 88 -17s52 -26.5 72 -45.5s36 -41.667 48 -68s18 -54.166 18 -83.499c0 -48 -15.667 -91 -47 -129
zM366.999 404.999c31.333 0 58.166 11.833 80.499 35.5s33.5 52 33.5 85s-11.167 61.167 -33.5 84.5s-49.166 35 -80.499 35h-174v-240h174zM192.999 324.999v-226h255c28.667 0 53 11.167 73 33.5s30 48.833 30 79.5c0 20.667 -4.5 39.667 -13.5 57s-21.5 31 -37.5 41
s-33.333 15 -52 15h-255z" />
    <glyph glyph-name="C" unicode="C" horiz-adv-x="702" 
d="M573 133l18.001 10.999l67 -69l-27 -17c-62.667 -38.667 -130.334 -58 -203.001 -58c-51.333 0 -100.666 10 -147.999 30s-88 46.667 -122 80s-61.167 73 -81.5 119s-30.5 94.5 -30.5 145.5s10.167 99.5 30.5 145.5s47.5 85.667 81.5 119s74.667 60 122 80
s96.666 30 147.999 30c82.667 0 157.667 -24 225 -72l24 -18l-79 -81l-18 14c-63.333 50 -132 69.333 -206 58c-68 -10 -122 -43.667 -162 -101c-21.333 -30 -35.833 -63.667 -43.5 -101s-7.83398 -74.666 -0.500977 -111.999
c14.667 -76.667 52.834 -138.167 114.501 -184.5s128.167 -63.833 199.5 -52.5c32.667 4.66699 63 16 91 34z" />
    <glyph glyph-name="D" unicode="D" horiz-adv-x="722" 
d="M296 736c116 0 207.832 -32.5 275.499 -97.5s101.5 -153.5 101.5 -265.5c0 -119.333 -37.333 -211.333 -112 -276c-67.333 -58 -155.666 -87 -264.999 -87h-214v658l-47 68h47h214zM295.999 99c85.333 0 150.833 23.502 196.5 70.502s68.5 114.833 68.5 203.5
c0 43.333 -5.5 81.666 -16.5 114.999s-25 59.833 -42 79.5s-37.5 35.667 -61.5 48s-47.667 20.666 -71 24.999s-48 6.5 -74 6.5h-102v-548h102z" />
    <glyph glyph-name="E" unicode="E" horiz-adv-x="647" 
d="M194 375v-269h415l-72 -96h-455v653l-44 72h573l-74 -94h-343v-173h412l-74 -93h-338z" />
    <glyph glyph-name="F" unicode="F" horiz-adv-x="613" 
d="M565 644l-370 -0.000976562v-248h263l-30 -41c-18.667 -25.333 -30.167 -40.166 -34.5 -44.499s-9.5 -6.83301 -15.5 -7.5h-183v-293h-112v653l-52 74h604z" />
    <glyph glyph-name="G" unicode="G" horiz-adv-x="753" 
d="M383 396l303.002 -0.00195312v-382h-112v28v6c-54 -32 -111.667 -48 -173 -48c-64 0 -123.167 16.667 -177.5 50s-97.333 78.833 -129 136.5s-47.5 120.334 -47.5 188.001s15.833 130.334 47.5 188.001s74.667 103.167 129 136.5s113.5 50 177.5 50
c50.667 0 99.167 -11 145.5 -33s86.166 -53.333 119.499 -94l18 -20l-90 -70l-16 20c-29.333 38 -64 65.667 -104 83s-80.667 22.333 -122 15c-58.667 -9.33301 -106.334 -40 -143.001 -92c-21.333 -30.667 -36 -65.5 -44 -104.5s-8.33301 -78.5 -1 -118.5
c13.333 -76 48 -137.167 104 -183.5s117 -63.833 183 -52.5c48 8 89 30.667 123 68v136h-147z" />
    <glyph glyph-name="H" unicode="H" horiz-adv-x="758" 
d="M684 736l-5 -8v-718h-112v279h-374v-279h-112v658l-47 68h163l-4 -5v-349h374v288l-46 66h163z" />
    <glyph glyph-name="I" unicode="I" horiz-adv-x="273" 
d="M198 735l-4 -6v-719h-112v658l-47 67h163z" />
    <glyph glyph-name="J" unicode="J" horiz-adv-x="550" 
d="M483 736l-4.00098 -5.99707v-467c0 -78 -22.667 -140.667 -68 -188c-46 -47.333 -107 -71 -183 -71c-38.667 0 -75.167 7.33301 -109.5 22s-63.5 35.667 -87.5 63l-18 20l79 62l16 -18c33.333 -37.333 73.333 -56 120 -56c20 0 38 2.66699 54 8
s28.833 12.666 38.5 21.999s17.834 19.166 24.501 29.499s11.5 21.666 14.5 33.999s5 23 6 32s1.5 18.167 1.5 27.5v419l-47 67h47h112h4z" />
    <glyph glyph-name="K" unicode="K" horiz-adv-x="719" 
d="M638 82l73 -72h-161l-14 14l-274 297l-68 -72v-239h-113v657l-47 68h163l-3 -5v-344l281 302l-33 47h163h42l-66 -72l-43 -46l-6 -11l-2 2l-191 -204z" />
    <glyph glyph-name="L" unicode="L" horiz-adv-x="605" 
d="M194 729v-626.001h402l-38 -43c-24 -27.333 -36.333 -41.666 -37 -42.999l-8 -7h-431v658l-47 68h163z" />
    <glyph glyph-name="M" unicode="M" horiz-adv-x="860" 
d="M748 695l55 -685h-112l-4 40l-33 429l-224 -410l-237 438l-41 -497h-94l4 48l48 602l-75 75h157l18 -24l221 -403l202 370l-58 57h170z" />
    <glyph glyph-name="N" unicode="N" horiz-adv-x="763" 
d="M688 735l-4 -8v-717h-84l-14 18l-388 486v-504h-112v650l-75 75h75h55l431 -531v465l-46 66h46h112h4z" />
    <glyph glyph-name="O" unicode="O" horiz-adv-x="803" 
d="M401.5 749c64.333 0 123.666 -16.667 177.999 -50s97.333 -78.833 129 -136.5s47.5 -120.334 47.5 -188.001s-15.833 -130.167 -47.5 -187.5s-74.667 -102.833 -129 -136.5s-113.666 -50.5 -177.999 -50.5s-123.666 16.833 -177.999 50.5s-97.333 79.167 -129 136.5
s-47.5 119.833 -47.5 187.5s15.833 130.334 47.5 188.001s74.667 103.167 129 136.5s113.666 50 177.999 50zM451 99c58 10 105.332 40.6699 141.999 92.0029c14.667 20.667 26.167 43.167 34.5 67.5s13.5 49.5 15.5 75.5s0.666992 52.667 -4 80
c-13.333 76 -48.166 137.167 -104.499 183.5s-117.166 64.166 -182.499 53.499c-58.667 -10 -106.334 -41 -143.001 -93c-21.333 -30.667 -36 -65.334 -44 -104.001s-8.33301 -78.334 -1 -119.001c13.333 -76 48 -137 104 -183s117 -63.667 183 -53z" />
    <glyph glyph-name="P" unicode="P" horiz-adv-x="646" 
d="M302 737c84.667 0 156.834 -27.167 216.501 -81.5s89.5 -119.833 89.5 -196.5v-7c0 -76.667 -29.833 -142.167 -89.5 -196.5s-131.834 -81.5 -216.501 -81.5h-109v-164h-112v661l-46 66h163h104zM495 460c0 50 -18.833 92.999 -56.5 128.999s-83.167 54 -136.5 54h-109
v-374h109c53.333 0 98.833 17.833 136.5 53.5s56.5 78.834 56.5 129.501v8z" />
    <glyph glyph-name="Q" unicode="Q" horiz-adv-x="811" 
d="M752 57l1.99609 -0.000976562l-1 -52c-5.33301 0 -15.666 0.833008 -30.999 2.5s-37.5 6.33398 -66.5 14.001s-52.5 17.5 -70.5 29.5c-57.333 -40 -120 -60 -188 -60c-47.333 0 -92.5 10 -135.5 30s-80.167 47 -111.5 81s-56.166 74.333 -74.499 121
s-27.5 95.667 -27.5 147c0 68.667 15.5 132.167 46.5 190.5s73.333 104.333 127 138s112.167 50.5 175.5 50.5c46.667 0 91.334 -9.66699 134.001 -29s80.334 -47 113.001 -83c68 -74 102 -163 102 -267c0 -90.667 -26.667 -171 -80 -241c22.667 -11.333 51 -17.333 85 -18
l-1 -26zM632.996 369.999c0 80 -23 148.169 -69 204.502s-101.667 84.5 -167 84.5s-121.166 -28.167 -167.499 -84.5s-69.5 -124.333 -69.5 -204s23.167 -147.667 69.5 -204s102.166 -84.5 167.499 -84.5c43.333 0 83.333 13.333 120 40v1
c-27.333 69.333 -62.666 106.666 -105.999 111.999l-25 3l9 108l27 -2c73.333 -8 131.666 -50.667 174.999 -128c24 47.333 36 98.666 36 153.999z" />
    <glyph glyph-name="R" unicode="R" horiz-adv-x="658" 
d="M609 449c0 -47.333 -12.668 -91.833 -38.001 -133.5s-60 -75.167 -104 -100.5l134 -205h-133l-13 21l-95 145c-18.667 -2.66699 -37.667 -4 -57 -4h-109v-162h-113v659l-45 65h163h104c84.667 0 156.834 -27 216.501 -81s89.5 -119.333 89.5 -196v-8zM495.999 449
v8.00098c0 53.333 -18.833 98.833 -56.5 136.5s-83.167 56.5 -136.5 56.5h-109v-393h109c53.333 0 98.833 18.667 136.5 56s56.5 82.666 56.5 135.999z" />
    <glyph glyph-name="S" unicode="S" horiz-adv-x="660" 
d="M354 419l43.0039 -15.499c10 -3.66699 24.167 -9.33398 42.5 -17.001s32.666 -14.5 42.999 -20.5s22.833 -13.667 37.5 -23s26.5 -18.833 35.5 -28.5s17.833 -20.5 26.5 -32.5s15.167 -25.167 19.5 -39.5s7.16602 -29.5 8.49902 -45.5
c2.66699 -49.333 -13 -91.666 -47 -126.999c-15.333 -16 -33.833 -29.833 -55.5 -41.5s-45.667 -20.667 -72 -27s-53.833 -9.5 -82.5 -9.5c-70.667 0 -132.5 16 -185.5 48s-90.833 76.333 -113.5 133l-11 29l117 23l9 -20c5.33301 -13.333 10.5 -24.833 15.5 -34.5
s12.5 -20.334 22.5 -32.001s21 -21 33 -28s27.5 -12.833 46.5 -17.5s40.5 -7 64.5 -7c52 0 90.333 13 115 39c17.333 18 25 41 23 69c-1.33301 26 -15 47.667 -41 65s-72 38 -138 62c-20.667 7.33301 -36.5 13.166 -47.5 17.499s-26.5 10.833 -46.5 19.5
s-35.667 16.5 -47 23.5s-24.5 16.167 -39.5 27.5s-26.5 22.833 -34.5 34.5s-15.167 25.334 -21.5 41.001s-9.83301 32.167 -10.5 49.5c-2.66699 48.667 14.666 93 51.999 133c46.667 49.333 113.667 74 201 74c127.333 0 220.666 -45.667 279.999 -137l17 -27l-111 -42
l-11 18c-43.333 67.333 -101 101 -173 101c-45.333 0 -79.333 -12 -102 -36c-22 -22 -33 -49.333 -33 -82c1.33301 -23.333 14.5 -43 39.5 -59s68.833 -35.333 131.5 -58z" />
    <glyph glyph-name="T" unicode="T" horiz-adv-x="537" 
d="M-14 737h570l-61 -93h-171v-634h-112v634h-176z" />
    <glyph glyph-name="U" unicode="U" horiz-adv-x="753" 
d="M687 736v-431c0 -82.667 -30 -153.334 -90 -212.001s-132.333 -88 -217 -88s-157.167 29.333 -217.5 88s-90.5 129.334 -90.5 212.001v359l-50 72h162l1 -431c0 -53.333 19 -99 57 -137s84 -57 138 -57c65.333 0 117.5 17.667 156.5 53s58.5 82.333 58.5 141v357l-53 74
h145z" />
    <glyph glyph-name="V" unicode="V" horiz-adv-x="681" 
d="M668 735h11l-284 -725h-103l-12 27l-247 633l-45 65h20h115h28l-17 -29l216 -551l200 515l-45 65h163z" />
    <glyph glyph-name="W" unicode="W" horiz-adv-x="904" 
d="M708 735h181l-194 -725h-84l-13 26l-148 314l-166 -340h-87l-7 35l-143 615l-51 75h146l118 -508l192 394l185 -400l119 444z" />
    <glyph glyph-name="X" unicode="X" horiz-adv-x="603" 
d="M587 735l-218 -367l212 -358h-116l-160 261l-160 -261h-124l216 364l-166 281l-58 80h124l13 -17l152 -250l123 205l-41 62h203z" />
    <glyph glyph-name="Y" unicode="Y" horiz-adv-x="612" 
d="M407 738h221l-262 -419v-309h-118v309l-213 341l-53 78h120l203 -315l159 253z" />
    <glyph glyph-name="Z" unicode="Z" horiz-adv-x="586" 
d="M174 103h384l-54 -93h-473v84l379 546h-334l-74 93h547v-84z" />
    <glyph glyph-name="bracketleft" unicode="[" horiz-adv-x="370" 
d="M314 693h-122v-687h122c8.66699 0 16.5 -2 23.5 -6s12.5 -9.33301 16.5 -16s6 -14 6 -22v-19c0 -8 -2 -15.333 -6 -22s-9.5 -12 -16.5 -16s-14.833 -6 -23.5 -6h-189c-8 0 -15.5 2 -22.5 6s-12.5 9.33301 -16.5 16s-6 14 -6 22v813c0 7.33301 2 14.333 6 21
s9.5 12 16.5 16s14.5 6 22.5 6h189c8.66699 0 16.5 -2 23.5 -6s12.5 -9.33301 16.5 -16s6 -13.667 6 -21v-20c0 -12 -4.5 -22.167 -13.5 -30.5s-19.833 -12.5 -32.5 -12.5z" />
    <glyph glyph-name="backslash" unicode="\" horiz-adv-x="485" 
d="M441 74c6.66699 -13.333 5.66699 -26.667 -3 -40s-21.334 -20 -38.001 -20h-24c-20 0 -33.667 8.33301 -41 25l-296 639c-6.66699 14 -5.66699 27.333 3 40c8.66699 14 21.334 21 38.001 21h24c19.333 0 33 -8.66699 41 -26z" />
    <glyph glyph-name="bracketright" unicode="]" horiz-adv-x="370" 
d="M244 799c12.667 0 23.5 -4.16699 32.5 -12.5s13.5 -18.5 13.5 -30.5v-814c0 -7.33301 -2 -14.333 -6 -21s-9.5 -12 -16.5 -16s-14.833 -6 -23.5 -6h-189c-12.667 0 -23.334 4.33301 -32.001 13s-13 18.667 -13 30v20c0 12 4.33301 22 13 30
c8.66699 9.33301 19.334 14 32.001 14h122v687h-122c-12.667 0 -23.334 4.16699 -32.001 12.5s-13 18.5 -13 30.5v20c0 12 4.33301 22.167 13 30.5s19.334 12.5 32.001 12.5h189z" />
    <glyph glyph-name="asciicircum" unicode="^" horiz-adv-x="545" 
d="M499 321c6 -10.667 7 -22 3 -34s-12 -20.667 -24 -26l-21 -9c-11.333 -4.66699 -22.666 -5.16699 -33.999 -1.5s-20 10.5 -26 20.5l-125 230l-125 -230c-8.66699 -15.333 -22 -23 -40 -23c-6.66699 0 -13.334 1.33301 -20.001 4l-21 9c-12 5.33301 -20 14 -24 26
s-3 23.333 3 34l175 320c8.66699 16 22 24 40 24h24c18.667 0 32 -8 40 -24z" />
    <glyph glyph-name="underscore" unicode="_" horiz-adv-x="0" 
d="M270 -192h-541v106h541v-106z" />
    <glyph glyph-name="grave" unicode="`" horiz-adv-x="233" 
d="M200 642c5.33301 -12.667 3.99902 -24.667 -4.00098 -36c-8 -12 -19.333 -18 -34 -18h-44c-15.333 0 -27 6.33301 -35 19l-82 130c-8 12.667 -8.33301 25.667 -1 39c7.33301 14 19.333 21 36 21h70c18.667 0 31.334 -8.33301 38.001 -25z" />
    <glyph glyph-name="a" unicode="a" 
d="M678 70l28 -60h-123l-59 144h-348l-4 -8l-55 -136h-101l24 59l241 595l-71 71h199l11 -28zM213 248h273l-137 341z" />
    <glyph glyph-name="a" unicode="&#xe5;" 
d="M678 70l28 -60h-123l-59 144h-348l-4 -8l-55 -136h-101l24 59l241 595l-71 71h199l11 -28zM213 248h273l-137 341z" />
    <glyph glyph-name="a" unicode="&#xe4;" 
d="M678 70l28 -60h-123l-59 144h-348l-4 -8l-55 -136h-101l24 59l241 595l-71 71h199l11 -28zM213 248h273l-137 341z" />
    <glyph glyph-name="a" unicode="&#xe3;" 
d="M678 70l28 -60h-123l-59 144h-348l-4 -8l-55 -136h-101l24 59l241 595l-71 71h199l11 -28zM213 248h273l-137 341z" />
    <glyph glyph-name="a" unicode="&#xe2;" 
d="M678 70l28 -60h-123l-59 144h-348l-4 -8l-55 -136h-101l24 59l241 595l-71 71h199l11 -28zM213 248h273l-137 341z" />
    <glyph glyph-name="a" unicode="&#xe1;" 
d="M678 70l28 -60h-123l-59 144h-348l-4 -8l-55 -136h-101l24 59l241 595l-71 71h199l11 -28zM213 248h273l-137 341z" />
    <glyph glyph-name="a" unicode="&#xe0;" 
d="M678 70l28 -60h-123l-59 144h-348l-4 -8l-55 -136h-101l24 59l241 595l-71 71h199l11 -28zM213 248h273l-137 341z" />
    <glyph glyph-name="b" unicode="b" horiz-adv-x="706" 
d="M546 396c36 -18 64.665 -43.334 85.998 -76.001s32 -68 32 -106c0 -36.667 -9.66699 -70.667 -29 -102s-45.666 -56.166 -78.999 -74.499s-69.333 -27.5 -108 -27.5h-367v661l-47 68h47h286c40.667 0 78.334 -9.5 113.001 -28.5s62.167 -45 82.5 -78
s30.5 -68.833 30.5 -107.5c0 -48 -15.667 -91 -47 -129zM366.998 404.999c31.333 0 58.166 11.833 80.499 35.5s33.5 52 33.5 85s-11.167 61.167 -33.5 84.5s-49.166 35 -80.499 35h-174v-240h174zM192.998 324.999v-226h255c28.667 0 53 11.167 73 33.5s30 48.833 30 79.5
c0 20.667 -4.5 39.667 -13.5 57s-21.5 31 -37.5 41s-33.333 15 -52 15h-255z" />
    <glyph glyph-name="c" unicode="c" horiz-adv-x="702" 
d="M573 133l18.001 10.9971l67 -69l-27 -17c-62.667 -38.667 -130.334 -58 -203.001 -58c-69.333 0 -133.333 16.667 -192 50s-105 78.833 -139 136.5s-51 120.334 -51 188.001s17 130.334 51 188.001s80.333 103.167 139 136.5s122.667 50 192 50
c82.667 0 157.667 -24 225 -72l24 -18l-79 -81l-18 14c-63.333 50 -132 69.333 -206 58c-68 -10 -122 -43.667 -162 -101c-21.333 -30 -35.833 -63.667 -43.5 -101s-7.83398 -74.666 -0.500977 -111.999c14.667 -76.667 52.834 -138.167 114.501 -184.5
s128.167 -63.833 199.5 -52.5c32.667 4.66699 63 16 91 34z" />
    <glyph glyph-name="c" unicode="&#xe7;" horiz-adv-x="702" 
d="M573 133l18.001 10.9971l67 -69l-27 -17c-62.667 -38.667 -130.334 -58 -203.001 -58c-69.333 0 -133.333 16.667 -192 50s-105 78.833 -139 136.5s-51 120.334 -51 188.001s17 130.334 51 188.001s80.333 103.167 139 136.5s122.667 50 192 50
c82.667 0 157.667 -24 225 -72l24 -18l-79 -81l-18 14c-63.333 50 -132 69.333 -206 58c-68 -10 -122 -43.667 -162 -101c-21.333 -30 -35.833 -63.667 -43.5 -101s-7.83398 -74.666 -0.500977 -111.999c14.667 -76.667 52.834 -138.167 114.501 -184.5
s128.167 -63.833 199.5 -52.5c32.667 4.66699 63 16 91 34z" />
    <glyph glyph-name="d" unicode="d" horiz-adv-x="722" 
d="M296 736c116 0 207.832 -32.5 275.499 -97.5s101.5 -153.5 101.5 -265.5c0 -119.333 -37.333 -211.333 -112 -276c-67.333 -58 -155.666 -87 -264.999 -87h-214v658l-47 68h47h214zM560.999 373c0 43.333 -5.5 81.668 -16.5 115.001s-25 59.833 -42 79.5
s-37.5 35.667 -61.5 48s-47.667 20.666 -71 24.999s-48 6.5 -74 6.5h-102v-548h102c85.333 0 150.833 23.5 196.5 70.5s68.5 114.833 68.5 203.5z" />
    <glyph glyph-name="e" unicode="e" horiz-adv-x="646" 
d="M194 375v-269h415l-72 -96h-455v659l-46 66h46h529l-75 -94h-342v-173h412l-75 -93h-337z" />
    <glyph glyph-name="e" unicode="&#xeb;" horiz-adv-x="646" 
d="M194 375v-269h415l-72 -96h-455v659l-46 66h46h529l-75 -94h-342v-173h412l-75 -93h-337z" />
    <glyph glyph-name="e" unicode="&#xea;" horiz-adv-x="646" 
d="M194 375v-269h415l-72 -96h-455v659l-46 66h46h529l-75 -94h-342v-173h412l-75 -93h-337z" />
    <glyph glyph-name="e" unicode="&#xe9;" horiz-adv-x="646" 
d="M194 375v-269h415l-72 -96h-455v659l-46 66h46h529l-75 -94h-342v-173h412l-75 -93h-337z" />
    <glyph glyph-name="e" unicode="&#xe8;" horiz-adv-x="646" 
d="M194 375v-269h415l-72 -96h-455v659l-46 66h46h529l-75 -94h-342v-173h412l-75 -93h-337z" />
    <glyph glyph-name="f" unicode="f" horiz-adv-x="611" 
d="M564 644l-371 -0.000976562v-248h263l-30 -41c-18.667 -25.333 -30 -40.166 -34 -44.499s-9.33301 -6.83301 -16 -7.5h-1h-1h-181v-293h-112v659l-47 68h47h553z" />
    <glyph glyph-name="g" unicode="g" horiz-adv-x="753" 
d="M383 396l303.001 -0.00195312v-382h-112v28v6c-54 -32 -111.667 -48 -173 -48c-64 0 -123.167 16.667 -177.5 50s-97.333 78.833 -129 136.5s-47.5 120.334 -47.5 188.001s15.833 130.334 47.5 188.001s74.667 103.167 129 136.5s113.5 50 177.5 50c34 0 67 -5 99 -15
s62.167 -24.5 90.5 -43.5s53.5 -41.833 75.5 -68.5l18 -20l-90 -70l-16 20c-29.333 38 -64 65.667 -104 83s-80.667 22.333 -122 15c-58.667 -9.33301 -106.334 -40 -143.001 -92c-21.333 -30.667 -36 -65.5 -44 -104.5s-8.33301 -78.5 -1 -118.5
c13.333 -76 48 -137.167 104 -183.5s117 -63.833 183 -52.5c48 8 89 30.667 123 68v136h-147z" />
    <glyph glyph-name="h" unicode="h" horiz-adv-x="758" 
d="M684 736l-5 -8v-718h-112v279h-374v-279h-112v658l-47 68h163l-4 -5v-349h374v288l-46 66h163z" />
    <glyph glyph-name="i" unicode="i" horiz-adv-x="273" 
d="M198 735l-4 -6v-719h-112v658l-47 67h163z" />
    <glyph glyph-name="i" unicode="&#xef;" horiz-adv-x="273" 
d="M198 735l-4 -6v-719h-112v658l-47 67h163z" />
    <glyph glyph-name="i" unicode="&#xee;" horiz-adv-x="273" 
d="M198 735l-4 -6v-719h-112v658l-47 67h163z" />
    <glyph glyph-name="i" unicode="&#xed;" horiz-adv-x="273" 
d="M198 735l-4 -6v-719h-112v658l-47 67h163z" />
    <glyph glyph-name="i" unicode="&#xec;" horiz-adv-x="273" 
d="M198 735l-4 -6v-719h-112v658l-47 67h163z" />
    <glyph glyph-name="j" unicode="j" horiz-adv-x="550" 
d="M483 736l-4.00098 -5.99707v-467c0 -78 -22.667 -140.667 -68 -188c-46 -47.333 -107 -71 -183 -71c-38.667 0 -75.167 7.33301 -109.5 22s-63.5 35.667 -87.5 63l-18 20l79 62l16 -18c33.333 -37.333 73.333 -56 120 -56c20 0 38 2.66699 54 8
s28.833 12.666 38.5 21.999s17.834 19.166 24.501 29.499s11.5 21.666 14.5 33.999s5 23 6 32s1.5 18.167 1.5 27.5v419l-47 67h47h112h4z" />
    <glyph glyph-name="k" unicode="k" horiz-adv-x="719" 
d="M638 82l73 -72h-161l-14 14l-274 297l-68 -72v-239h-113v657l-47 68h163l-3 -5v-344l281 302l-33 47h163h42l-66 -72l-43 -46l-6 -11l-2 2l-191 -204z" />
    <glyph glyph-name="l" unicode="l" horiz-adv-x="605" 
d="M194 729v-626.001h402l-38 -43c-24 -27.333 -36.333 -41.666 -37 -42.999l-8 -7h-431v658l-47 68h163z" />
    <glyph glyph-name="m" unicode="m" horiz-adv-x="860" 
d="M748 695l55 -685h-112l-4 40l-33 429l-224 -410l-237 438l-41 -497h-94l4 48l48 602l-75 75h157l18 -24l221 -403l202 370l-58 57h170z" />
    <glyph glyph-name="n" unicode="n" horiz-adv-x="763" 
d="M688 735l-4 -8v-717h-84l-14 18l-388 486v-504h-112v650l-75 75h75h55h4v-5l427 -526v465l-46 66h46h112h4z" />
    <glyph glyph-name="n" unicode="&#xf1;" horiz-adv-x="763" 
d="M688 735l-4 -8v-717h-84l-14 18l-388 486v-504h-112v650l-75 75h75h55h4v-5l427 -526v465l-46 66h46h112h4z" />
    <glyph glyph-name="o" unicode="o" horiz-adv-x="803" 
d="M401.5 749c64.333 0 123.666 -16.667 177.999 -50s97.333 -78.833 129 -136.5s47.5 -120.334 47.5 -188.001s-15.833 -130.167 -47.5 -187.5s-74.667 -102.833 -129 -136.5s-113.666 -50.5 -177.999 -50.5s-123.666 16.833 -177.999 50.5s-97.333 79.167 -129 136.5
s-47.5 119.833 -47.5 187.5s15.833 130.334 47.5 188.001s74.667 103.167 129 136.5s113.666 50 177.999 50zM451 99c58 10 105.332 40.6699 141.999 92.0029c14.667 20.667 26.167 43.167 34.5 67.5s13.5 49.5 15.5 75.5s0.666992 52.667 -4 80
c-13.333 76 -48.166 137.167 -104.499 183.5s-117.166 64.166 -182.499 53.499c-58.667 -10 -106.334 -41 -143.001 -93c-21.333 -30.667 -36 -65.334 -44 -104.001s-8.33301 -78.334 -1 -119.001c13.333 -76 48 -137.167 104 -183.5s117 -63.833 183 -52.5z" />
    <glyph glyph-name="o" unicode="&#xf8;" horiz-adv-x="803" 
d="M401.5 749c64.333 0 123.666 -16.667 177.999 -50s97.333 -78.833 129 -136.5s47.5 -120.334 47.5 -188.001s-15.833 -130.167 -47.5 -187.5s-74.667 -102.833 -129 -136.5s-113.666 -50.5 -177.999 -50.5s-123.666 16.833 -177.999 50.5s-97.333 79.167 -129 136.5
s-47.5 119.833 -47.5 187.5s15.833 130.334 47.5 188.001s74.667 103.167 129 136.5s113.666 50 177.999 50zM451 99c58 10 105.332 40.6699 141.999 92.0029c14.667 20.667 26.167 43.167 34.5 67.5s13.5 49.5 15.5 75.5s0.666992 52.667 -4 80
c-13.333 76 -48.166 137.167 -104.499 183.5s-117.166 64.166 -182.499 53.499c-58.667 -10 -106.334 -41 -143.001 -93c-21.333 -30.667 -36 -65.334 -44 -104.001s-8.33301 -78.334 -1 -119.001c13.333 -76 48 -137.167 104 -183.5s117 -63.833 183 -52.5z" />
    <glyph glyph-name="o" unicode="&#xf6;" horiz-adv-x="803" 
d="M401.5 749c64.333 0 123.666 -16.667 177.999 -50s97.333 -78.833 129 -136.5s47.5 -120.334 47.5 -188.001s-15.833 -130.167 -47.5 -187.5s-74.667 -102.833 -129 -136.5s-113.666 -50.5 -177.999 -50.5s-123.666 16.833 -177.999 50.5s-97.333 79.167 -129 136.5
s-47.5 119.833 -47.5 187.5s15.833 130.334 47.5 188.001s74.667 103.167 129 136.5s113.666 50 177.999 50zM451 99c58 10 105.332 40.6699 141.999 92.0029c14.667 20.667 26.167 43.167 34.5 67.5s13.5 49.5 15.5 75.5s0.666992 52.667 -4 80
c-13.333 76 -48.166 137.167 -104.499 183.5s-117.166 64.166 -182.499 53.499c-58.667 -10 -106.334 -41 -143.001 -93c-21.333 -30.667 -36 -65.334 -44 -104.001s-8.33301 -78.334 -1 -119.001c13.333 -76 48 -137.167 104 -183.5s117 -63.833 183 -52.5z" />
    <glyph glyph-name="o" unicode="&#xf5;" horiz-adv-x="803" 
d="M401.5 749c64.333 0 123.666 -16.667 177.999 -50s97.333 -78.833 129 -136.5s47.5 -120.334 47.5 -188.001s-15.833 -130.167 -47.5 -187.5s-74.667 -102.833 -129 -136.5s-113.666 -50.5 -177.999 -50.5s-123.666 16.833 -177.999 50.5s-97.333 79.167 -129 136.5
s-47.5 119.833 -47.5 187.5s15.833 130.334 47.5 188.001s74.667 103.167 129 136.5s113.666 50 177.999 50zM451 99c58 10 105.332 40.6699 141.999 92.0029c14.667 20.667 26.167 43.167 34.5 67.5s13.5 49.5 15.5 75.5s0.666992 52.667 -4 80
c-13.333 76 -48.166 137.167 -104.499 183.5s-117.166 64.166 -182.499 53.499c-58.667 -10 -106.334 -41 -143.001 -93c-21.333 -30.667 -36 -65.334 -44 -104.001s-8.33301 -78.334 -1 -119.001c13.333 -76 48 -137.167 104 -183.5s117 -63.833 183 -52.5z" />
    <glyph glyph-name="o" unicode="&#xf4;" horiz-adv-x="803" 
d="M401.5 749c64.333 0 123.666 -16.667 177.999 -50s97.333 -78.833 129 -136.5s47.5 -120.334 47.5 -188.001s-15.833 -130.167 -47.5 -187.5s-74.667 -102.833 -129 -136.5s-113.666 -50.5 -177.999 -50.5s-123.666 16.833 -177.999 50.5s-97.333 79.167 -129 136.5
s-47.5 119.833 -47.5 187.5s15.833 130.334 47.5 188.001s74.667 103.167 129 136.5s113.666 50 177.999 50zM451 99c58 10 105.332 40.6699 141.999 92.0029c14.667 20.667 26.167 43.167 34.5 67.5s13.5 49.5 15.5 75.5s0.666992 52.667 -4 80
c-13.333 76 -48.166 137.167 -104.499 183.5s-117.166 64.166 -182.499 53.499c-58.667 -10 -106.334 -41 -143.001 -93c-21.333 -30.667 -36 -65.334 -44 -104.001s-8.33301 -78.334 -1 -119.001c13.333 -76 48 -137.167 104 -183.5s117 -63.833 183 -52.5z" />
    <glyph glyph-name="o" unicode="&#xf3;" horiz-adv-x="803" 
d="M401.5 749c64.333 0 123.666 -16.667 177.999 -50s97.333 -78.833 129 -136.5s47.5 -120.334 47.5 -188.001s-15.833 -130.167 -47.5 -187.5s-74.667 -102.833 -129 -136.5s-113.666 -50.5 -177.999 -50.5s-123.666 16.833 -177.999 50.5s-97.333 79.167 -129 136.5
s-47.5 119.833 -47.5 187.5s15.833 130.334 47.5 188.001s74.667 103.167 129 136.5s113.666 50 177.999 50zM451 99c58 10 105.332 40.6699 141.999 92.0029c14.667 20.667 26.167 43.167 34.5 67.5s13.5 49.5 15.5 75.5s0.666992 52.667 -4 80
c-13.333 76 -48.166 137.167 -104.499 183.5s-117.166 64.166 -182.499 53.499c-58.667 -10 -106.334 -41 -143.001 -93c-21.333 -30.667 -36 -65.334 -44 -104.001s-8.33301 -78.334 -1 -119.001c13.333 -76 48 -137.167 104 -183.5s117 -63.833 183 -52.5z" />
    <glyph glyph-name="o" unicode="&#xf2;" horiz-adv-x="803" 
d="M401.5 749c64.333 0 123.666 -16.667 177.999 -50s97.333 -78.833 129 -136.5s47.5 -120.334 47.5 -188.001s-15.833 -130.167 -47.5 -187.5s-74.667 -102.833 -129 -136.5s-113.666 -50.5 -177.999 -50.5s-123.666 16.833 -177.999 50.5s-97.333 79.167 -129 136.5
s-47.5 119.833 -47.5 187.5s15.833 130.334 47.5 188.001s74.667 103.167 129 136.5s113.666 50 177.999 50zM451 99c58 10 105.332 40.6699 141.999 92.0029c14.667 20.667 26.167 43.167 34.5 67.5s13.5 49.5 15.5 75.5s0.666992 52.667 -4 80
c-13.333 76 -48.166 137.167 -104.499 183.5s-117.166 64.166 -182.499 53.499c-58.667 -10 -106.334 -41 -143.001 -93c-21.333 -30.667 -36 -65.334 -44 -104.001s-8.33301 -78.334 -1 -119.001c13.333 -76 48 -137.167 104 -183.5s117 -63.833 183 -52.5z" />
    <glyph glyph-name="p" unicode="p" horiz-adv-x="646" 
d="M302 737c84.667 0 156.834 -27.167 216.501 -81.5s89.5 -119.833 89.5 -196.5v-7c0 -76.667 -29.833 -142.167 -89.5 -196.5s-131.834 -81.5 -216.501 -81.5h-109v-164h-112v661l-46 66h163h104zM495 460c0 50 -18.833 92.999 -56.5 128.999s-83.167 54 -136.5 54h-109
v-374h109c53.333 0 98.833 17.833 136.5 53.5s56.5 78.834 56.5 129.501v8z" />
    <glyph glyph-name="q" unicode="q" horiz-adv-x="811" 
d="M752 57h1.99902l-1 -52c-5.33301 0 -15.666 0.833008 -30.999 2.5s-37.5 6.33398 -66.5 14.001s-52.5 17.5 -70.5 29.5c-57.333 -40 -120 -60 -188 -60c-47.333 0 -92.5 10 -135.5 30s-80.167 47 -111.5 81s-56.166 74.333 -74.499 121s-27.5 95.667 -27.5 147
c0 68.667 15.667 132.167 47 190.5s73.666 104.333 126.999 138s111.666 50.5 174.999 50.5c30.667 0 60.834 -4.33301 90.501 -13s57.667 -21.334 84 -38.001s50.5 -37 72.5 -61c68 -74 102 -163 102 -267c0 -90.667 -26.667 -171 -80 -241
c22.667 -11.333 51 -17.333 85 -18l-1 -26zM632.999 370c0 80 -23 148.169 -69 204.502s-101.667 84.5 -167 84.5s-121.166 -28.167 -167.499 -84.5s-69.5 -124.333 -69.5 -204s23.167 -147.667 69.5 -204s102.166 -84.5 167.499 -84.5c43.333 0 83.333 13.333 120 40v1
c-27.333 69.333 -62.666 106.666 -105.999 111.999l-25 3l9 108l27 -2c73.333 -8 131.666 -50.667 174.999 -128c24 47.333 36 98.666 36 153.999z" />
    <glyph glyph-name="r" unicode="r" horiz-adv-x="658" 
d="M609 449c0 -47.333 -12.668 -91.833 -38.001 -133.5s-60 -75.167 -104 -100.5l134 -205h-133l-13 21l-95 145c-18.667 -2.66699 -37.667 -4 -57 -4h-109v-162h-113v659l-45 65h163h104c84.667 0 156.834 -27 216.501 -81s89.5 -119.333 89.5 -196v-8zM495.999 449
v8.00098c0 53.333 -18.833 98.833 -56.5 136.5s-83.167 56.5 -136.5 56.5h-109v-393h109c53.333 0 98.833 18.667 136.5 56s56.5 82.666 56.5 135.999z" />
    <glyph glyph-name="s" unicode="s" horiz-adv-x="659" 
d="M564 88c-22.667 -24 -52.6641 -42.832 -89.9971 -56.499s-77.333 -20.5 -120 -20.5c-70.667 0 -132.5 15.833 -185.5 47.5s-90.833 75.834 -113.5 132.501l-11 29l117 23l9 -20c6.66699 -17.333 13.667 -31.833 21 -43.5s17.833 -24 31.5 -37s31.334 -22.667 53.001 -29
s47.167 -9.5 76.5 -9.5c52 0 90.333 13 115 39c17.333 18 25 41 23 69c-1.33301 26 -15 47.667 -41 65s-72 38 -138 62c-20.667 7.33301 -36.5 13.166 -47.5 17.499s-26.5 10.833 -46.5 19.5s-35.667 16.5 -47 23.5s-24.5 16.167 -39.5 27.5s-26.5 22.833 -34.5 34.5
s-15.167 25.334 -21.5 41.001s-9.83301 32.167 -10.5 49.5c-2.66699 49.333 14.666 93.666 51.999 132.999c46.667 49.333 113.667 74 201 74c127.333 0 220.666 -45.667 279.999 -137l17 -27l-111 -42l-11 18c-43.333 67.333 -101 101 -173 101
c-45.333 0 -79.333 -11.667 -102 -35c-22 -22.667 -33 -50.334 -33 -83.001c1.33301 -22.667 14.5 -42.167 39.5 -58.5s68.833 -35.833 131.5 -58.5l43 -15.5c10 -3.66699 24.167 -9.33398 42.5 -17.001s32.666 -14.5 42.999 -20.5s22.833 -13.667 37.5 -23
s26.5 -18.833 35.5 -28.5s17.833 -20.5 26.5 -32.5s15.167 -25.167 19.5 -39.5s7.16602 -29.5 8.49902 -45.5c2.66699 -49.333 -13 -91.666 -47 -126.999z" />
    <glyph glyph-name="t" unicode="t" horiz-adv-x="537" 
d="M-14 737h570l-61 -93h-171v-634h-112v634h-176z" />
    <glyph glyph-name="u" unicode="u" horiz-adv-x="751" 
d="M708 736l-23 -42v-389c0 -82.667 -30 -153.334 -90 -212.001s-132.333 -88 -217 -88s-157.167 29.333 -217.5 88s-90.5 129.334 -90.5 212.001v367l-45 64h163l-6 -10l1 -421c0 -53.333 19 -99 57 -137s84 -57 138 -57c65.333 0 117.5 17.667 156.5 53
s58.5 82.333 58.5 141v363l-47 68h47h92h23z" />
    <glyph glyph-name="u" unicode="&#xfc;" horiz-adv-x="751" 
d="M708 736l-23 -42v-389c0 -82.667 -30 -153.334 -90 -212.001s-132.333 -88 -217 -88s-157.167 29.333 -217.5 88s-90.5 129.334 -90.5 212.001v367l-45 64h163l-6 -10l1 -421c0 -53.333 19 -99 57 -137s84 -57 138 -57c65.333 0 117.5 17.667 156.5 53
s58.5 82.333 58.5 141v363l-47 68h47h92h23z" />
    <glyph glyph-name="u" unicode="&#xfb;" horiz-adv-x="751" 
d="M708 736l-23 -42v-389c0 -82.667 -30 -153.334 -90 -212.001s-132.333 -88 -217 -88s-157.167 29.333 -217.5 88s-90.5 129.334 -90.5 212.001v367l-45 64h163l-6 -10l1 -421c0 -53.333 19 -99 57 -137s84 -57 138 -57c65.333 0 117.5 17.667 156.5 53
s58.5 82.333 58.5 141v363l-47 68h47h92h23z" />
    <glyph glyph-name="u" unicode="&#xfa;" horiz-adv-x="751" 
d="M708 736l-23 -42v-389c0 -82.667 -30 -153.334 -90 -212.001s-132.333 -88 -217 -88s-157.167 29.333 -217.5 88s-90.5 129.334 -90.5 212.001v367l-45 64h163l-6 -10l1 -421c0 -53.333 19 -99 57 -137s84 -57 138 -57c65.333 0 117.5 17.667 156.5 53
s58.5 82.333 58.5 141v363l-47 68h47h92h23z" />
    <glyph glyph-name="u" unicode="&#xf9;" horiz-adv-x="751" 
d="M708 736l-23 -42v-389c0 -82.667 -30 -153.334 -90 -212.001s-132.333 -88 -217 -88s-157.167 29.333 -217.5 88s-90.5 129.334 -90.5 212.001v367l-45 64h163l-6 -10l1 -421c0 -53.333 19 -99 57 -137s84 -57 138 -57c65.333 0 117.5 17.667 156.5 53
s58.5 82.333 58.5 141v363l-47 68h47h92h23z" />
    <glyph glyph-name="v" unicode="v" horiz-adv-x="681" 
d="M669 735h11l-284 -725h-39l-2 -7l-3 7h-59l-12 27l-247 633l-45 65h20h115h28l-17 -29l218 -556l191 530l-38 55h163z" />
    <glyph glyph-name="w" unicode="w" horiz-adv-x="904" 
d="M708 735h181l-194 -725h-84l-13 26l-148 314l-166 -340h-87l-7 35l-143 615l-51 75h146l118 -508l192 394l185 -400l119 444z" />
    <glyph glyph-name="x" unicode="x" horiz-adv-x="603" 
d="M587 735l-218 -367l212 -358h-116l-160 261l-160 -261h-124l216 364l-166 281l-58 80h124l13 -17l152 -250l123 205l-41 62h203z" />
    <glyph glyph-name="y" unicode="y" horiz-adv-x="622" 
d="M417 738h220l-262 -419v-309h-117v309l-212 339l-78 80h143l203 -316l159 254z" />
    <glyph glyph-name="y" unicode="&#xff;" horiz-adv-x="622" 
d="M417 738h220l-262 -419v-309h-117v309l-212 339l-78 80h143l203 -316l159 254z" />
    <glyph glyph-name="y" unicode="&#xfd;" horiz-adv-x="622" 
d="M417 738h220l-262 -419v-309h-117v309l-212 339l-78 80h143l203 -316l159 254z" />
    <glyph glyph-name="z" unicode="z" horiz-adv-x="586" 
d="M174 103h384l-54 -93h-473v84l379 546h-334l-74 93h547v-84z" />
    <glyph glyph-name="braceleft" unicode="{" horiz-adv-x="370" 
d="M347 -3c12.667 -1.33301 23.0029 -6.17188 31.0029 -14.5049s12 -18.333 12 -30s-4 -21.667 -12 -30s-18.333 -13.166 -31 -14.499c-4.66699 0 -11.667 -0.333008 -21 -1h-4c-3.33301 0 -6 -0.333008 -8 -1h-3c-4.66699 0 -8.33398 0.333008 -11.001 1
c-6.66699 0.666992 -11.334 1 -14.001 1c-6 1.33301 -10.667 2.33301 -14 3c-42 10 -73.333 32 -94 66c-10.667 17.333 -17 35.333 -19 54c-0.666992 6 -1 10.667 -1 14l-1 28c0 13.333 -0.333008 31.333 -1 54v19v52v21c0 6.66699 0.333008 15.667 1 27v9v6
c0 0.666992 -0.166992 1.33398 -0.5 2.00098s-0.5 1.33398 -0.5 2.00098c0 2 -0.666992 4.33301 -2 7c-2 4.66699 -5 9.33398 -9 14.001c-4.66699 4.66699 -10 8.33398 -16 11.001s-12.667 4.33398 -20 5.00098l-19 2c-8.66699 0.666992 -16.334 3 -23.001 7
s-12 9.33301 -16 16s-6 14 -6 22c0 12 4.33301 22.333 13 31s19 13.667 31 15l18 1c8.66699 0.666992 16 2.33398 22 5.00098c6 3.33301 11.333 7.33301 16 12c4 4 7 8.66699 9 14c1.33301 2 2 4.33301 2 7c0.666992 1.33301 1 2.33301 1 3v3v1v2v11
c-0.666992 11.333 -1 20 -1 26v22v51v18c0.666992 22.667 1 41 1 55l1 27c0 4 0.333008 8 1 12v2c2 19.333 8.33301 37.333 19 54c20.667 34 51.667 56 93 66l12 3h3c2.66699 0.666992 7 1.33398 13 2.00098h12h3c2.66699 0 5.33398 -0.333008 8.00098 -1l26 -1
c12 -0.666992 22 -5.33398 30 -14.001s12 -18.667 12 -30s-4 -21.333 -12 -30s-18 -13.334 -30 -14.001c-8.66699 -0.666992 -16.334 -1.33398 -23.001 -2.00098l-20 -2l-6 -2c-12.667 -4 -22 -11.667 -28 -23c-2.66699 -4.66699 -4 -9.66699 -4 -15v-6v-26
c0.666992 -14 1 -32.333 1 -55v-18v-53v-20v-28v-9c0 -1.33301 -0.333008 -3 -1 -5v-8c0 -2.66699 -0.666992 -6.33398 -2 -11.001v-3c-2.66699 -10 -6 -19.667 -10 -29c-6.66699 -13.333 -15.334 -26 -26.001 -38c10.667 -11.333 19.334 -24 26.001 -38
c4 -8.66699 7 -18 9 -28l1 -4c1.33301 -4.66699 2 -8.66699 2 -12v-5c0.666992 -3.33301 1 -5.66602 1 -6.99902v-11v-25v-23v-51v-20c0 -23.333 -0.333008 -41 -1 -53v-27v-5c0 -5.33301 1.33301 -10 4 -14c6 -11.333 15.667 -19.333 29 -24l10 -3l7 -1h6z" />
    <glyph glyph-name="braceright" unicode="}" horiz-adv-x="369" 
d="M279 395c8 -0.666992 15.5 -3.16992 22.5 -7.50293s12.333 -9.83301 16 -16.5s5.5 -14 5.5 -22c0 -12 -4.16699 -22.333 -12.5 -31s-18.833 -13.667 -31.5 -15l-18 -1c-8 -0.666992 -15.333 -2.33398 -22 -5.00098c-6 -2.66699 -11.333 -6.33398 -16 -11.001
c-4 -4.66699 -7 -9.33398 -9 -14.001c-0.666992 -2.66699 -1.33398 -5 -2.00098 -7v-4v-3v-3v-11v-26v-22v-51v-18c0 -24 -0.333008 -42.333 -1 -55v-27c-0.666992 -2 -1 -5.66699 -1 -11v-3c-2.66699 -18.667 -9 -36.667 -19 -54c-21.333 -34 -52.666 -56 -93.999 -66
c-3.33301 -0.666992 -7.66602 -1.66699 -12.999 -3c-3.33301 0 -7.66602 -0.333008 -12.999 -1h-3c-2.66699 -0.666992 -6.33398 -1 -11.001 -1h-2l-34 2c-12 0.666992 -22.167 5.33398 -30.5 14.001s-12.5 18.834 -12.5 30.501s4.16699 21.667 12.5 30
s18.5 12.833 30.5 13.5c8 0.666992 15.333 1.33398 22 2.00098h4h5l11 2l7 2c12.667 4.66699 22 12.667 28 24c2 4 3.33301 9 4 15v5l-1 27c0 12 -0.333008 30 -1 54v19v52v21c0 6 0.333008 15 1 27v9v6l1 7c0 2.66699 0.333008 6.33398 1 11.001l1 3
c2 10.667 5 20.334 9 29.001c6.66699 14 15.667 26.667 27 38c-11.333 11.333 -20.333 24 -27 38c-4 9.33301 -7 18.666 -9 27.999l-1 4c-0.666992 4.66699 -1 8.66699 -1 12l-1 5v7v11c-0.666992 11.333 -1 20 -1 26v20v53v20c0.666992 23.333 1 41 1 53l1 27v6
c-0.666992 4.66699 -2 9.33398 -4 14.001c-6 11.333 -15.667 19 -29 23l-11 3l-7 1h-5h-3c-8.66699 0.666992 -16 1.33398 -22 2.00098c-12 0.666992 -22.167 5.16699 -30.5 13.5s-12.5 18.333 -12.5 30s4.16699 21.834 12.5 30.501s18.5 13.334 30.5 14.001
c5.33301 0 12.666 0.333008 21.999 1h3c3.33301 0.666992 6 1 8 1h3h11c5.33301 -0.666992 10 -1.33398 14 -2.00098h4c4.66699 -1.33301 8.33398 -2.33301 11.001 -3c41.333 -10 72.666 -32 93.999 -66c10 -16.667 16.333 -34.667 19 -54c0 -6.66699 0.333008 -11 1 -13
v-28c0.666992 -12.667 1 -31 1 -55v-18v-53v-20v-28v-9l-26 -2l26 -1v-3v-3l2 -8c2 -4.66699 5 -9 9 -13c4.66699 -4.66699 10 -8.66699 16 -12c6.66699 -2.66699 13.667 -4.33398 21 -5.00098z" />
    <glyph glyph-name="asciitilde" unicode="~" horiz-adv-x="651" 
d="M614.5 382c1.66699 -12.667 -1.82715 -24.001 -10.4941 -34.001c-15.333 -16.667 -31.166 -30.5 -47.499 -41.5s-31.5 -19.333 -45.5 -25s-29.5 -8.66699 -46.5 -9s-31.167 0.166992 -42.5 1.5s-25.166 4.83301 -41.499 10.5s-28.5 10.334 -36.5 14.001l-34 15.5
c-40.667 19.333 -68.334 29 -83.001 29c-32.667 0 -62 -20.333 -88 -61c-8.66699 -13.333 -21.334 -20 -38.001 -20c-6 0 -12 1 -18 3l-20 8c-12.667 4.66699 -21.334 13.667 -26.001 27c-4 12 -2.5 23.667 4.5 35s15.167 22.333 24.5 33s21.666 22.667 36.999 36
s33.833 24.166 55.5 32.499s44.5 12.5 68.5 12.5c15.333 0 31.666 -2.33301 48.999 -7s31.333 -9.16699 42 -13.5s25 -10.833 43 -19.5c17.333 -8.66699 30.166 -14.667 38.499 -18s18.666 -6.66602 30.999 -9.99902s22.5 -4 30.5 -2s16.833 5.83301 26.5 11.5
s19.834 14.167 30.501 25.5c7.33301 8.66699 16.666 13.667 27.999 15s21.666 -1 30.999 -7l18 -12c11.333 -7.33301 17.833 -17.333 19.5 -30z" />
    <glyph glyph-name="nonbreakingspace" unicode="&#xa0;" horiz-adv-x="475" 
 />
    <glyph glyph-name="cent" unicode="&#xa2;" horiz-adv-x="611" 
d="M535 164c11.333 -7.33301 17.666 -17.665 18.999 -30.998s-2.66699 -24.666 -12 -33.999c-44.667 -46.667 -100.667 -74.334 -168 -83.001v-60c0 -11.333 -4 -21.333 -12 -30c-9.33301 -8.66699 -20.333 -13 -33 -13h-22c-12.667 0 -23.334 4.16699 -32.001 12.5
s-13 18.5 -13 30.5v66c-40.667 9.33301 -76.667 26 -108 50s-55.666 52.833 -72.999 86.5s-26 69.5 -26 107.5c0 58 19.167 109.667 57.5 155s88.166 75.333 149.499 90v44c0 12 4.33301 22.167 13 30.5s19.334 12.5 32.001 12.5h22c12.667 0 23.334 -4.16699 32.001 -12.5
s13 -18.5 13 -30.5v-38c64 -8.66699 118 -34.334 162 -77.001c9.33301 -9.33301 13.5 -20.5 12.5 -33.5s-6.83301 -23.5 -17.5 -31.5l-18 -12c-8.66699 -6.66699 -18.667 -9.66699 -30 -9s-20.666 5 -27.999 13c-22.667 20.667 -49.667 34.667 -81 42v-285
c34 7.33301 62.333 22.666 85 45.999c7.33301 8 16.666 12.5 27.999 13.5s21.333 -1.5 30 -7.5zM262 399.001c-29.333 -12 -52.5 -30 -69.5 -54s-25.5 -50.167 -25.5 -78.5s8.5 -54.5 25.5 -78.5s40.167 -42 69.5 -54v265z" />
    <glyph glyph-name="sterling" unicode="&#xa3;" horiz-adv-x="753" 
d="M697 184c6.66699 -54 -5.00293 -97.3398 -35.0029 -130.007c-26.667 -30 -64.667 -45 -114 -45c-44.667 0 -94 22.667 -148 68c-50.667 -45.333 -106.667 -68 -168 -68h-1c-51.333 0.666992 -93.5 16.667 -126.5 48s-50.5 67.333 -52.5 108
c-1.33301 34.667 10.334 65.834 35.001 93.501s60.667 43.167 108 46.5c59.333 4 121 -19 185 -69c14.667 34.667 18 63 10 85c-1.33301 4.66699 -3.66602 9.33398 -6.99902 14.001h-212c-10.667 0 -19.834 3.66699 -27.501 11s-11.5 16.333 -11.5 27v30
c0 10.667 3.83301 19.667 11.5 27s16.834 11 27.501 11h58c-40 34 -60 74.667 -60 122c0 44.667 18.833 84 56.5 118s87.167 51 148.5 51c58 0 106 -17.667 144 -53s58.667 -78.333 62 -129c0.666992 -11.333 -2.66602 -20.666 -9.99902 -27.999
c-8.66699 -9.33301 -18.667 -13.666 -30 -12.999l-34 1c-10 0.666992 -18.667 4.33398 -26 11.001s-11.333 14.667 -12 24c-2 22.667 -11.333 42 -28 58c-16.667 15.333 -38.667 23 -66 23c-18 0 -34.333 -3.16699 -49 -9.5s-25.667 -14.166 -33 -23.499
s-11 -19.333 -11 -30c0 -14 5.5 -26.333 16.5 -37s32.833 -24.667 65.5 -42c30 -17.333 52.333 -31.666 67 -42.999h183c11.333 0 20.833 -3.66699 28.5 -11s11.5 -16.333 11.5 -27v-30c0 -10.667 -3.83301 -19.667 -11.5 -27s-17.167 -11 -28.5 -11h-111
c11.333 -54.667 0 -112.334 -34 -173.001c36 -30.667 62.667 -46 80 -46c14.667 0 24.334 2.66699 29.001 8c8 8.66699 11 24 9 46c-1.33301 9.33301 1.16699 18 7.5 26s14.5 12.667 24.5 14l33 6c11.333 2.66699 21.666 0.333984 30.999 -6.99902
c8.66699 -6 13.667 -14.333 15 -25zM315.997 148.993c-41.333 33.333 -76.998 50.001 -106.998 50.001c-2 0 -4 -0.333008 -6 -1c-9.33301 0 -17 -1.16699 -23 -3.5s-10 -5.33301 -12 -9s-3.16699 -6.5 -3.5 -8.5s-0.5 -4.33301 -0.5 -7
c0.666992 -14.667 7.16699 -27.334 19.5 -38.001s28.166 -16 47.499 -16c29.333 0 57.666 11 84.999 33z" />
    <glyph glyph-name="yen" unicode="&#xa5;" horiz-adv-x="666" 
d="M610 715c8 -14 7.33594 -27.999 -1.99707 -41.999l-176 -284h84c12.667 0 23.334 -4.33301 32.001 -13s13 -19 13 -31v-19c0 -12 -4.33301 -22.333 -13 -31s-19.334 -13 -32.001 -13h-127v-32h127c8 0 15.5 -1.83301 22.5 -5.5s12.5 -8.83398 16.5 -15.501s6 -14 6 -22
v-20c0 -12 -4.33301 -22.167 -13 -30.5s-19.334 -12.5 -32.001 -12.5h-127v-91c0 -12 -4.33301 -22.167 -13 -30.5s-19.334 -12.5 -32.001 -12.5h-22c-12.667 0 -23.334 4.16699 -32.001 12.5s-13 18.5 -13 30.5v91h-127c-12.667 0 -23.334 4.16699 -32.001 12.5
s-13 18.5 -13 30.5v20c0 12 4.33301 22.167 13 30.5s19.334 12.5 32.001 12.5h127v32h-127c-12.667 0 -23.334 4.33301 -32.001 13s-13 19 -13 31v19c0 12 4.33301 22.333 13 31s19.334 13 32.001 13h84l-177 284c-8.66699 14 -9 28 -1 42c8.66699 15.333 22 23 40 23h25
c17.333 0 30.333 -7 39 -21l173 -278l173 278c8.66699 14 21.667 21 39 21h25c18 0 31.333 -7.66699 40 -23z" />
    <glyph glyph-name="dieresis" unicode="&#xa8;" horiz-adv-x="413" 
d="M341 759c8 0 15.333 -1.83398 22 -5.50098s11.834 -8.66699 15.501 -15s5.5 -13.166 5.5 -20.499v-66c0 -7.33301 -1.83301 -14.166 -5.5 -20.499s-8.83398 -11.5 -15.501 -15.5s-14 -6 -22 -6h-73c-11.333 0 -21.333 4.16699 -30 12.5s-13 18.166 -13 29.499v66
c0 11.333 4.33301 21 13 29s18.667 12 30 12h73zM144 758.999c12 0 22.167 -4 30.5 -12s12.5 -17.667 12.5 -29v-66c0 -11.333 -4.16699 -21.166 -12.5 -29.499s-18.5 -12.5 -30.5 -12.5h-73c-8 0 -15.167 2 -21.5 6s-11.5 9.16699 -15.5 15.5s-6 13.166 -6 20.499v66
c0 11.333 4.16699 21 12.5 29s18.5 12 30.5 12h73z" />
    <glyph glyph-name="copyright" unicode="&#xa9;" horiz-adv-x="933" 
d="M466 757c73.333 0 141.166 -16.666 203.499 -49.999s111.666 -78.833 147.999 -136.5s54.5 -120.334 54.5 -188.001s-18.167 -130.334 -54.5 -188.001s-85.666 -103.167 -147.999 -136.5s-130.166 -50 -203.499 -50c-54.667 0 -107.167 9.83301 -157.5 29.5
s-93.666 46.334 -129.999 80.001s-65.166 73.5 -86.499 119.5s-32 94.333 -32 145c0 68 18.167 130.833 54.5 188.5s85.666 103.167 147.999 136.5s130.166 50 203.499 50zM760 382.001c0 74 -28.668 137.335 -86.001 190.002s-126.5 79 -207.5 79
s-150.333 -26.333 -208 -79s-86.5 -115.834 -86.5 -189.501s28.833 -136.834 86.5 -189.501s126.834 -79 207.501 -79c40 0 78.167 7.16699 114.5 21.5s67.5 33.5 93.5 57.5s46.833 52.5 62.5 85.5s23.5 67.5 23.5 103.5zM465.999 489.003
c-26.667 0 -49.665 -10.332 -68.998 -30.999c-20 -20.667 -30 -46 -30 -76c0 -29.333 9.66699 -54.333 29 -75s42.666 -31 69.999 -31c22 0 42 7.33301 60 22c8 6.66699 17.5 10 28.5 10s20.5 -3 28.5 -9l17 -13c11.333 -8.66699 17 -19.667 17 -33
c0.666992 -13.333 -4.33301 -24.333 -15 -33c-38.667 -34 -84 -51 -136 -51c-58 0 -107.667 20.833 -149 62.5s-62 92 -62 151s20.667 109.167 62 150.5s91 62 149 62c52.667 0 99 -17.333 139 -52c10 -8.66699 14.667 -19.834 14 -33.501s-6.33398 -24.5 -17.001 -32.5
l-17 -13c-8.66699 -6 -18.5 -8.83301 -29.5 -8.5s-20.5 3.83301 -28.5 10.5c-18 15.333 -38.333 23 -61 23z" />
    <glyph glyph-name="guillemotleft" unicode="&#xab;" horiz-adv-x="618" 
d="M190 266l105.002 -91.999c9.33301 -8.66699 14.166 -19.167 14.499 -31.5s-4.16699 -22.833 -13.5 -31.5l-17 -16c-8.66699 -8 -19 -12 -31 -12s-22.333 4 -31 12l-160 140c-10 8.66699 -15 19.5 -15 32.5s5.33301 23.833 16 32.5l160 134c8.66699 8 19 11.667 31 11
s22.333 -5 31 -13l16 -16c9.33301 -8.66699 13.666 -19.334 12.999 -32.001s-5.66699 -23 -15 -31zM554.002 174.001c9.33301 -8 14.168 -18.3311 14.501 -30.998s-4.16699 -23.334 -13.5 -32.001l-17 -16c-8.66699 -8 -19 -12 -31 -12s-22.333 4 -31 12l-161 140
c-9.33301 8.66699 -14 19.5 -14 32.5s5 23.833 15 32.5l160 134c9.33301 8 20 11.667 32 11s22.333 -5 31 -13l16 -16c9.33301 -8.66699 13.666 -19.334 12.999 -32.001s-6 -23 -16 -31l-103 -87z" />
    <glyph glyph-name="softhyphen" unicode="&#xad;" horiz-adv-x="0" 
 />
    <glyph glyph-name="registered" unicode="&#xae;" horiz-adv-x="933" 
d="M567 326l38.002 -54.999c7.33301 -10 9.66602 -21 6.99902 -33c-3.33301 -12 -10.333 -21.333 -21 -28l-19 -11c-7.33301 -4 -15 -6 -23 -6c-16 0 -28.667 6.66699 -38 20l-47 68c-4.66699 -0.666992 -9 -1 -13 -1h-17v-36c0 -11.333 -4.33301 -21.333 -13 -30
s-19.334 -13 -32.001 -13h-23c-8 0 -15.333 2 -22 6s-12 9.33301 -16 16s-6 13.667 -6 21v289c0 11.333 4.33301 21.333 13 30s19 13 31 13h81c48.667 0 89.667 -16.667 123 -50c28 -28.667 42 -61.667 42 -99c-0.666992 -38.667 -15.667 -72.334 -45 -101.001z
M499.002 426.001c0.666992 10 -2.66797 19.333 -10.001 28c-10 10 -23 15 -39 15h-16v-83h14c9.33301 0 17.833 1.83301 25.5 5.5s13.834 8.5 18.501 14.5s7 12.667 7 20zM466 757.001c73.333 0 141.166 -16.666 203.499 -49.999s111.666 -78.833 147.999 -136.5
s54.5 -120.334 54.5 -188.001s-18.167 -130.334 -54.5 -188.001s-85.666 -103.167 -147.999 -136.5s-130.166 -50 -203.499 -50c-54.667 0 -107.167 9.83301 -157.5 29.5s-93.666 46.334 -129.999 80.001s-65.166 73.5 -86.499 119.5s-32 94.333 -32 145
c0 68 18.167 130.833 54.5 188.5s85.666 103.167 147.999 136.5s130.166 50 203.499 50zM466 114.002c40 0 78.166 7.16895 114.499 21.502s67.5 33.5 93.5 57.5s46.833 52.5 62.5 85.5s23.5 67.5 23.5 103.5c0 74 -28.667 137.333 -86 190s-126.5 79 -207.5 79
s-150.333 -26.333 -208 -79s-86.5 -115.834 -86.5 -189.501s28.833 -136.834 86.5 -189.501s126.834 -79 207.501 -79z" />
    <glyph glyph-name="degree" unicode="&#xb0;" horiz-adv-x="428" 
d="M213.5 767c47 0 87.167 -15.334 120.5 -46.001s50 -67.5 50 -110.5s-16.667 -79.833 -50 -110.5s-73.333 -46 -120 -46c-31.333 0 -60 7 -86 21s-46.667 33 -62 57s-23 50.333 -23 79c0 42.667 16.667 79.334 50 110.001s73.5 46 120.5 46zM270 610.999
c0 8.66699 -2.5 16.667 -7.5 24s-11.833 13.166 -20.5 17.499s-18 6.5 -28 6.5c-16 0 -29.5 -4.66699 -40.5 -14s-16.5 -20.666 -16.5 -33.999s5.5 -24.666 16.5 -33.999s24.5 -14 40.5 -14c7.33301 0 14.5 1.16699 21.5 3.5s13 5.66602 18 9.99902s9 9.5 12 15.5
s4.5 12.333 4.5 19z" />
    <glyph glyph-name="acute" unicode="&#xb4;" horiz-adv-x="233" 
d="M233 776c7.33301 -13.333 7 -26.333 -1 -39l-82 -130c-8 -12.667 -19.667 -19 -35 -19h-44c-14.667 0 -26.334 6 -35.001 18c-7.33301 11.333 -8.33301 23.333 -3 36l56 130c6.66699 16.667 19.334 25 38.001 25h70c16 0 28 -7 36 -21z" />
    <glyph glyph-name="cedilla" unicode="&#xb8;" horiz-adv-x="212" 
d="M185 4c22 -18.667 33 -42.999 33 -72.999c0 -32.667 -13.333 -59.334 -40 -80.001c-30.667 -24.667 -77.667 -37 -141 -37c-12.667 0 -25 0.666992 -37 2c-14 0.666992 -25 6.33398 -33 17.001c-7.33301 10 -10 21 -8 33l2 14c2 11.333 7.5 20.5 16.5 27.5
s19.5 10.167 31.5 9.5c22.667 -2 43.667 -1.83301 63 0.5s32.333 6.16602 39 11.499c-8.66699 3.33301 -19 4.33301 -31 3c-18.667 -1.33301 -34 5 -46 19c-12.667 14.667 -16 31.334 -10 50.001l1 2l25 54c5.33301 12 15.333 18 30 18h42c12.667 0 22 -5 28 -15
s6.66699 -20 2 -30l-3 -6c14 -4.66699 26 -11.334 36 -20.001z" />
    <glyph glyph-name="guillemotright" unicode="&#xbb;" horiz-adv-x="618" 
d="M560 300c10 -8.66699 15.167 -19.501 15.5 -32.501s-4.5 -23.833 -14.5 -32.5l-161 -140c-8.66699 -8 -18.667 -12 -30 -12c-12.667 0 -23.334 4 -32.001 12l-16 16c-9.33301 8.66699 -14 19.167 -14 31.5s4.66699 22.833 14 31.5l106 92l-104 87
c-10 8 -15.167 18.333 -15.5 31s3.83398 23.334 12.501 32.001l16 16c8.66699 8 19 12.333 31 13s22.667 -3 32 -11zM301 299.999c10 -8.66699 15.167 -19.502 15.5 -32.502s-4.5 -23.833 -14.5 -32.5l-160 -140c-8.66699 -8 -19 -12 -31 -12s-22.667 4 -32 12l-16 16
c-9.33301 8.66699 -14 19.334 -14 32.001s5 23 15 31l105 92l-104 87c-10 8 -15.167 18.333 -15.5 31s4.16699 23.334 13.5 32.001l16 16c8 8 18 12.167 30 12.5s22.667 -3.16699 32 -10.5z" />
    <glyph glyph-name="Agrave" unicode="&#xc0;" 
d="M378 758l-9 11l-105 169h112l7 -16l70 -164h-75zM678 70l28 -60h-123l-59 144h-348l-4 -8l-55 -136h-101l24 59l241 595l-71 71h199l11 -28zM213 248h273l-137 341z" />
    <glyph glyph-name="Aacute" unicode="&#xc1;" 
d="M433 900l-91 -142h-75l14 34l63 146h112zM678 70l28 -60h-123l-59 144h-348l-4 -8l-55 -136h-101l24 59l241 595l-71 71h199l11 -28zM213 248h273l-137 341z" />
    <glyph glyph-name="Acircumflex" unicode="&#xc2;" 
d="M678 70l27.999 -60.001h-123l-59 144h-348l-4 -8l-55 -136h-101l24 60l241 594l-71 71h9c-2 0.666992 -3.33301 1.33398 -4 2.00098l-47 43l1 8l185 171c6.66699 6.66699 13.334 6.66699 20.001 0l183 -178l-53 -44c-7.33301 -5.33301 -14 -5 -20 1l-115 111
c-4 4.66699 -8.33301 5 -13 1l-121 -113l-4 -2h178l11 -28zM212.999 247.999h273l-137 341z" />
    <glyph glyph-name="Atilde" unicode="&#xc3;" 
d="M162 782l-6.00098 -8.00391l-74 35l7 10c6.66699 10.667 14.334 21.167 23.001 31.5s20.167 21.833 34.5 34.5s31.5 22.834 51.5 30.501s41.333 11.5 64 11.5c14 0 29.167 -2.16699 45.5 -6.5s29.5 -8.66602 39.5 -12.999s24 -10.833 42 -19.5
c14.667 -7.33301 25.667 -12.5 33 -15.5s17 -6.5 29 -10.5s21.833 -5.83301 29.5 -5.5s16.5 1.5 26.5 3.5s19.5 6.33301 28.5 13s18.5 15.334 28.5 26.001l6 7l66 -46l-8 -10c-14 -15.333 -28.833 -28.166 -44.5 -38.499s-30 -18 -43 -23s-27.333 -7.66699 -43 -8
s-29 0.166992 -40 1.5s-24.167 4.5 -39.5 9.5s-26.833 9.33301 -34.5 13l-32.5 15.5c-42 20 -71.667 30 -89 30c-38 0 -71.333 -22.667 -100 -68zM677.999 69.9961l28 -60h-123l-59 144h-348l-4 -8l-55 -136h-101l24 59l241 595l-71 71h199l11 -28zM212.999 247.996h273
l-137 341z" />
    <glyph glyph-name="Adieresis" unicode="&#xc4;" 
d="M312 800h-102v95h102v-95zM510 800h-103v95h103v-95zM678 70l28 -60h-123l-59 144h-348l-4 -8l-55 -136h-101l24 59l241 595l-71 71h199l11 -28zM213 248h273l-137 341z" />
    <glyph glyph-name="Aring" unicode="&#xc5;" 
d="M678 70l27.9971 -59.999h-123l-59 144h-348l-4 -8l-55 -136h-101l24 59l241 595l-71 71h106c-17.333 5.33301 -32.666 13.5 -45.999 24.5s-23.666 24.167 -30.999 39.5s-11 31.666 -11 48.999c0 32.667 12.833 60.834 38.5 84.501s56.834 35.5 93.501 35.5
c24 0 46.167 -5.33301 66.5 -16s36.333 -25.334 48 -44.001s17.5 -38.667 17.5 -60c0 -26 -8.16699 -49.333 -24.5 -70s-37.5 -35 -63.5 -43h5l11 -28zM302.997 848.001c0 -14 5.5 -26 16.5 -36s24.5 -15 40.5 -15s29.5 5 40.5 15s16.5 22 16.5 36
c0 8.66699 -2.5 17 -7.5 25s-12 14.167 -21 18.5s-18.5 6.5 -28.5 6.5c-16 0 -29.5 -4.83301 -40.5 -14.5s-16.5 -21.5 -16.5 -35.5zM212.997 248.001h273l-137 341z" />
    <glyph glyph-name="AE" unicode="&#xc6;" horiz-adv-x="903" 
d="M760 312h-289v-194h395l-103 -108h-421v124h-168l-50 -124h-108l23 58l242 597l-69 70h663l-113 -99h-291v-225h398zM223 255h119c0.666992 113.333 1 211 1 293z" />
    <glyph glyph-name="Ccedilla" unicode="&#xc7;" horiz-adv-x="637" 
d="M529 141l7.99902 4.99805l52 -60l-11 -7c-62 -41.333 -130.333 -60 -205 -56l-4 -8c18.667 -4 34.334 -11.333 47.001 -22c18.667 -16 28 -36.667 28 -62c0 -28 -11.333 -51 -34 -69c-28 -22 -72 -33 -132 -33c-14.667 0 -28.334 19.667 -41.001 59l-5 16l17 -2
c56 -4 93.333 1.33301 112 16c4 3.33301 6 7.66602 6 12.999c0 4 -1 6.66699 -3 8c-7.33301 4.66699 -32.333 7.33398 -75 8.00098h-11l1 50l18 39c-73.333 20.667 -133.666 62.334 -180.999 125.001s-71 134 -71 214c0 64 15.5 123 46.5 177s73 96.667 126 128
s110.833 47 173.5 47c78.667 0 149 -24.333 211 -73l10 -8l-57 -56l-8 6c-46 36 -98 54 -156 54c-72.667 0 -134.667 -26.833 -186 -80.5s-77 -118.5 -77 -194.5c0 -50 11.667 -96.167 35 -138.5s55.333 -75.666 96 -99.999s84.667 -36.5 132 -36.5c50 0 96 13.667 138 41z
" />
    <glyph glyph-name="Egrave" unicode="&#xc8;" horiz-adv-x="647" 
d="M331 764l-9 11l-105 169h112l7 -16l70 -164h-75zM194 375v-269h415l-72 -96h-455v653l-44 72h573l-74 -94h-343v-173h412l-74 -93h-338z" />
    <glyph glyph-name="Eacute" unicode="&#xc9;" horiz-adv-x="647" 
d="M235 768l-3.00098 2.99902c-8.66699 8 -10.667 17 -6 27l55 130c4.66699 10.667 13 16 25 16h70c10.667 0 18.334 -4.66699 23.001 -14c4.66699 -8 4.66699 -16 0 -24l-83 -130c-2 -3.33301 -4.66699 -6 -8 -8l-3 -2h-3c-22.667 0.666992 -43.667 1.33398 -63 2.00098h-4
zM193.999 374.999v-269h415l-72 -96h-455v653l-44 72h573l-74 -94h-343v-173h412l-74 -93h-338z" />
    <glyph glyph-name="Ecircumflex" unicode="&#xca;" horiz-adv-x="647" 
d="M137 783c-4.66699 4 -7.00195 7.99902 -7.00195 11.999s2.33301 8 7 12l2 2l156 145c6 5.33301 13.333 8 22 8s16 -3 22 -9l149 -144c4.66699 -5.33301 7.33398 -11.666 8.00098 -18.999l1 -12h-12c-32.667 0.666992 -58.667 0.666992 -78 0h-5l-80 77
c-4 4 -8.33301 4 -13 0l-95 -77h-4c-6 -0.666992 -14.667 -1 -26 -1c-3.33301 0 -15.666 0.333008 -36.999 1h-4zM193.998 374.999v-269h415l-72 -96h-455v653l-44 72h573l-74 -94h-343v-173h412l-74 -93h-338z" />
    <glyph glyph-name="Edieresis" unicode="&#xcb;" horiz-adv-x="647" 
d="M266 806h-103v95h103v-95zM463 806h-103v95h103v-95zM194 375v-269h415l-72 -96h-455v653l-44 72h573l-74 -94h-343v-173h412l-74 -93h-338z" />
    <glyph glyph-name="Igrave" unicode="&#xcc;" horiz-adv-x="273" 
d="M117 760l-9 12l-105 168h112l7 -15l70 -165h-75zM197 735l-3 -6v-719h-113v658l-46 67h162z" />
    <glyph glyph-name="Iacute" unicode="&#xcd;" horiz-adv-x="273" 
d="M161 940h112l-22 -37l-92 -143h-75l14 34zM35 735h163l-4 -6v-719h-112v658z" />
    <glyph glyph-name="Icircumflex" unicode="&#xce;" horiz-adv-x="274" 
d="M154 961l182 -177l-53 -44c-6.66699 -6 -13.334 -5.66699 -20.001 1l-115 111c-4 4 -8 4 -12 0l-121 -112c-3.33301 -2.66699 -7 -4 -11 -4c-3.33301 0 -6.66602 1 -9.99902 3v1l-46 40v11l5 3l180 167c7.33301 6.66699 14.333 6.66699 21 0zM35 735h163l-4 -6v-719h-112
v658z" />
    <glyph glyph-name="Idieresis" unicode="&#xcf;" horiz-adv-x="273" 
d="M279 803h-102v95h102v-95zM82 803h-103v95h103v-95zM35 735h162l-3 -7v-718h-113v658z" />
    <glyph glyph-name="Eth" unicode="&#xd0;" horiz-adv-x="804" 
d="M369 736c119.333 0 213.667 -32.5 283 -97.5s104 -153.5 104 -265.5c0 -119.333 -38.667 -211.333 -116 -276c-68.667 -58 -159 -87 -271 -87h-223v250h-116v121h116v355h223zM275.001 253v-144h94c21.333 0 41.5 1.5 60.5 4.5s38.5 8 58.5 15s38 17.167 54 30.5
s30.5 29.5 43.5 48.5s23.167 42.5 30.5 70.5s11 59.667 11 95c0 42 -5.33301 79.167 -16 111.5s-24.334 58 -41.001 77s-36.667 34.333 -60 46s-46.166 19.667 -68.499 24s-46.5 6.5 -72.5 6.5h-94v-258h74v-127h-74z" />
    <glyph glyph-name="Ntilde" unicode="&#xd1;" horiz-adv-x="758" 
d="M156 778l-5.00195 -9l-75 35l7 11c6.66699 10 14.334 20.167 23.001 30.5s20.167 21.833 34.5 34.5s31.666 22.834 51.999 30.501s41.5 11.5 63.5 11.5c14.667 0 30.167 -2.16699 46.5 -6.5s29.5 -8.66602 39.5 -12.999s23.833 -10.833 41.5 -19.5
s30.834 -14.834 39.501 -18.501s20 -7.16699 34 -10.5s25.5 -4 34.5 -2s19.5 6.33301 31.5 13s23.667 16.334 35 29.001l7 7l66 -46l-9 -9c-12 -14 -24.5 -26 -37.5 -36s-26 -17.333 -39 -22s-25.333 -8.33398 -37 -11.001s-24.167 -3.33398 -37.5 -2.00098
s-24.666 2.83301 -33.999 4.5s-20.5 5 -33.5 10s-23 9 -30 12s-16.167 7.5 -27.5 13.5c-42.667 20 -72.667 30 -90 30c-38 0 -71.333 -22.333 -100 -67zM682.998 735l-5 -8v-717h-84l-13 18l-388 486v-504h-112v660l-45 65h45h82h36l-15 -26l382 -485v446l-45 66z" />
    <glyph glyph-name="Ograve" unicode="&#xd2;" horiz-adv-x="826" 
d="M397 758l-9 11l-105 169h112l7 -16l70 -164h-75zM413 730c66 0 127 -16.835 183 -50.502s100.333 -79.667 133 -138s49 -121.666 49 -189.999s-16.333 -131.666 -49 -189.999s-77 -104.333 -133 -138s-117.167 -50.5 -183.5 -50.5s-127.5 16.833 -183.5 50.5
s-100.333 79.667 -133 138s-49 121.5 -49 189.5c0 51.333 9.66699 100.5 29 147.5s45.333 87.333 78 121s71.5 60.5 116.5 80.5s92.5 30 142.5 30zM464 71.998c61.333 10 111.001 42 149.001 96c22 30.667 37 65.5 45 104.5s8.33301 78.5 1 118.5
c-8.66699 46.667 -25.834 88.5 -51.501 125.5s-57 65.833 -94 86.5s-75.833 31 -116.5 31c-12 0 -24 -1 -36 -3c-61.333 -10 -111 -42 -149 -96c-22 -30.667 -37 -65.5 -45 -104.5s-8.33301 -78.5 -1 -118.5c14 -77.333 50.167 -139.5 108.5 -186.5
s121.5 -64.833 189.5 -53.5z" />
    <glyph glyph-name="Oacute" unicode="&#xd3;" horiz-adv-x="826" 
d="M550 900l-91 -142h-76l14 34l63 146h112zM413 730c66 0 127 -16.835 183 -50.502s100.333 -79.667 133 -138s49 -121.666 49 -189.999s-16.333 -131.666 -49 -189.999s-77 -104.333 -133 -138s-117 -50.5 -183 -50.5c-50 0 -97.5 10 -142.5 30
s-83.833 46.833 -116.5 80.5s-58.667 74 -78 121s-29 96 -29 147s9.66699 100 29 147s45.333 87.333 78 121s71.5 60.5 116.5 80.5s92.5 30 142.5 30zM464 71.998c61.333 10 111 42 149 96c22 30.667 37 65.5 45 104.5s8.33301 78.5 1 118.5c-8 46.667 -25 88.5 -51 125.5
s-57.5 65.833 -94.5 86.5s-75.833 31 -116.5 31c-12 0 -24 -1 -36 -3c-61.333 -10 -111 -42 -149 -96c-22 -30.667 -37 -65.5 -45 -104.5s-8.33301 -78.5 -1 -118.5c14 -77.333 50.167 -139.5 108.5 -186.5s121.5 -64.833 189.5 -53.5z" />
    <glyph glyph-name="Ocircumflex" unicode="&#xd4;" horiz-adv-x="826" 
d="M260 737l-45.001 40l-1 11l5 3l180 168c7.33301 6 14.333 6 21 0l182 -178l-52 -44c-7.33301 -5.33301 -14.333 -5 -21 1l-114 111c-4.66699 4.66699 -9 5 -13 1l-121 -113c-3.33301 -2.66699 -7 -4 -11 -4c-3.33301 0 -6.66602 1.33301 -9.99902 4zM412.999 730
c66 0 127 -16.835 183 -50.502s100.333 -79.667 133 -138s49 -121.666 49 -189.999s-16.333 -131.666 -49 -189.999s-77 -104.333 -133 -138s-117.167 -50.5 -183.5 -50.5s-127.5 16.833 -183.5 50.5s-100.333 79.667 -133 138s-49 121.5 -49 189.5
c0 51.333 9.66699 100.5 29 147.5s45.333 87.333 78 121s71.5 60.5 116.5 80.5s92.5 30 142.5 30zM463.999 71.998c61.333 10 111 42 149 96c22 30.667 37 65.5 45 104.5s8.33301 78.5 1 118.5c-14 77.333 -50.167 139.5 -108.5 186.5s-121.5 64.833 -189.5 53.5
c-61.333 -10 -111 -42 -149 -96c-22 -30.667 -37 -65.5 -45 -104.5s-8.33301 -78.5 -1 -118.5c14 -77.333 50.167 -139.5 108.5 -186.5s121.5 -64.833 189.5 -53.5z" />
    <glyph glyph-name="Otilde" unicode="&#xd5;" horiz-adv-x="826" 
d="M233 782l-6.00195 -8.00293l-74 35l7 10c6.66699 10.667 14.334 21.167 23.001 31.5s20.167 21.833 34.5 34.5s31.5 22.834 51.5 30.501s41.333 11.5 64 11.5c14 0 29.167 -2.16699 45.5 -6.5s29.5 -8.66602 39.5 -12.999s24 -10.833 42 -19.5s31.333 -14.834 40 -18.501
s19.834 -7.16699 33.501 -10.5s25.167 -4 34.5 -2s19.833 6.33301 31.5 13s23.5 16.334 35.5 29.001l6 7l66 -46l-8 -10c-14 -15.333 -28.833 -28.166 -44.5 -38.499s-30 -18 -43 -23s-27.333 -7.66699 -43 -8s-29 0.166992 -40 1.5s-24.167 4.5 -39.5 9.5
s-26.833 9.33301 -34.5 13l-32.5 15.5c-42 20 -71.667 30 -89 30c-38 0 -71.333 -22.667 -100 -68zM412.498 729.997c66.333 0 127.5 -16.833 183.5 -50.5s100.333 -79.667 133 -138s49 -121.666 49 -189.999s-16.333 -131.666 -49 -189.999s-77 -104.333 -133 -138
s-117.167 -50.5 -183.5 -50.5s-127.5 16.833 -183.5 50.5s-100.333 79.667 -133 138s-49 121.666 -49 189.999s16.333 131.666 49 189.999s77 104.333 133 138s117.167 50.5 183.5 50.5zM463.998 71.9971c61.333 10 111 42 149 96c22 30.667 37 65.5 45 104.5
s8.33301 78.5 1 118.5c-8 46.667 -25 88.5 -51 125.5s-57.5 65.833 -94.5 86.5s-75.833 31 -116.5 31c-12 0 -24 -1 -36 -3c-61.333 -10 -111 -42 -149 -96c-22 -30.667 -37 -65.5 -45 -104.5s-8.33301 -78.5 -1 -118.5c14 -77.333 50.167 -139.5 108.5 -186.5
s121.5 -64.833 189.5 -53.5z" />
    <glyph glyph-name="Odieresis" unicode="&#xd6;" horiz-adv-x="826" 
d="M409 800h-103v95h103v-95zM606 800h-103v95h103v-95zM413 730c66 0 127 -16.835 183 -50.502s100.333 -79.667 133 -138s49 -121.666 49 -189.999s-16.333 -131.666 -49 -189.999s-77 -104.333 -133 -138s-117.167 -50.5 -183.5 -50.5s-127.5 16.833 -183.5 50.5
s-100.333 79.667 -133 138s-49 121.5 -49 189.5c0 51.333 9.66699 100.5 29 147.5s45.333 87.333 78 121s71.5 60.5 116.5 80.5s92.5 30 142.5 30zM464 71.998c61.333 10 111 42 149 96c22 30.667 37 65.5 45 104.5s8.33301 78.5 1 118.5
c-14 77.333 -50.167 139.5 -108.5 186.5s-121.5 64.833 -189.5 53.5c-61.333 -10 -111 -42 -149 -96c-22 -30.667 -37 -65.5 -45 -104.5s-8.33301 -78.5 -1 -118.5c14 -77.333 50.167 -139.5 108.5 -186.5s121.5 -64.833 189.5 -53.5z" />
    <glyph glyph-name="multiply" unicode="&#xd7;" horiz-adv-x="553" 
d="M357 310l130 -119.999c9.33301 -8.66699 14 -19.167 14 -31.5s-4.66699 -22.833 -14 -31.5l-16 -14c-8.66699 -8 -19 -11.833 -31 -11.5s-22.333 4.16602 -31 11.499v1l-133 122l-133 -122c-8.66699 -8 -19 -12 -31 -12s-22.333 3.66699 -31 11l-16 14
c-9.33301 8.66699 -14 19.167 -14 31.5s4.66699 22.833 14 31.5l130 120l-130 119c-9.33301 8.66699 -14 19.334 -14 32.001s5 23 15 31l15 14c8.66699 8 19 11.833 31 11.5s22.333 -4.16602 31 -11.499l133 -122l133 122c8.66699 7.33301 19 11.166 31 11.499
s22.333 -3.5 31 -11.5l16 -14c9.33301 -8 14 -18.333 14 -31s-4.66699 -23.334 -14 -32.001z" />
    <glyph glyph-name="Oslash" unicode="&#xd8;" horiz-adv-x="809" 
d="M622 642c44 -34.667 78.5 -77.333 103.5 -128s37.5 -104 37.5 -160c0 -66 -16 -127 -48 -183s-75.667 -100.167 -131 -132.5s-115.333 -48.5 -180 -48.5c-34 0 -67.667 5 -101 15l-8 -17h-128l34 67c-48.667 34 -86.667 77.333 -114 130s-41 109 -41 169
c0 65.333 16 126 48 182s75.5 100.167 130.5 132.5s114.833 48.5 179.5 48.5c40 0 79 -6.66699 117 -20l10 21h129zM468 85.001c62 14 110.667 49.333 146 106c19.333 31.333 31.833 66 37.5 104s4.16699 76 -4.5 114c-12.667 52.667 -37.334 98 -74.001 136l-227 -454
c40.667 -12.667 81.334 -14.667 122.001 -6zM340 622.001c-61.333 -14 -109.665 -49.333 -144.998 -106c-20 -30.667 -32.833 -65 -38.5 -103s-3.83398 -76 5.49902 -114c14 -59.333 42.667 -109 86 -149l230 461c-28.667 11.333 -58 17 -88 17
c-16.667 0 -33.334 -2 -50.001 -6z" />
    <glyph glyph-name="Ugrave" unicode="&#xd9;" horiz-adv-x="753" 
d="M378 758l-8 11l-106 169h113l7 -16l69 -164h-75zM687 736l0.000976562 -431c0 -82.667 -30 -153.334 -90 -212.001s-132.333 -88 -217 -88s-157.167 29.333 -217.5 88s-90.5 129.334 -90.5 212.001v359l-50 72h162l1 -431c0 -53.333 19 -99 57 -137s84 -57 138 -57
c43.333 0 81.166 8 113.499 24s57.333 38.667 75 68s26.5 63.333 26.5 102v357l-53 74h145z" />
    <glyph glyph-name="Uacute" unicode="&#xda;" horiz-adv-x="753" 
d="M434 900l-91 -142h-76l14 34l63 146h113zM687 736v-431c0 -82.667 -30 -153.334 -90 -212.001s-132.333 -88 -217 -88s-157.167 29.333 -217.5 88s-90.5 129.334 -90.5 212.001v359l-50 72h162l1 -431c0 -53.333 19 -99 57 -137s84 -57 138 -57
c65.333 0 117.5 17.667 156.5 53s58.5 82.333 58.5 141v357l-53 74h145z" />
    <glyph glyph-name="Ucircumflex" unicode="&#xdb;" horiz-adv-x="753" 
d="M225 733c-3.33301 0 -6.66602 1.33301 -9.99902 4l-46 43l1 8l184 171c6.66699 6.66699 13.667 6.66699 21 0l182 -178l-53 -44c-6.66699 -5.33301 -13.334 -5 -20.001 1l-115 111c-4 4.66699 -8 5 -12 1l-121 -113c-3.33301 -2.66699 -7 -4 -11 -4zM687 736
l0.000976562 -431c0 -82.667 -30 -153.334 -90 -212.001s-132.333 -88 -217 -88s-157.167 29.333 -217.5 88s-90.5 129.334 -90.5 212.001v359l-50 72h162l1 -431c0 -53.333 19 -99 57 -137s84 -57 138 -57c43.333 0 81.166 8 113.499 24s57.333 38.667 75 68
s26.5 63.333 26.5 102v357l-53 74h145z" />
    <glyph glyph-name="Udieresis" unicode="&#xdc;" horiz-adv-x="753" 
d="M511 800h-103v95h103v-95zM313 800h-103v95h103v-95zM687 736v-431c0 -82.667 -30 -153.334 -90 -212.001s-132.333 -88 -217 -88s-157.167 29.333 -217.5 88s-90.5 129.334 -90.5 212.001v359l-50 72h162l1 -431c0 -53.333 19 -99 57 -137s84 -57 138 -57
c65.333 0 117.5 17.667 156.5 53s58.5 82.333 58.5 141v357l-53 74h145z" />
    <glyph glyph-name="Yacute" unicode="&#xdd;" horiz-adv-x="592" 
d="M420 904l-91 -142h-76l14 34l63 146h113zM486 738h118l-242 -419v-309h-112v309l-196 338l-95 81h49h42h83l-6 -16l177 -297l144 248l-76 65h113h1z" />
    <glyph glyph-name="Thorn" unicode="&#xde;" horiz-adv-x="646" 
d="M301 739c55.333 0 106.333 -12.5 153 -37.5s83.667 -58.833 111 -101.5s41 -89 41 -139v-9c0 -76.667 -29.833 -142.167 -89.5 -196.5s-131.5 -81.5 -215.5 -81.5h-110v-164h-112v893h112v-164h110zM494 460c0 46.667 -18.833 86.834 -56.5 120.501
s-83.167 50.5 -136.5 50.5h-110v-349h110c26 0 51 4.5 75 13.5s44.5 21.167 61.5 36.5s30.667 33.666 41 54.999s15.5 43.333 15.5 66v7z" />
    <glyph glyph-name="divide" unicode="&#xf7;" horiz-adv-x="620" 
d="M539 325c12.667 0 23.333 -4.16699 32 -12.5s13 -18.5 13 -30.5v-20c0 -8 -2 -15.167 -6 -21.5s-9.5 -11.5 -16.5 -15.5s-14.5 -6 -22.5 -6h-459c-12.667 0 -23.334 4.16699 -32.001 12.5s-13 18.5 -13 30.5v20c0 12 4.33301 22.167 13 30.5s19.334 12.5 32.001 12.5h459
zM309.499 168c13 0 25.168 -3.00098 36.501 -9.00098s20.333 -14.333 27 -25s10 -22.167 10 -34.5s-3.33301 -23.666 -10 -33.999s-15.667 -18.5 -27 -24.5s-23.333 -9 -36 -9c-20.667 0 -38 6.66699 -52 20s-21 29.333 -21 48c0 12 3.16699 23.333 9.5 34
s15.166 19 26.499 25s23.5 9 36.5 9zM322 99.999c0 2 -0.333008 3.66699 -1 5c-2 4.66699 -5.66699 7 -11 7s-9.33301 -2.33301 -12 -7c-0.666992 -1.33301 -1 -3 -1 -5s0.333008 -3.66699 1 -5c2.66699 -4.66699 6.66699 -7 12 -7s9 2.33301 11 7c0.666992 1.33301 1 3 1 5
zM309.5 375.999c-20.333 0 -37.5 6.66699 -51.5 20s-21 29.333 -21 48c0 12.667 3.16699 24.167 9.5 34.5s15.166 18.666 26.499 24.999s23.5 9.5 36.5 9.5s25.167 -3.16699 36.5 -9.5s20.333 -14.666 27 -24.999s10 -21.833 10 -34.5c0 -18.667 -7.16699 -34.667 -21.5 -48
s-31.666 -20 -51.999 -20zM297 444.499c0 -1.66699 0.333008 -3.5 1 -5.5c2.66699 -4.66699 6.66699 -7 12 -7s9 2.33301 11 7c0.666992 2 1 3.83301 1 5.5s-0.333008 3.5 -1 5.5c-2 4 -5.66699 6 -11 6s-9.33301 -2 -12 -6c-0.666992 -2 -1 -3.83301 -1 -5.5z" />
    <glyph glyph-name="Ydieresis" unicode="&#x178;" horiz-adv-x="592" 
d="M452 805h-102v94h102v-94zM255 805h-103v94h103v-94zM486 738h118l-242 -419v-309h-112v309l-196 338l-95 81h49h42h84l-7 -16l177 -297l144 248l-76 65h113h1z" />
    <glyph glyph-name="dotaccent" unicode="&#x2d9;" horiz-adv-x="233" 
d="M198 574h-164v153h164v-153z" />
    <glyph glyph-name="quoteleft" unicode="&#x2018;" horiz-adv-x="269" 
d="M225 592c4.66699 -10.667 4.66797 -21.666 0.000976562 -32.999l-78 -184c-8 -18 -22 -27 -42 -27c-5.33301 0 -10.666 1 -15.999 3l-20 7c-12.667 4.66699 -21.334 13 -26.001 25c-4.66699 11.333 -4.33398 22.666 0.999023 33.999l86 181
c4.66699 10 12.5 17.167 23.5 21.5s22.167 4.5 33.5 0.5l12 -4c12 -4.66699 20.667 -12.667 26 -24z" />
    <glyph glyph-name="quoteright" unicode="&#x2019;" horiz-adv-x="269" 
d="M225 592c4.66699 -10.667 4.66797 -21.666 0.000976562 -32.999l-78 -184c-8 -18 -22 -27 -42 -27c-5.33301 0 -10.666 1 -15.999 3l-20 7c-12.667 4.66699 -21.334 13 -26.001 25c-4.66699 11.333 -4.33398 22.666 0.999023 33.999l86 181
c4.66699 10 12.5 17.167 23.5 21.5s22.167 4.5 33.5 0.5l12 -4c12 -4.66699 20.667 -12.667 26 -24z" />
    <glyph glyph-name="quotesinglbase" unicode="&#x201a;" horiz-adv-x="211" 
d="M176 87c4.66699 -11.333 4.66602 -22.667 -0.000976562 -34l-77 -174c-7.33301 -18 -21.333 -27 -42 -27c-5.33301 0 -10.666 1 -15.999 3l-21 8c-12.667 4.66699 -21.667 12.667 -27 24c-4.66699 11.333 -4.33398 22.666 0.999023 33.999l76 174
c5.33301 10.667 13.5 18.334 24.5 23.001s22.167 5 33.5 1l22 -8c12.667 -4 21.334 -12 26.001 -24z" />
    <glyph glyph-name="quoteleftreversed" unicode="&#x201b;" horiz-adv-x="296" 
d="M221 473c10.667 -5.33301 17.834 -13.666 21.501 -24.999s2.83398 -22.333 -2.49902 -33l-13 -26c-8 -16.667 -21.667 -25 -41 -25c-7.33301 0 -14.333 1.66699 -21 5c-40.667 20 -68.334 42 -83.001 66c-15.333 24 -25 47.667 -29 71h-3v30v26v75
c0 12 4.5 22.333 13.5 31s19.833 13 32.5 13h97c12.667 0 23.334 -4.33301 32.001 -13s13 -19 13 -31v-87c0 -12 -4.33301 -22.333 -13 -31s-19.334 -13 -32.001 -13h-12c1.33301 -2.66699 3.66602 -7 6.99902 -13c4 -4.66699 15 -11.334 33 -20.001z" />
    <glyph glyph-name="quotedblleft" unicode="&#x201c;" horiz-adv-x="427" 
d="M383 592c4.66699 -11.333 4.66895 -22.332 0.00195312 -32.999l-79 -184c-7.33301 -18 -21 -27 -41 -27c-6 0 -11.333 1 -16 3l-20 7c-12.667 4.66699 -21.334 13 -26.001 25c-4.66699 11.333 -4.33398 22.666 0.999023 33.999l86 181c4.66699 10 12.5 17.167 23.5 21.5
s22.167 4.5 33.5 0.5l12 -4c12 -4.66699 20.667 -12.667 26 -24zM225.002 592.001c4.66699 -11.333 4.66797 -22.332 0.000976562 -32.999l-78 -184c-8 -18 -22 -27 -42 -27c-5.33301 0 -10.666 1 -15.999 3l-20 7c-12.667 4.66699 -21.334 13 -26.001 25
c-4.66699 11.333 -4.33398 22.666 0.999023 33.999l86 181c4.66699 10 12.667 17.167 24 21.5s22.333 4.5 33 0.5l12 -4c12 -4.66699 20.667 -12.667 26 -24z" />
    <glyph glyph-name="quotedblright" unicode="&#x201d;" horiz-adv-x="437" 
d="M226 590c4.66699 -11.333 4.33105 -22.667 -1.00195 -34l-86 -181c-8 -16.667 -21.667 -25 -41 -25c-5.33301 0 -10.666 1 -15.999 3l-12 4c-12 4.66699 -20.667 12.667 -26 24c-4.66699 10.667 -4.66699 21.667 0 33l79 183c4.66699 11.333 12.5 19.333 23.5 24
s22.167 4.66699 33.5 0l20 -7c12.667 -4.66699 21.334 -12.667 26.001 -24zM392.997 589.999c4.66699 -11.333 4.33301 -22.667 -1 -34l-86 -181c-8 -16.667 -21.667 -25 -41 -25c-5.33301 0 -10.666 1 -15.999 3l-12 4c-12 4.66699 -20.333 12.667 -25 24
c-4.66699 10.667 -4.66699 21.667 0 33l78 183c4.66699 11.333 12.667 19.333 24 24s22.666 4.66699 33.999 0l20 -7c12 -4.66699 20.333 -12.667 25 -24z" />
    <glyph glyph-name="quotedblbase" unicode="&#x201e;" horiz-adv-x="397" 
d="M183 99c4.66699 -11.333 4.66699 -22.667 0 -34l-77 -174c-7.33301 -18 -21.333 -27 -42 -27c-5.33301 0 -10.666 1 -15.999 3l-21 8c-12.667 4.66699 -21.667 12.667 -27 24c-4.66699 11.333 -4.33398 22.666 0.999023 33.999l76 174
c4.66699 10.667 12.667 18.334 24 23.001s22.666 5 33.999 1l22 -8c12.667 -4.66699 21.334 -12.667 26.001 -24zM361 98.999c4.66699 -11.333 4.66699 -22.667 0 -34l-77 -174c-7.33301 -18 -21 -27 -41 -27c-6 0 -11.333 1 -16 3l-22 8
c-12.667 4.66699 -21.334 12.667 -26.001 24c-5.33301 11.333 -5.33301 22.666 0 33.999l76 174c5.33301 10.667 13.5 18.334 24.5 23.001s22.167 5 33.5 1l22 -8c12.667 -4 21.334 -12 26.001 -24z" />
    <glyph glyph-name="bullet" unicode="&#x2022;" horiz-adv-x="308" 
d="M154 399c31.333 0 58 -10.332 80 -30.999s33 -45.334 33 -74.001c0 -30 -11.333 -55.333 -34 -76c-22 -20 -48.333 -30 -79 -30c-31.333 0 -58.166 10.333 -80.499 31s-33.5 45.5 -33.5 74.5s11.167 53.833 33.5 74.5s49.166 31 80.499 31z" />
    <glyph glyph-name="ellipsis" unicode="&#x2026;" horiz-adv-x="776" 
d="M141 171c28.667 0 53.167 -9.5 73.5 -28.5s30.5 -41.667 30.5 -68s-10.167 -49 -30.5 -68s-44.833 -28.5 -73.5 -28.5s-53.167 9.5 -73.5 28.5s-30.5 41.667 -30.5 68s10.167 49 30.5 68s44.833 28.5 73.5 28.5zM388.5 171c28.333 0 52.668 -9.49902 73.001 -28.499
s30.5 -41.833 30.5 -68.5c0 -17.333 -4.66699 -33.333 -14 -48s-21.833 -26.334 -37.5 -35.001s-33.167 -13 -52.5 -13c-28 0 -52.167 9.5 -72.5 28.5s-30.5 41.667 -30.5 68s10.167 49 30.5 68s44.666 28.5 72.999 28.5zM635.002 171.001c28.667 0 53.167 -9.5 73.5 -28.5
s30.5 -41.667 30.5 -68s-10.167 -49 -30.5 -68s-44.833 -28.5 -73.5 -28.5s-53.167 9.5 -73.5 28.5s-30.5 41.5 -30.5 67.5c0 17.333 4.66699 33.5 14 48.5s22 26.833 38 35.5s33.333 13 52 13z" />
    <glyph glyph-name="guilsinglleft" unicode="&#x2039;" horiz-adv-x="359" 
d="M295 174c9.33301 -8.66699 14.167 -19.166 14.5 -31.499s-4.16699 -22.833 -13.5 -31.5l-17 -16c-8.66699 -8 -19 -12 -31 -12s-22.333 4 -31 12l-160 140c-10 8.66699 -15 19.5 -15 32.5s5.33301 23.833 16 32.5l160 134c8.66699 7.33301 19.167 10.833 31.5 10.5
s22.5 -4.5 30.5 -12.5l16 -16c9.33301 -8.66699 13.833 -19.334 13.5 -32.001s-5.5 -23 -15.5 -31l-104 -87z" />
    <glyph glyph-name="guilsinglright" unicode="&#x203a;" horiz-adv-x="359" 
d="M301 300c10.667 -8.66699 16.001 -19.502 16.001 -32.502s-5 -23.833 -15 -32.5l-160 -140c-8.66699 -8 -19 -12 -31 -12c-12.667 0 -23.334 4 -32.001 12l-16 16c-9.33301 8.66699 -14 19.334 -14 32.001s5 23 15 31l105 92l-104 87c-10 8 -15.167 18.333 -15.5 31
s4.16699 23.334 13.5 32.001l16 16c8 8 18 12.167 30 12.5s22.667 -3.16699 32 -10.5z" />
    <glyph glyph-name="Euro" unicode="&#x20ac;" horiz-adv-x="747" 
d="M460 620c-80 0 -133.666 -38.3301 -160.999 -114.997h120c12.667 0 23.334 -4.33301 32.001 -13s13 -18.667 13 -30v-20c0 -12 -4.33301 -22.167 -13 -30.5s-19.334 -12.5 -32.001 -12.5h-139v-26v-7h139c12.667 0 23.334 -4.16699 32.001 -12.5s13 -18.5 13 -30.5v-20
c0 -5.33301 -1.16699 -10.666 -3.5 -15.999s-5.5 -10 -9.5 -14s-8.83301 -7.16699 -14.5 -9.5s-11.5 -3.5 -17.5 -3.5h-123c14 -42.667 35.333 -75.667 64 -99s62 -35 100 -35c50 0 91.333 19.667 124 59c6.66699 8 15.667 13 27 15s21.666 0 30.999 -6l19 -10
c11.333 -7.33301 18.333 -17.333 21 -30c2 -12.667 -1.33301 -24 -10 -34c-54.667 -66.667 -125 -100 -211 -100c-86.667 0 -157.334 32.667 -212.001 98c-32.667 39.333 -55.667 86.666 -69 141.999h-81c-12.667 0 -23.334 4.16699 -32.001 12.5s-13 18.5 -13 30.5v20
c0 12 4.33301 22.167 13 30.5s19.334 12.5 32.001 12.5h69v7v26h-69c-12.667 0 -23.334 4.16699 -32.001 12.5s-13 18.5 -13 30.5v20c0 12 4.33301 22.167 13 30.5s19.334 12.5 32.001 12.5h84c13.333 53.333 35.666 97.666 66.999 132.999c52.667 58.667 122.667 88 210 88
c46.667 0 89.334 -9 128.001 -27s70.667 -44 96 -78c8 -10.667 10.667 -22.334 8 -35.001c-3.33301 -12.667 -11 -22.334 -23 -29.001l-19 -9c-10 -5.33301 -20.5 -6.83301 -31.5 -4.5s-19.833 7.83301 -26.5 16.5c-30.667 40 -74.667 60 -132 60z" />
    <glyph glyph-name="e.alt1" unicode="&#xf000;" horiz-adv-x="793" 
d="M595 683c25.333 -16.667 47.5039 -35.998 66.5039 -57.998s33.667 -43.333 44 -64s18.5 -42.5 24.5 -65.5s10 -43 12 -60s2.83301 -34 2.5 -51s-1 -28.667 -2 -35s-1.83301 -11.833 -2.5 -16.5l-4 -21h-557c2.66699 -16.667 5 -28.334 7 -35.001
c16 -62.667 47.333 -108.667 94 -138c24.667 -14.667 52.334 -24.334 83.001 -29.001c26 -3.33301 59 -3 99 1c34 4 64.333 12 91 24c22.667 10 44 23.333 64 40l18 15l77 -72l-22 -19c-28.667 -24.667 -58.334 -44 -89.001 -58c-37.333 -17.333 -79 -29 -125 -35
c-27.333 -3.33301 -51.333 -5 -72 -5c-20 0 -39 1.33301 -57 4c-47.333 6.66699 -90 22 -128 46c-34.667 21.333 -64.334 49.333 -89.001 84s-42.334 73.667 -53.001 117c-4.66699 19.333 -8.33398 39.333 -11.001 60h-40l38 21c-0.666992 10.667 -1 21.667 -1 33
c-0.666992 38.667 4 77 14 115c22.667 86 67.667 153.333 135 202c37.333 26.667 78.666 44.334 123.999 53.001c44.667 8.66699 89.667 8.66699 135 0c44 -8.66699 85.333 -26.334 124 -53.001zM184.004 455.002c-2 -7.33301 -3.99902 -20.332 -5.99902 -38.999h443
c-4 49.333 -15.333 89.666 -34 120.999c-14.667 25.333 -34.167 46.5 -58.5 63.5s-50.833 28.167 -79.5 33.5c-30 6 -60 5.83301 -90 -0.5s-56.667 -17.833 -80 -34.5c-46.667 -33.333 -78.334 -81.333 -95.001 -144z" />
    <glyph glyph-name="a.alt1" unicode="&#xf001;" horiz-adv-x="726" 
d="M603 615c12.667 -14.667 23.001 -33.3311 31.001 -55.998s13.833 -44.5 17.5 -65.5s5.83398 -49.667 6.50098 -86s0.833984 -66 0.500977 -89s-1.5 -57.167 -3.5 -102.5c-1.33301 -38.667 -2.66602 -99 -3.99902 -181l-1 -25h-112v26v19c-55.333 -36 -119 -54 -191 -54
h-13c-44 1.33301 -85.5 10.166 -124.5 26.499s-72.167 38.5 -99.5 66.5c-50.667 52.667 -72.334 112.667 -65.001 180c4 30.667 14.333 59.834 31 87.501s38 51.667 64 72s56.167 36.666 90.5 48.999s70.5 19.166 108.5 20.499c77.333 2.66699 145.666 -16.333 204.999 -57
c-4.66699 50.667 -14.334 84.667 -29.001 102c-24 28 -50 48.333 -78 61s-61.667 19 -101 19c-56.667 0 -107.334 -15.667 -152.001 -47l-18 -13l-76 79l24 17c65.333 46.667 139.333 70 222 70c109.333 0 198.333 -39.667 267 -119zM351.001 397.003
c-2.66699 0 -5.66699 -0.331055 -9 -0.998047c-47.333 -1.33301 -89 -14.833 -125 -40.5s-56 -56.834 -60 -93.501c-4 -35.333 8 -67.333 36 -96c36 -36.667 84.333 -56.334 145 -59.001c66 -2 119.333 16.333 160 55c32 29.333 46 63.333 42 102
c-2 24 -11.833 46.167 -29.5 66.5s-40.667 36.5 -69 48.5s-58.5 18 -90.5 18z" />
    <glyph glyph-name="A.alt1" unicode="&#xf002;" horiz-adv-x="667" 
d="M489 315h-311.001v-137h-113v319c0 66 25 122.5 75 169.5s110 70.5 180 70.5h27c34 0 66.833 -6.33301 98.5 -19s58.834 -29.667 81.501 -51s40.667 -47 54 -77s20 -61 20 -93v-319h-112v137zM488.999 497c0 36.667 -14 68.167 -42 94.5s-61.333 39.5 -100 39.5h-27
c-39.333 0 -72.833 -13.167 -100.5 -39.5s-41.5 -57.833 -41.5 -94.5v-75h311v75zM601.999 10h-537v107h537v-107z" />
    <glyph glyph-name="E.alt1" unicode="&#xf003;" horiz-adv-x="679" 
d="M614 10h-536v107h536v-107zM192 400v-104h440l-65 -118h-489v484l-47 68h47h564l-77 -98h-373v-114h431l-65 -118h-366z" />
    <glyph glyph-name="O.alt1" unicode="&#xf004;" horiz-adv-x="654" 
d="M595 10h-536v107h536v-107zM327 197c-76.667 0 -142.167 26.167 -196.5 78.5s-81.5 115.666 -81.5 189.999s27.167 137.833 81.5 190.5s119.833 79 196.5 79s142.167 -26.333 196.5 -79s81.5 -116.167 81.5 -190.5s-27.167 -137.666 -81.5 -189.999
s-119.833 -78.5 -196.5 -78.5zM471 384c19.333 44.667 19.666 91.001 0.999023 139.001c-9.33301 22.667 -22.166 42.667 -38.499 60s-34.833 30.5 -55.5 39.5s-41.667 13.5 -63 13.5c-18 0 -35.333 -3 -52 -9c-37.333 -14.667 -64.333 -41.334 -81 -80.001
c-19.333 -44.667 -19.333 -91 0 -139c11.333 -28.667 28.666 -53 51.999 -73s48.333 -32.5 75 -37.5s54 -2.5 82 7.5c36.667 14.667 63.334 41 80.001 79z" />
    <glyph glyph-name="U.alt1" unicode="&#xf005;" horiz-adv-x="668" 
d="M69 419l-0.00292969 252.001l-46 66h163l-5 -7v-311c0 -18.667 3.83301 -36.167 11.5 -52.5s17.834 -30.5 30.501 -42.5s27.834 -21.667 45.501 -29s35.834 -11 54.501 -11h27c39.333 0 72.833 13.167 100.5 39.5s41.5 58.166 41.5 95.499v251l-46 67h162l-3 -6v-312
c0 -66.667 -25 -123.5 -75 -170.5s-110 -70.5 -180 -70.5h-27c-70 0 -129.833 23.5 -179.5 70.5s-74.5 103.833 -74.5 170.5zM604.997 10.001h-537v107h537v-107z" />
    <glyph glyph-name="ampersand.alt1" unicode="&#xf006;" horiz-adv-x="1553" 
d="M1353 627c44 -10.667 79.998 -32.5068 107.998 -65.5068s42 -70.5 42 -112.5c0 -46 -16.5 -85 -49.5 -117s-71.833 -51.667 -116.5 -59c-65.333 -10.667 -128.333 -7.33398 -189 9.99902c4 -14 7 -28.167 9 -42.5s3 -29.166 3 -44.499c0 -78 -24 -150.667 -72 -218
c-32 -45.333 -73 -84.833 -123 -118.5s-105.5 -59.5 -166.5 -77.5s-124.5 -27 -190.5 -27c-59.333 0 -117.166 7.5 -173.499 22.5s-107 36 -152 63s-84.5 58.667 -118.5 95s-60.333 76.833 -79 121.5s-28 91 -28 139c0 78.667 24 151.667 72 219
s113.667 120.666 197 159.999c-37.333 30 -66 64.667 -86 104s-30 80 -30 122c0 36.667 7.66699 72.334 23 107.001c-62.667 -23.333 -117.334 -40.833 -164.001 -52.5s-92.667 -17.5 -138 -17.5c-48 0 -90.167 5.5 -126.5 16.5s-64.5 25.667 -84.5 44s-35 37.833 -45 58.5
s-15 42.334 -15 65.001c0 46.667 18 86.5 54 119.5s79.667 49.5 131 49.5c24.667 0 48.334 -4.33301 71.001 -13l26 -10l-50 -109l-23 8c-9.33301 3.33301 -19 5 -29 5c-29.333 -1.33301 -51.333 -10 -66 -26c-7.33301 -8.66699 -10.666 -18.334 -9.99902 -29.001
c1.33301 -11.333 5.5 -21.666 12.5 -30.999s16.667 -17 29 -23s27.166 -10.833 44.499 -14.5s36.666 -5.5 57.999 -5.5c42.667 0 90.834 7.83301 144.501 23.5s115.834 36.834 186.501 63.501c41.333 16 73.833 28.167 97.5 36.5s54.167 17.833 91.5 28.5
s72 18.334 104 23.001c31.333 6 62.666 9 93.999 9h7l3 -26v26c1.33301 0 3 -0.333008 5 -1c74 -1.33301 141.833 -16.666 203.5 -45.999s110.167 -68.666 145.5 -117.999s53 -103 53 -161v-2c0 -56.667 -21.5 -105.5 -64.5 -146.5s-95.167 -62.167 -156.5 -63.5
c-66.667 -2 -123.334 20 -170.001 66c-40.667 39.333 -61 86 -61 140c0 46 14.667 82 44 108l15 14l101 -74l-22 -21c-1.33301 -2 -3.16602 -5.66699 -5.49902 -11s-4.5 -11.166 -6.5 -17.499s-3 -11.5 -3 -15.5c0 -25.333 8 -47.333 24 -66s39 -28.334 69 -29.001
c29.333 0 56.333 12 81 36c24.667 24.667 37 51 37 79v3c0 38 -13 73.333 -39 106s-61.333 58.667 -106 78s-93.334 29.333 -146.001 30c-27.333 0 -56.333 -2.33301 -87 -7c-64 -12.667 -116.5 -38.334 -157.5 -77.001s-61.5 -82 -61.5 -130
c0 -38.667 13.667 -74.667 41 -108s64.666 -59.666 111.999 -78.999c26 -10 62 -17 108 -21c8 -0.666992 14.667 -1 20 -1h27l-2 -111h-26c-26 0 -58.333 3.66699 -97 11c-46.667 8.66699 -90.667 3.33398 -132 -15.999c-64 -30.667 -114 -70.667 -150 -120
s-54 -102.666 -54 -159.999c0 -59.333 19.333 -114.333 58 -165s91.334 -90.834 158.001 -120.501s139 -44.5 217 -44.5c80 0 154.167 15.667 222.5 47s121.5 73.666 159.5 126.999c34.667 48.667 52 100.667 52 156c0 10.667 -0.666992 21 -2 31
c-3.33301 28 -12.833 53.833 -28.5 77.5s-35.667 42.667 -60 57s-49.833 22.166 -76.5 23.499c-40.667 2 -75.834 -6 -105.501 -24s-56.5 -47.667 -80.5 -89l-12 -22l-112 59l15 24c18.667 30.667 42.834 57.5 72.501 80.5s62.5 40.5 98.5 52.5s73.667 18 113 18h17
c16.667 -0.666992 33 -2.66699 49 -6c46 -8 102.333 -26.667 169 -56l16 -7c29.333 -13.333 52 -23 68 -29s36.833 -11.667 62.5 -17s48.834 -6.66602 69.501 -3.99902c23.333 3.33301 42.833 12.333 58.5 27s23.167 31 22.5 49
c-0.666992 14.667 -9.16699 28.834 -25.5 42.501s-34.166 22.834 -53.499 27.501l-28 7l41 114z" />
    <glyph glyph-name="ampersand.alt2" unicode="&#xf007;" horiz-adv-x="1117" 
d="M1037 466c14.667 -21.333 24.0049 -44.834 28.0049 -70.501s0.333008 -52.834 -11 -81.501s-31.333 -54 -60 -76c-38.667 -29.333 -97 -48 -175 -56c25.333 -36.667 38 -78 38 -124c0 -40 -9.33301 -79.167 -28 -117.5s-44.667 -72.666 -78 -102.999
s-75.833 -54.833 -127.5 -73.5s-108.167 -28 -169.5 -28c-59.333 0 -114.166 10.333 -164.499 31s-92 48 -125 82s-59.167 71.833 -78.5 113.5s-30.333 84.167 -33 127.5c-2 32 0.333008 64 7 96s19.5 64.5 38.5 97.5s43 63 72 90s66.833 51.333 113.5 73s99 37.5 157 47.5
c-40 48.667 -57 104 -51 166c3.33301 30 12.5 59 27.5 87s34.833 53.333 59.5 76s55.667 40.834 93 54.501s78 20.5 122 20.5c40.667 0 77 -5.5 109 -16.5s57.5 -25.5 76.5 -43.5s33.5 -38.167 43.5 -60.5s15 -45.5 15 -69.5
c0.666992 -46.667 -15.666 -87.834 -48.999 -123.501s-78.666 -53.834 -135.999 -54.501h-26l-1 118h26c23.333 0 42.166 6.16699 56.499 18.5s21.5 25.833 21.5 40.5c0 19.333 -11.333 37.333 -34 54s-56.667 25 -102 25c-52.667 0 -95.667 -13.667 -129 -41
s-51.666 -59.333 -54.999 -96c-1.33301 -13.333 -0.166016 -27.333 3.50098 -42s10.5 -30.167 20.5 -46.5s25.833 -31 47.5 -44s47.5 -22.167 77.5 -27.5l25 -4l-12 -94h-28c-46.667 4.66699 -90.667 4.66699 -132 0c-50.667 -5.33301 -96.167 -15.333 -136.5 -30
s-73.333 -31.834 -99 -51.501s-46.834 -41.667 -63.501 -66s-28 -48.666 -34 -72.999s-8.33301 -48.833 -7 -73.5c2 -30.667 10 -60.667 24 -90s32.667 -56 56 -80s52.666 -43.333 87.999 -58s74 -22 116 -22c46.667 0 89 6.83301 127 20.5s68 31.167 90 52.5
s38.833 43.833 50.5 67.5s17.5 47.167 17.5 70.5c0 26.667 -12.333 50.334 -37 71.001s-55.334 33 -92.001 37c-38.667 4 -70.667 -3.66699 -96 -23c-26.667 -20.667 -27.667 -49 -3 -85l17 -25l-113 -56l-12 19c-15.333 21.333 -24.833 44.666 -28.5 69.999
s0.166016 52.333 11.499 81s31.333 54 60 76c17.333 13.333 38.666 23.333 63.999 30s47.166 10.667 65.499 12s44.833 2.33301 79.5 3c28 0.666992 48.333 1.33398 61 2.00098c35.333 1.33301 62.5 2.83301 81.5 4.5s41.167 5.33398 66.5 11.001s43.666 13.167 54.999 22.5
c12 8.66699 20.167 19.667 24.5 33s5.66602 25.5 3.99902 36.5s-4.83398 20.167 -9.50098 27.5l-16 23l101 57z" />
    <glyph glyph-name="CA.dlig" unicode="&#xf008;" horiz-adv-x="1383" 
d="M1366 10l-123.003 0.00292969l-68 167c-52 -14.667 -100 -22.667 -144 -24h-12c-56.667 0 -114 10 -172 30l-69 -173h-101l23 59l61 149l-47 22l-57 27c-12.667 6 -30.167 13.167 -52.5 21.5s-41.5 13.333 -57.5 15s-34.667 2.66699 -56 3
s-43.166 -2.33398 -65.499 -8.00098s-45.833 -13.834 -70.5 -24.501l-20 -9l-52 79l28 13c28.667 12 56.667 21.5 84 28.5s52 11.667 74 14s45.5 2 70.5 -1s45.833 -6.33301 62.5 -10s36.834 -10.167 60.501 -19.5s41.834 -16.833 54.501 -22.5l53 -24.5l9 -4.5l10 -5
c3.33301 -1.66699 6.33301 -2.83398 9 -3.50098l143 353l-73 72h201l11 -27l177 -435l22 -51h-1l61 -151zM1010 589.003l-127 -317c50.667 -17.333 100.667 -26 150 -26c32 0 67.667 5.66699 107 17zM572.997 133.003l18.001 10.999l67 -69l-27 -17
c-62.667 -38.667 -130.334 -58 -203.001 -58c-51.333 0 -100.666 10 -147.999 30s-88 46.667 -122 80s-61.167 73 -81.5 119s-30.5 94.5 -30.5 145.5s10.167 99.5 30.5 145.5s47.5 85.667 81.5 119s74.667 60 122 80s96.666 30 147.999 30c82.667 0 157.667 -24 225 -72
l24 -18l-79 -81l-18 14c-63.333 50 -132 69.333 -206 58c-68 -10 -122 -43.667 -162 -101c-21.333 -30 -35.833 -63.667 -43.5 -101s-7.83398 -74.666 -0.500977 -111.999c14.667 -76.667 52.834 -138.167 114.501 -184.5s128.167 -63.833 199.5 -52.5
c32.667 4.66699 63 16 91 34z" />
    <glyph glyph-name="CH.dlig" unicode="&#xf009;" horiz-adv-x="1416" 
d="M1339 738l-4.00195 -6.99707v-722h-112v265c-56 -16 -108.667 -24 -158 -24h-6c-65.333 0.666992 -135 10.667 -209 30v-271h-112v303c-27.333 7.33301 -51.833 12.666 -73.5 15.999s-46.5 5 -74.5 5s-57.5 -3.66699 -88.5 -11s-64.167 -18.333 -99.5 -33l-20 -8l-56 82
l30 12c52.667 22 103.834 37 153.501 45s90.834 10.667 123.501 8s67.667 -8.33398 105 -17.001v258l-47 68h47h112h3l-3 -5v-352c79.333 -22.667 149.333 -34.334 210 -35.001c50 -0.666992 104.333 9.33301 163 30v296l-46 67h162zM572.998 133.003l18.001 10.999l67 -69
l-27 -17c-62.667 -38.667 -130.334 -58 -203.001 -58c-51.333 0 -100.666 10 -147.999 30s-88 46.667 -122 80s-61.167 73 -81.5 119s-30.5 94.5 -30.5 145.5s10.167 99.5 30.5 145.5s47.5 85.667 81.5 119s74.667 60 122 80s96.666 30 147.999 30
c82.667 0 157.667 -24 225 -72l24 -18l-79 -81l-18 14c-63.333 50.667 -132 70 -206 58c-68 -10 -122 -43.667 -162 -101c-21.333 -30 -35.833 -63.667 -43.5 -101s-7.83398 -74.666 -0.500977 -111.999c14.667 -76.667 52.834 -138.167 114.501 -184.5
s128.167 -63.833 199.5 -52.5c32.667 4.66699 63 16 91 34z" />
    <glyph glyph-name="EA.dlig" unicode="&#xf00a;" horiz-adv-x="1294" 
d="M1260 48l16.001 -36h-121l-12 27l-47 116h-334l-26 -64c34.667 7.33301 67.667 19.333 99 36l21 11l56 -84l-25 -14c-18.667 -10 -38.334 -19 -59.001 -27c-19.333 -7.33301 -39.166 -13.5 -59.499 -18.5s-40.5 -8.5 -60.5 -10.5c-19.333 -2 -39 -3 -59 -3
c-44.667 0 -93.334 5 -146.001 15l-7 2c-76.667 15.333 -133 22.333 -169 21c-38 0 -95 -6.66699 -171 -20h-2l-72 -5v674l-47 68h163h-1h390l-66 -106h-326v-220h383l-67 -107h-316v-187c60 5.33301 103.667 8 131 8c36 0 70.667 -2.66699 104 -8
c15.333 -2.66699 38 -7 68 -13c10 -2 18.667 -4 26 -6c32 -6 60.667 -10 86 -12l242 587l-44 64h171l12 -27zM1052 262l-124 304l-123 -304h247z" />
    <glyph glyph-name="CF.dlig" unicode="&#xf00b;" horiz-adv-x="1294" 
d="M1222 642h-336.998v-215c66.667 17.333 129 27.333 187 30l26 1l4 -96l-26 -1c-54.667 -2.66699 -118.334 -14 -191.001 -34v-317h-112v286c-50.667 -12 -97.667 -18 -141 -18c-76 0 -156.667 17.667 -242 53l-29 12l56 83l19 -8c46.667 -19.333 91 -32 133 -38
s77.167 -7.33301 105.5 -4s61.166 10 98.499 20v274l-45 65h163l-1 -1h445zM573.002 133l18.001 10.999l67 -69l-27 -17c-62.667 -38.667 -130.334 -58 -203.001 -58c-51.333 0 -100.666 10 -147.999 30s-88 46.667 -122 80s-61.167 73 -81.5 119s-30.5 94.5 -30.5 145.5
s10.167 99.5 30.5 145.5s47.5 85.667 81.5 119s74.667 60 122 80s96.666 30 147.999 30c82.667 0 157.667 -24 225 -72l24 -18l-79 -81l-18 14c-63.333 50.667 -132 70 -206 58c-68 -10 -122 -43.667 -162 -101c-21.333 -30 -35.833 -63.667 -43.5 -101
s-7.83398 -74.666 -0.500977 -111.999c14.667 -76.667 52.834 -138.167 114.501 -184.5s128.167 -63.833 199.5 -52.5c32.667 4.66699 63 16 91 34z" />
    <glyph glyph-name="CE.dlig" unicode="&#xf00c;" horiz-adv-x="1319" 
d="M881 328l0.000976562 -213h419l-83 -107h-448v289c-50 -12 -97 -18 -141 -18c-75.333 0 -155.666 17.667 -240.999 53l-29 12l55 84l20 -8c34.667 -14.667 67.5 -25.167 98.5 -31.5s61 -8.83301 90 -7.5s53.5 4 73.5 8s44.667 10 74 18v261l-47 68h163v-1h426l-96 -93
h-334v-213c67.333 17.333 129.666 27.333 186.999 30l56 2l-76 -99h-12c-38.667 -2 -80.334 -10.333 -125.001 -25c-12 -4 -22 -7 -30 -9zM573.001 133l18.002 10.999l67 -69l-27 -17c-62.667 -38.667 -130.334 -58 -203.001 -58c-69.333 0 -133.333 16.667 -192 50
s-105 78.833 -139 136.5s-51 120.167 -51 187.5c0 51.333 10.167 100 30.5 146s47.5 85.667 81.5 119s74.667 60 122 80s96.666 30 147.999 30c82.667 0 157.667 -24 225 -72l24 -18l-79 -81l-18 14c-63.333 50.667 -132 70 -206 58c-68 -10 -122 -43.667 -162 -101
c-21.333 -30 -35.833 -63.667 -43.5 -101s-7.83398 -74.666 -0.500977 -111.999c14.667 -76.667 52.834 -138.167 114.501 -184.5s128.167 -63.833 199.5 -52.5c32.667 4.66699 63 16 91 34z" />
    <glyph glyph-name="KA.dlig" unicode="&#xf00d;" horiz-adv-x="1350" 
d="M989 735c80 0 148.334 -29.3301 205.001 -87.9971s85 -129.334 85 -212.001v-424h-112v265h-387v-153c0 -10 -3 -19 -9 -27c57.333 2.66699 108.666 24.667 153.999 66l16 15l25 -21l28 -23l23 -18l-22 -21c-28.667 -26.667 -59 -47.334 -91 -62.001
c-40.667 -20 -85 -31.333 -133 -34c-6 -0.666992 -12.333 -1 -19 -1c-84.667 0 -162.667 26.333 -234 79c-34.667 26 -64.667 55.333 -90 88c-20 26 -40.333 60 -61 102c-17.333 34.667 -34.666 71.667 -51.999 111l-120 -128v-238h-113v660l-46 67h163l-4 -7v-321l255 273
l-55 55h253l-65 -73l-186 -199c25.333 -60.667 48.666 -112.334 69.999 -155.001c18 -38 34.333 -66.667 49 -86c19.333 -26 42 -49 68 -69c26.667 -20 55.667 -35.333 87 -46c-2.66699 5.33301 -4 10.666 -4 15.999v309c0 82.667 28.5 153.334 85.5 212.001
s125.5 88 205.5 88h31zM958.001 628.003c-49.333 0 -91.333 -18.833 -126 -56.5s-52 -83.167 -52 -136.5v-52h387v52c0 34.667 -8 67 -24 97s-37.667 53.5 -65 70.5s-57 25.5 -89 25.5h-31z" />
    <glyph glyph-name="KU.dlig" unicode="&#xf00e;" horiz-adv-x="1330" 
d="M1247 146l54 -75.999l-26 -14c-42.667 -23.333 -88.5 -42.166 -137.5 -56.499s-99.5 -23.833 -151.5 -28.5c-22.667 -2 -45 -3 -67 -3c-92 0 -177.333 16 -256 48c-102 40.667 -186.333 103.667 -253 189c-34 43.333 -65.667 98.666 -95 165.999l-115 -122v-239h-112
l-1 650l-77 77h190v-350l276 296l-55 54h148h38h151h38v-318c0 -18 3.83301 -35.333 11.5 -52s17.834 -31 30.501 -43s27.667 -21.5 45 -28.5s35.666 -10.5 54.999 -10.5h27c39.333 0 72.833 13 100.5 39s41.5 57.667 41.5 95v241l-77 77h151h39v-318
c0 -43.333 -11.5 -83.5 -34.5 -120.5s-54 -66.333 -93 -88s-81.5 -32.5 -127.5 -32.5h-27c-70 0 -129.833 23.5 -179.5 70.5s-74.5 103.833 -74.5 170.5v242l-51 50l-235 -251c28 -78 63.333 -144.667 106 -200c54 -70 123 -122 207 -156c82 -34 172 -47 270 -39
c90 7.33301 172 30.666 246 69.999z" />
    <glyph glyph-name="Ka.dlig" unicode="&#xf00f;" horiz-adv-x="1331" 
d="M943 197c-76.667 0 -142.167 26.333 -196.5 79s-81.5 116 -81.5 190s27.167 137.333 81.5 190s119.833 79 196.5 79c64.667 0 121.667 -20 171 -60l24 44h76v-504h-112v32c-47.333 -33.333 -100.333 -50 -159 -50zM894 638
c-39.333 -10.667 -69.6699 -34.998 -91.0029 -72.998c-24 -44 -29 -91.667 -15 -143c14 -47.333 40.833 -83.5 80.5 -108.5s80.834 -31.5 123.501 -19.5c39.333 10.667 69.333 34.667 90 72s27.334 78.333 20.001 123l-12 40c-10.667 28 -26.667 51.667 -48 71
s-44.666 32.166 -69.999 38.499s-51.333 6.16602 -78 -0.500977zM1247 146.002l54 -75.999l-26 -14c-42.667 -23.333 -88.5 -42.166 -137.5 -56.499s-99.5 -23.833 -151.5 -28.5c-22.667 -2 -45 -3 -67 -3c-92 0 -177.333 16 -256 48c-102 40.667 -186.333 103.667 -253 189
c-34 43.333 -65.667 98.666 -95 165.999l-115 -122v-239h-112l-1 650l-77 77h63h127h3l-3 -4v-346l272 292l-16 24l-35 34h174h-1l62 -1l-258 -276c28 -78 63.333 -144.667 106 -200c54 -70 123 -122 207 -156c82 -34 172 -47 270 -39c90 7.33301 172 30.666 246 69.999z
" />
    <glyph glyph-name="KO.dlig" unicode="&#xf010;" horiz-adv-x="1324" 
d="M935.5 197c-76.333 0 -141.666 26.333 -195.999 79s-81.5 116 -81.5 190s27.167 137.333 81.5 190s119.666 79 195.999 79s141.666 -26.333 195.999 -79s81.5 -116 81.5 -190s-27.167 -137.333 -81.5 -190s-119.666 -79 -195.999 -79zM1075 372
c23.333 43.333 27.666 90.001 12.999 140.001c-14.667 46 -41.834 81 -81.501 105s-80.5 29.667 -122.5 17c-38.667 -12 -68 -36.667 -88 -74c-23.333 -43.333 -27.666 -90 -12.999 -140c14.667 -46.667 41.834 -81.834 81.501 -105.501s80.5 -29.167 122.5 -16.5
c38.667 11.333 68 36 88 74zM1247 146.001l53.999 -75.998l-26 -14c-21.333 -11.333 -43.5 -21.833 -66.5 -31.5s-46.667 -18 -71 -25s-49.166 -13 -74.499 -18s-51 -8.5 -77 -10.5c-22.667 -2 -45 -3 -67 -3c-92 0 -177.333 16 -256 48
c-102 40.667 -186.333 103.667 -253 189c-34 43.333 -65.667 98.666 -95 165.999l-115 -122v-239h-112l-1 650l-77 77h30h46h114h3l-3 -4v-346l272 292l-16 24l-35 34h174h-1l62 -1l-258 -276c28 -78 63.333 -144.667 106 -200c54 -70 123 -122 207 -156
c82 -34 172 -47 270 -39c90 7.33301 172 30.666 246 69.999z" />
    <glyph glyph-name="Kc.dlig" unicode="&#xf011;" horiz-adv-x="1315" 
d="M959 202c-78 0 -144.666 26.167 -199.999 78.5s-83 115.5 -83 189.5s27.667 137.167 83 189.5s122 78.5 200 78.5c75.333 0 140.666 -24.667 195.999 -74l17 -16l-67 -90l-21 28c-13.333 18.667 -32 33.167 -56 43.5s-47 15.5 -69 15.5c-45.333 0 -85 -17.5 -119 -52.5
s-51 -75.833 -51 -122.5c0 -45.333 17 -85.166 51 -119.499s73.667 -51.5 119 -51.5c18.667 0 38.667 3.66699 60 11s40 16.666 56 27.999l21 16l58 -79l-21 -16c-50.667 -38 -108.667 -57 -174 -57zM1247 146l53.999 -75.999l-26 -14
c-87.333 -47.333 -183.666 -75.666 -288.999 -84.999c-22.667 -2 -45 -3 -67 -3c-92 0 -177.333 16 -256 48c-102 40.667 -186.333 103.667 -253 189c-34 43.333 -65.667 98.666 -95 165.999l-115 -122v-239h-112l-1 650l-77 77h30h46h114h3l-3 -4v-346l272 292l-16 24
l-35 34h174h-1l62 -1l-258 -276c28 -78 63.333 -144.667 106 -200c54 -70 123 -122 207 -156c82 -34 172 -47 270 -39c90 7.33301 172 30.666 246 69.999z" />
    <glyph glyph-name="LA.dlig" unicode="&#xf012;" horiz-adv-x="1136" 
d="M1091 76l28.001 -60.999h-122l-13 27l-47 117h-334l-21 -50c-4 -9.33301 -11 -16.666 -21 -21.999c18.667 -0.666992 35.334 0 50.001 2c36 4 71.333 16.333 106 37l3 2l16 9l73 -60l-29 -19c-24.667 -16.667 -51.334 -30.334 -80.001 -41.001
c-24.667 -8.66699 -49.334 -15 -74.001 -19c-28 -4 -59 -4.66699 -93 -2c-26 2 -55.667 6.66699 -89 14l-23 6c-50 12 -88.667 18 -116 18h-6c-30 0 -63.167 -2.33301 -99.5 -7s-63.5 -10.334 -81.5 -17.001l-36 -18v73v607l-46 67h46h112h5l-5 -9v-609
c28 4.66699 62.667 7 104 7h7c36.667 0 88.667 -8.33301 156 -25l10 -3c4 -0.666992 9.33301 -1.66699 16 -3c-4 3.33301 -7 7 -9 11c-6.66699 12 -7.66699 24.333 -3 37l218 532l-43 63h173l10 -30zM648.001 252.001h243l-121 322z" />
    <glyph glyph-name="La.dlig" unicode="&#xf013;" horiz-adv-x="1046" 
d="M1014 51l15 -36h-120l-13 27l-47 117h-452l23 59l185 460l-42 61h66l1 1h104l11 -29zM561 252h245l-124 316zM193 732v-625h526l-62 -94h-577v659l-46 67h163z" />
    <glyph glyph-name="la.dlig" unicode="&#xf014;" horiz-adv-x="1167" 
d="M806 740c80 0 148.335 -29.333 205.002 -88s85 -129.667 85 -213v-380c0 -12 -4.5 -22.333 -13.5 -31s-19.833 -13 -32.5 -13h-23c-12 0 -22.167 4.16699 -30.5 12.5s-12.5 18.166 -12.5 29.499v224h-387v-159c0 -11.333 -4.33301 -21 -13 -29
c-2.66699 -2.66699 -5.33398 -4.66699 -8.00098 -6c14 0 25.667 0.666992 35 2c36.667 4 73 17 109 39l16 9l73 -60l-29 -19c-25.333 -17.333 -52 -31 -80 -41c-24.667 -9.33301 -49.334 -15.666 -74.001 -18.999c-17.333 -2.66699 -35.333 -4 -54 -4
c-12.667 0 -26 0.666992 -40 2c-26 2 -55.333 6.66699 -88 14l-23 6c-50 12 -88.667 18 -116 18h-7c-31.333 0 -93.333 -8.33301 -186 -25l-31 -6l1 668l-47 68h163l-4 -7v-611c48 4.66699 82.333 7 103 7h8c36.667 0 88.667 -8.33301 156 -25l10 -3c10 -2 19 -4 27 -6
c-9.33301 8.66699 -14 19 -14 31v314c0 83.333 28.333 154.333 85 213s125 88 205 88h32zM984.002 439c0 35.333 -7.99902 67.833 -23.999 97.5s-37.667 53.167 -65 70.5s-57 26 -89 26h-32c-48.667 0 -90.334 -18.833 -125.001 -56.5s-52 -83.5 -52 -137.5v-52h387v52z" />
    <glyph glyph-name="lA.dlig" unicode="&#xf015;" horiz-adv-x="1320" 
d="M193 733v-616h395l-72 -107h-436v663l-46 67h163zM1289 45l15 -35.999h-121l-12 27l-57 140c-50.667 -14.667 -98.667 -22.667 -144 -24c-57.333 -1.33301 -114 7 -170 25l-67 -168h-123l26 60l60 149l-43 21l-57 27c-12.667 6 -30.167 13 -52.5 21s-41.5 13 -57.5 15
s-34.833 3.16699 -56.5 3.5s-43.5 -2.33398 -65.5 -8.00098s-45.333 -13.834 -70 -24.501l-18 -8l-65 82l31 13c28 12.667 55.667 22.334 83 29.001s52 11.167 74 13.5s45.5 2 70.5 -1s45.833 -6.33301 62.5 -10s37 -10 61 -19s42.167 -16.333 54.5 -22
s29.833 -14.167 52.5 -25.5l33 -16l149 366l-41 58h163h4l11 -27zM1078 267.001l-121 298.001l-120 -297c44 -12.667 88.667 -18.334 134 -17.001c33.333 0.666992 69 6 107 16z" />
    <glyph glyph-name="LH.dlig" unicode="&#xf016;" horiz-adv-x="1320" 
d="M193 733v-616h394l-72 -107h-435v663l-46 67h163zM1245 738l-4.00195 -6.99805v-721h-112v264c-56 -16 -109 -24 -159 -24h-6c-64.667 0.666992 -134 11 -208 31v-271h-112v302c-37.333 10 -70.166 16.667 -98.499 20s-63.5 2 -105.5 -4s-86.333 -18.667 -133 -38l-19 -8
l-57 79l30 13c53.333 22 104.833 37 154.5 45s90.834 10.667 123.501 8s67.667 -8.33398 105 -17.001v259l-47 68h47v1h112v-1h3l-3 -5v-353c79.333 -22.667 149.333 -34.334 210 -35.001c50 -0.666992 104.333 9.33301 163 30v297l-47 67h163z" />
    <glyph glyph-name="LL.dlig" unicode="&#xf017;" horiz-adv-x="840" 
d="M331 260v413l-47 67h163l-4 -6v-420c45.333 -11.333 84.666 -17 117.999 -17c47.333 0 92 14 134 42l19 12l71 -83l-24 -16c-61.333 -41.333 -128 -62 -200 -62c-43.333 0 -94.666 7.66699 -153.999 23l-5 2c-12 2.66699 -21.333 5 -28 7l-15 3
c-8.66699 2 -15.5 6.16699 -20.5 12.5s-7.5 13.833 -7.5 22.5zM747 152l69.002 -84l-25 -16c-64 -41.333 -133.333 -62 -208 -62c-45.333 0 -99 7.66699 -161 23c-48.667 12 -88.334 18 -119.001 18c-42.667 0 -106.667 -6.66699 -192 -20l-30 -5v667l-46 67h163l-4 -7v-603
c46.667 5.33301 83 8 109 8c40.667 0 90 -7.33301 148 -22c52.667 -12.667 96.667 -19 132 -19c51.333 0 99.666 14.333 144.999 43z" />
    <glyph glyph-name="Lu.dlig" unicode="&#xf018;" horiz-adv-x="894" 
d="M728 127l16.001 10l77 -66l-29 -19c-64.667 -41.333 -134.334 -62 -209.001 -62c-45.333 0 -98.666 7.66699 -159.999 23c-49.333 12 -89 18 -119 18c-43.333 0 -107.333 -6.66699 -192 -20l-30 -5v666l-47 68h163l-4 -6v-617c47.333 5.33301 84 8 110 8
c40 0 89 -7.33301 147 -22c52.667 -12.667 96.667 -19 132 -19c51.333 0 99.666 14.333 144.999 43zM835.001 740l-4 -6v-313c0 -66.667 -25 -123.667 -75 -171c-49.333 -46.667 -109 -70 -179 -70h-27c-70 0 -130 23.5 -180 70.5s-75 103.833 -75 170.5v251l-46 68h162
l-3 -7v-312c0 -37.333 13.833 -69 41.5 -95s61.167 -39 100.5 -39h41c39.333 0 72.833 13 100.5 39s41.5 57.667 41.5 95v231l-61 88h163z" />
    <glyph glyph-name="Lo.dlig" unicode="&#xf019;" horiz-adv-x="870" 
d="M744 137l77.002 -66l-30 -19c-64 -41.333 -133.333 -62 -208 -62c-45.333 0 -99 7.66699 -161 23c-48.667 12 -88.334 18 -119.001 18c-42.667 0 -106.667 -6.66699 -192 -20l-30 -5v667l-46 67h163l-4 -7v-616c46.667 5.33301 83 8 109 8c40.667 0 90 -7.33301 148 -22
c52.667 -12.667 96.667 -19 132 -19c51.333 0 99.666 14.333 144.999 43zM511.002 199c-50 0 -96.333 12 -139 36s-76.5 56.667 -101.5 98s-37.5 86.333 -37.5 135c0 74 27.167 137.333 81.5 190s119.833 79 196.5 79c64.667 0 122 -20 172 -60l23 44h77v-504h-113v32
c-46.667 -33.333 -99.667 -50 -159 -50zM462.002 640.5c-39.333 -11 -69.3359 -35.5 -90.0029 -73.5c-24.667 -44 -29.667 -91.667 -15 -143c13.333 -47.333 39.833 -83.5 79.5 -108.5s80.834 -31.5 123.501 -19.5c39.333 10.667 69.5 34.667 90.5 72
s27.5 78.666 19.5 123.999l-11 39c-17.333 42.667 -44.666 74.334 -81.999 95.001s-75.666 25.5 -114.999 14.5z" />
    <glyph glyph-name="Le.dlig" unicode="&#xf01a;" horiz-adv-x="870" 
d="M744 137l77 -66l-29 -19c-64.667 -41.333 -134.334 -62 -209.001 -62c-45.333 0 -98.666 7.66699 -159.999 23c-49.333 12 -89 18 -119 18c-43.333 0 -107.333 -6.66699 -192 -20l-30 -5v666l-47 68h163l-4 -7v-616c46.667 5.33301 83.334 8 110.001 8
c40 0 89 -7.33301 147 -22c52.667 -12.667 96.667 -19 132 -19c51.333 0 99.666 14.333 144.999 43zM558 195c-74.667 0 -138.333 26.334 -191 79.001s-79 116 -79 190s26.333 137.333 79 190s116.334 79 191.001 79c67.333 0 124.833 -23.333 172.5 -70
s74.5 -105.667 80.5 -177c0.666992 -8.66699 1 -16 1 -22c0 -11.333 -1 -24 -3 -38l-3 -22h-396c11.333 -40 33.666 -70 66.999 -90c20.667 -12.667 44.167 -20 70.5 -22s51 1.66699 74 11s42.5 23.666 58.5 42.999l18 23l76 -76l-19 -18c-26 -25.333 -56.167 -45 -90.5 -59
s-69.833 -21 -106.5 -21zM408.001 510.001h286.999c-6 42 -26.333 74.333 -61 97c-20.667 14 -43.667 22.667 -69 26s-48.333 0.666016 -69 -8.00098c-22.667 -9.33301 -41.667 -24.166 -57 -44.499s-25.666 -43.833 -30.999 -70.5z" />
    <glyph glyph-name="Lc.dlig" unicode="&#xf01b;" horiz-adv-x="858" 
d="M745 137l77.002 -67l-30 -19c-64 -40.667 -133.333 -61 -208 -61c-45.333 0 -99 7.66699 -161 23c-48.667 12 -88.334 18 -119.001 18c-42.667 0 -106.667 -6.66699 -192 -20l-30 -5v667l-46 67h163l-4 -7v-616c46.667 4.66699 83 7 109 7c40.667 0 90 -7 148 -21
c52.667 -12.667 96.667 -19 132 -19c51.333 0 99.666 14 144.999 42zM591.002 204c-78 0 -144.667 26.167 -200 78.5s-83 115.5 -83 189.5s27.667 137.167 83 189.5s122 78.5 200 78.5c76 0 141.333 -24.667 196 -74l17 -16l-67 -90l-21 28c-13.333 18 -32 32.333 -56 43
s-47 16 -69 16c-45.333 0 -85 -17.5 -119 -52.5s-51 -75.833 -51 -122.5c0 -46 17 -86 51 -120s74 -51 120 -51c12 0 24.833 1.66699 38.5 5s27.167 8 40.5 14s25.333 12.667 36 20l21 15l58 -79l-21 -15c-50.667 -38 -108.667 -57 -174 -57z" />
    <glyph glyph-name="HH.dlig" unicode="&#xf01c;" horiz-adv-x="1511" 
d="M1434 733l-3 -5v-722h-112v273h-345v-71c0 -52.667 -20.667 -97.334 -62 -134.001c-46.667 -41.333 -102.667 -58.333 -168 -51c-50.667 6 -92.834 27.167 -126.501 63.5s-50.5 78.5 -50.5 126.5v66h-373v-273h-112v662l-46 66h46h112h5l-5 -7v-341h373v287l-46 67h163
l-5 -8v-524c0 -21.333 8.66699 -39.666 26 -54.999c20.667 -18.667 45.667 -26.667 75 -24c22.667 2 41.834 11 57.501 27s23.5 34.667 23.5 56v459l-47 69h162l-2 -5v-349h345v279l-47 68h47v1h112v-1h3z" />
    <glyph glyph-name="NN.dlig" unicode="&#xf01d;" horiz-adv-x="1250" 
d="M983 740h188v-728h-67l-420 509v-509h-67l-420 508v-507h-112v650l-77 77h141l10 -13l413 -502v438l-77 77h140l11 -13l413 -502v440z" />
    <glyph glyph-name="Qo.dlig" unicode="&#xf01e;" horiz-adv-x="1423" 
d="M1271 175l20.998 9.99902l53 -94l-26 -12c-81.333 -36 -153 -55.333 -215 -58c-42 -2 -81.5 -0.166992 -118.5 5.5s-72.833 15.5 -107.5 29.5s-61.834 26 -81.501 36s-46.5 25 -80.5 45l-38 22c-33.333 -47.333 -74.666 -84.166 -123.999 -110.499
s-101.666 -39.5 -156.999 -39.5c-63.333 0 -121.833 16.5 -175.5 49.5s-96.167 77.667 -127.5 134s-47 117.833 -47 184.5s15.667 128.334 47 185.001s73.833 101.5 127.5 134.5s112.167 49.5 175.5 49.5s121.833 -16.5 175.5 -49.5s96.167 -77.833 127.5 -134.5
s47 -118.334 47 -185.001c0 -42 -6.66699 -82.667 -20 -122l48 -28c30.667 -18 54.834 -31.5 72.501 -40.5s40.834 -19.333 69.501 -31s57.667 -19.667 87 -24s61 -5.83301 95 -4.5c47.333 2 104.666 18 171.999 48zM623.998 296.999c6.66699 26 9.99707 53 9.99707 81
c0 77.333 -23.167 143.5 -69.5 198.5s-102.166 82.5 -167.499 82.5s-121.333 -27.5 -168 -82.5s-70 -121.167 -70 -198.5c0 -51.333 10.667 -98.5 32 -141.5s50.333 -77.167 87 -102.5s76.334 -38 119.001 -38c34.667 0 67.834 8.83301 99.501 26.5s58.834 42.5 81.501 74.5
c-62.667 24 -130.334 28.667 -203.001 14l-24 -5l-26 108l27 5c96 19.333 186.667 12 272 -22zM1094.5 200.999c-76.333 0 -141.666 26.333 -195.999 79s-81.5 116 -81.5 190s27.167 137.333 81.5 190s119.666 79 195.999 79s141.666 -26.333 195.999 -79
s81.5 -116 81.5 -190s-27.167 -137.333 -81.5 -190s-119.666 -79 -195.999 -79zM1234 375.999c23.333 43.333 27.666 90.001 12.999 140.001c-8 25.333 -20.333 47.833 -37 67.5s-35.834 34.667 -57.501 45s-44.167 15.5 -67.5 15.5c-14 0 -28 -2 -42 -6
c-38.667 -12 -68 -36.667 -88 -74c-23.333 -44 -27.666 -90.667 -12.999 -140c14.667 -46.667 41.834 -81.834 81.501 -105.501s80.5 -29.167 122.5 -16.5c38.667 11.333 68 36 88 74z" />
    <glyph glyph-name="Qu.dlig" unicode="&#xf01f;" horiz-adv-x="1441" 
d="M1271 175l21 10.001l53 -94l-26 -12c-81.333 -36 -153 -55.333 -215 -58c-42 -2 -81.5 -0.333008 -118.5 5s-72.833 15.166 -107.5 29.499s-61.834 26.5 -81.501 36.5s-46.5 25 -80.5 45c-18 10 -30.667 17.333 -38 22
c-33.333 -47.333 -74.666 -84.166 -123.999 -110.499s-101.666 -39.5 -156.999 -39.5c-63.333 0 -121.833 16.5 -175.5 49.5s-96.167 77.667 -127.5 134s-47 117.833 -47 184.5s15.667 128.334 47 185.001s73.833 101.5 127.5 134.5s112.167 49.5 175.5 49.5
s121.833 -16.5 175.5 -49.5s96.167 -77.833 127.5 -134.5s47 -118.334 47 -185.001c0 -42 -6.66699 -82.667 -20 -122l48 -28l57 -32c13.333 -7.33301 32 -16.5 56 -27.5s45.333 -19 64 -24s41 -9.33301 67 -13s52.667 -4.83398 80 -3.50098c47.333 2 104.666 18 171.999 48
zM634 377.001c0 78 -23.1709 144.333 -69.5039 199s-102.166 82.167 -167.499 82.5s-121.166 -27 -167.499 -82s-69.5 -121.167 -69.5 -198.5c0 -51.333 10.5 -98.5 31.5 -141.5s49.833 -77.167 86.5 -102.5s76.334 -38 119.001 -38c34.667 0 67.834 8.83301 99.501 26.5
s58.834 42.5 81.501 74.5c-62.667 24 -130.334 28.667 -203.001 14l-24 -5l-26 108l27 5c95.333 19.333 186 12 272 -22c6.66699 26 10 52.667 10 80zM1385 739.001l-4.00098 -6v-313c0 -66.667 -24.833 -123.5 -74.5 -170.5s-109.5 -70.5 -179.5 -70.5h-27
c-70 0 -129.833 23.5 -179.5 70.5s-74.5 103.833 -74.5 170.5v251l-47 68h162l-3 -7v-312c0 -37.333 13.833 -69 41.5 -95s61.167 -39 100.5 -39h41c26 0 49.833 6 71.5 18s38.834 28.333 51.501 49s19 43 19 67v230l-61 89h163z" />
    <glyph glyph-name="Qe.dlig" unicode="&#xf020;" horiz-adv-x="1417" 
d="M1271 175l20.999 9.99805l53 -94l-26 -12c-34.667 -15.333 -69.834 -28.5 -105.501 -39.5s-72.167 -17.167 -109.5 -18.5c-42 -2 -81.5 -0.166992 -118.5 5.5s-72.833 15.334 -107.5 29.001s-61.834 25.667 -81.501 36l-80.5 44.5l-38 23
c-33.333 -47.333 -74.666 -84.166 -123.999 -110.499s-101.666 -39.5 -156.999 -39.5c-63.333 0 -121.833 16.5 -175.5 49.5s-96.167 77.667 -127.5 134s-47 117.833 -47 184.5s15.667 128.334 47 185.001s73.833 101.5 127.5 134.5s112.167 49.5 175.5 49.5
s121.833 -16.5 175.5 -49.5s96.167 -77.833 127.5 -134.5s47 -118.334 47 -185.001c0 -42 -6.66699 -82.667 -20 -122l48 -28c30.667 -18 54.834 -31.5 72.501 -40.5s40.834 -19.333 69.501 -31s57.667 -19.667 87 -24s61 -5.83301 95 -4.5c47.333 2 104.666 18 171.999 48z
M623.999 296.998c6.66699 26 9.99805 53 9.99805 81c0 77.333 -23.167 143.5 -69.5 198.5s-102.166 82.5 -167.499 82.5s-121.166 -27.5 -167.499 -82.5s-69.5 -121.333 -69.5 -199s23.167 -144 69.5 -199s102.166 -82.5 167.499 -82.5c34.667 0 67.834 8.83301 99.501 26.5
s58.834 42.5 81.501 74.5c-62.667 24 -130.334 28.667 -203.001 14l-24 -5l-26 108l27 5c95.333 19.333 186 12 272 -22zM1364 504.998c1.33301 -9.33301 1.99902 -16.666 1.99902 -21.999c0 -12 -1 -24.667 -3 -38l-4 -23h-395c10.667 -40 33 -69.667 67 -89
c20.667 -12.667 44.167 -20 70.5 -22s51 1.5 74 10.5s42.5 23.5 58.5 43.5l18 22l75 -75l-18 -19c-26 -25.333 -56.167 -44.833 -90.5 -58.5s-70.166 -20.5 -107.499 -20.5c-74 0 -137.333 26.167 -190 78.5s-79 115.666 -79 189.999s26.333 137.666 79 189.999
s116 78.5 190 78.5c67.333 0 124.833 -23.167 172.5 -69.5s74.5 -105.166 80.5 -176.499zM961.996 528.998l287 0.000976562c-6 41.333 -26.333 73.666 -61 96.999c-20.667 14 -43.667 22.5 -69 25.5s-48.333 0.5 -69 -7.5c-15.333 -6.66699 -29 -15.667 -41 -27
s-22 -24.5 -30 -39.5s-13.667 -31.167 -17 -48.5z" />
    <glyph glyph-name="Qc.dlig" unicode="&#xf021;" horiz-adv-x="1385" 
d="M1292 185l52.998 -94l-26 -12c-81.333 -36 -153 -55.333 -215 -58c-42 -2 -81.5 -0.333008 -118.5 5s-72.833 15.166 -107.5 29.499s-61.834 26.5 -81.501 36.5s-46.5 25 -80.5 45c-16 8.66699 -28.667 16 -38 22c-33.333 -47.333 -74.666 -84.166 -123.999 -110.499
s-101.666 -39.5 -156.999 -39.5c-63.333 0 -121.833 16.5 -175.5 49.5s-96.167 77.667 -127.5 134s-47 117.833 -47 184.5s15.667 128.334 47 185.001s73.833 101.5 127.5 134.5s112.167 49.5 175.5 49.5s121.833 -16.5 175.5 -49.5s96.167 -77.833 127.5 -134.5
s47 -118.334 47 -185.001c0 -42 -6.66699 -82.667 -20 -122l48 -28c30.667 -18 54.834 -31.5 72.501 -40.5s40.834 -19.333 69.501 -31s57.667 -19.667 87 -24s61 -5.83301 95 -4.5c47.333 2 104.666 18 171.999 48zM633.998 377c0 78 -23.1709 144.333 -69.5039 199
s-102.166 82.167 -167.499 82.5s-121.166 -27 -167.499 -82s-69.5 -121.167 -69.5 -198.5c0 -51.333 10.5 -98.5 31.5 -141.5s49.833 -77.167 86.5 -102.5s76.334 -38 119.001 -38c34.667 0 67.834 8.83301 99.501 26.5s58.834 42.5 81.501 74.5
c-62.667 24 -130.334 28.667 -203.001 14l-24 -5l-26 108l27 5c96 19.333 186.667 12 272 -22c6.66699 26 10 52.667 10 80zM1121.99 206c-78 0 -144.671 26.1699 -200.004 78.5029s-83 115.5 -83 189.5s27.667 137.167 83 189.5s122 78.5 200 78.5
c75.333 0 140.333 -24.667 195 -74l18 -16l-67 -90l-21 28c-13.333 18.667 -32.166 33.167 -56.499 43.5s-47.166 15.5 -68.499 15.5c-45.333 0 -85 -17.5 -119 -52.5s-51 -75.833 -51 -122.5c0 -14.667 2 -29.334 6 -44.001s9.83301 -28.334 17.5 -41.001
s16.834 -24.334 27.501 -35.001s22.167 -19.667 34.5 -27s25.833 -13.166 40.5 -17.499s29.334 -6.5 44.001 -6.5c18.667 0 38.667 3.66699 60 11s40 16.666 56 27.999l20 16l59 -80l-21 -15c-51.333 -38 -109.333 -57 -174 -57z" />
    <glyph glyph-name="Ra.dlig" unicode="&#xf022;" horiz-adv-x="1407" 
d="M1045 734c80.667 0 149.499 -29.502 206.499 -88.502s85.167 -130.167 84.5 -213.5v-422h-112v263h-390v-150c0 -4 -0.333008 -8 -1 -12c35.333 11.333 68.333 28.333 99 51l18 14l77 -78l-23 -18c-79.333 -60 -168.333 -90 -267 -90c-24 0 -47.667 1.66699 -71 5
c-62 10 -119.667 31.667 -173 65s-98 76 -134 128c-11.333 -1.33301 -22.666 -2 -33.999 -2h-130v-176h-112v658l-46 66h163h-1h126c82.667 0 153.167 -26.5 211.5 -79.5s87.5 -117.167 87.5 -192.5v-4c0 -49.333 -13.667 -95.166 -41 -137.499s-64.333 -75.5 -111 -99.5
c56 -67.333 126.667 -107.666 212 -120.999c15.333 -2 30.333 -3.33301 45 -4c-4.66699 7.33301 -7 15.333 -7 24v312c0 83.333 28.5 154.5 85.5 213.5s125.5 88.5 205.5 88.5h32zM511.999 461.998c0 46 -18.334 85.166 -55.001 117.499s-80.667 48.5 -132 48.5h-130v-336
h130c34 0 65.333 7.33301 94 22s51.334 34.834 68.001 60.501s25 53.5 25 83.5v4zM1224 431.997c0 54 -17.5 100.167 -52.5 138.5s-77.167 57.5 -126.5 57.5h-32c-49.333 0 -91.5 -19.167 -126.5 -57.5s-52.5 -84.5 -52.5 -138.5v-52h390v52z" />
    <glyph glyph-name="RA.dlig" unicode="&#xf023;" horiz-adv-x="1353" 
d="M1308 71l27.999 -60.001h-122l-12 26l-48 117h-182l55 -56l-23 -18c-79.333 -60 -168.333 -90 -267 -90c-24 0 -47.667 1.66699 -71 5c-62 10 -119.667 31.667 -173 65s-98 76 -134 128c-11.333 -1.33301 -22.666 -2 -33.999 -2h-130v-176h-112v658l-46 66h163h-1h126
c54 0 104 -12.167 150 -36.5s82.333 -57.333 109 -99s40 -87.167 40 -136.5v-4c0 -49.333 -13.667 -95.166 -41 -137.499s-64.333 -75.5 -111 -99.5c54.667 -66 124 -106 208 -120l230 572l-43 62h173l10 -29zM1111 259.999l-124 312l-124 -312h248zM511.999 461.999
c0 46 -18.333 85.167 -55 117.5s-80.667 48.5 -132 48.5h-130v-336h130c51.333 0 95.333 16.167 132 48.5s55 71.5 55 117.5v4zM798.999 102.999c43.333 8.66699 83.667 25.667 121 51h-100l-21 -50v-1z" />
    <glyph glyph-name="RN.dlig" unicode="&#xf024;" horiz-adv-x="1412" 
d="M1334 737l-2.00098 -5.00195v-722h-63l-424 512v-407c31.333 11.333 60.333 27 87 47l18 14l77 -78l-23 -18c-79.333 -60 -168.333 -90 -267 -90c-24 0 -47.667 1.66699 -71 5c-62 10 -119.667 31.667 -173 65s-98 76 -134 128c-11.333 -1.33301 -22.666 -2 -33.999 -2
h-130v-176h-112v658l-46 66h163h-1h126c82.667 0 153.167 -26.5 211.5 -79.5s87.5 -117.167 87.5 -192.5v-4c0 -49.333 -13.667 -95.166 -41 -137.499s-64.333 -75.5 -111 -99.5c56 -67.333 126.667 -107.666 212 -120.999c14.667 -2 30.667 -3 48 -3v572l-46 68h46h80
l407 -500v431l-47 69h47h113h2zM511.999 461.998c0 46 -18.333 85.167 -55 117.5s-80.667 48.5 -132 48.5h-130v-336h130c51.333 0 95.333 16.167 132 48.5s55 71.5 55 117.5v4z" />
    <glyph glyph-name="RM.dlig" unicode="&#xf025;" horiz-adv-x="1521" 
d="M1406 724l56.999 -714.002h-113l-37 477l-228 -409l-229 411l-31 -380c39.333 11.333 75 29 107 53l18 14l77 -78l-23 -18c-79.333 -60 -168.333 -90 -267 -90c-24 0 -47.667 1.66699 -71 5c-62 10 -119.667 31.667 -173 65s-98 76 -134 128
c-11.333 -1.33301 -22.666 -2 -33.999 -2h-130v-176h-112v658l-46 66h163h-1h126c82.667 0 153.167 -26.5 211.5 -79.5s87.5 -117.167 87.5 -192.5v-4c0 -49.333 -13.667 -95.166 -41 -137.499s-64.333 -75.5 -111 -99.5c56 -67.333 126.667 -107.666 212 -120.999
c8 -1.33301 17.667 -2.33301 29 -3l46 575l-44 65h50h85h27l-14 -25l222 -403l204 372l-38 56h68h86h8zM511.999 461.998c0 46 -18.333 85.167 -55 117.5s-80.667 48.5 -132 48.5h-130v-336h130c51.333 0 95.333 16.167 132 48.5s55 71.5 55 117.5v4z" />
    <glyph glyph-name="Ro.dlig" unicode="&#xf026;" horiz-adv-x="1346" 
d="M1281 101l21.999 -25.002l-29 -16c-67.333 -36.667 -141.666 -61.334 -222.999 -74.001c-40 -6 -80.333 -9 -121 -9c-44.667 0 -89.667 3.66699 -135 11c-86.667 14.667 -166.667 41.334 -240 80.001c-65.333 34.667 -121 76.667 -167 126c-21.333 -4 -42.333 -6 -63 -6
h-130v-176h-113v658l-46 67h163l-1 -1h127c82 0 152.333 -26.5 211 -79.5s88 -117.167 88 -192.5v-4c0 -29.333 -5.16699 -57.666 -15.5 -84.999s-24.833 -52.666 -43.5 -75.999s-41 -43.333 -67 -60c37.333 -34.667 77 -63.334 119 -86.001c62.667 -34 131 -57.333 205 -70
h1c69.333 -12 138.666 -13.5 207.999 -4.5s132 27.833 188 56.5c9.33301 4.66699 18.333 4.33398 27 -0.999023s20.334 -16.333 35.001 -33zM510.999 464.998c0 49.333 -18.1689 91.667 -54.502 127s-80.166 53 -131.499 53h-130v-366h130c33.333 0 64.333 8 93 24
s51.334 38 68.001 66s25 58.333 25 91v5zM1001 197.999c-76.667 0 -142.167 26.333 -196.5 79s-81.5 116 -81.5 190s27.167 137.333 81.5 190s119.833 79 196.5 79c50 0 96.333 -12 139 -36s76.5 -56.667 101.5 -98s37.5 -86.333 37.5 -135
c0 -74 -27.167 -137.333 -81.5 -190s-119.833 -79 -196.5 -79zM1141 372.999c23.333 43.333 27.332 90.001 11.999 140.001c-12 38 -33 68.833 -63 92.5s-63 35.5 -99 35.5c-14 0 -27.667 -2 -41 -6c-39.333 -11.333 -69 -36 -89 -74c-23.333 -43.333 -27.333 -90 -12 -140
c14 -46.667 40.833 -81.834 80.5 -105.501s80.5 -29.167 122.5 -16.5c38.667 11.333 68.334 36 89.001 74z" />
    <glyph glyph-name="Rg.dlig" unicode="&#xf027;" horiz-adv-x="1322" 
d="M939 190c-74.667 0 -138.332 26 -190.999 78s-79 115 -79 189c0 48 12 92.5 36 133.5s56.833 73.333 98.5 97s86.834 35.5 135.501 35.5c81.333 0 148.666 -29.667 201.999 -89l19 -21l-89 -65l-16 17c-36.667 40.667 -75.334 61 -116.001 61
c-42 0 -78.833 -17 -110.5 -51s-47.5 -73.333 -47.5 -118c0 -48.667 17.333 -90.334 52 -125.001c30 -29.333 64.667 -44 104 -44c62.667 1.33301 106.667 25 132 71h-140v106h269v-35c0 -23.333 -1 -38.666 -3 -45.999c0 -2.66699 -0.666992 -6.5 -2 -11.5
s-4.83301 -14.167 -10.5 -27.5s-12.167 -26.166 -19.5 -38.499s-17.833 -25.833 -31.5 -40.5s-29 -27.334 -46 -38.001s-38.167 -19.667 -63.5 -27s-53 -11 -83 -11zM1281 101l21.998 -25.002l-29 -16c-67.333 -36.667 -141.666 -61.334 -222.999 -74.001
c-40 -6 -80.333 -9 -121 -9c-44.667 0 -89.667 3.66699 -135 11c-86.667 14.667 -166.667 41.334 -240 80.001c-65.333 34.667 -121 76.667 -167 126c-21.333 -4 -42.333 -6 -63 -6h-130v-176h-113v658l-46 67h163l-1 -1h127c82 0 152.333 -26.5 211 -79.5
s88 -117.167 88 -192.5v-4c0 -29.333 -5.16699 -57.666 -15.5 -84.999s-24.833 -52.666 -43.5 -75.999s-41 -43.333 -67 -60c37.333 -34.667 77 -63.334 119 -86.001c62.667 -34 131 -57.333 205 -70h1c69.333 -12 138.666 -13.5 207.999 -4.5s132 27.833 188 56.5
c3.33301 1.33301 6.33301 2.33301 9 3s5.33398 0.833984 8.00098 0.500977s5.5 -1.5 8.5 -3.5l8 -5.5c2.33301 -1.66699 5.33301 -4.16699 9 -7.5s6.83398 -6.5 9.50098 -9.5zM511 464.998c0 49.333 -18.1689 91.667 -54.502 127s-80.166 53 -131.499 53h-130v-366h130
c33.333 0 64.333 8 93 24s51.334 38 68.001 66s25 58.333 25 91v5z" />
    <glyph glyph-name="RU.dlig" unicode="&#xf028;" horiz-adv-x="1328" 
d="M1281 101l21.9971 -24.998l-29 -16c-67.333 -36.667 -141.666 -61.334 -222.999 -74.001c-40 -6 -80.333 -9 -121 -9c-44.667 0 -89.667 3.66699 -135 11c-86.667 14.667 -166.667 41.334 -240 80.001c-65.333 34.667 -121 76.667 -167 126c-21.333 -4 -42.333 -6 -63 -6
h-130v-176h-113v658l-46 67h163l-1 -1h127c82 0 152.333 -26.5 211 -79.5s88 -117.167 88 -192.5v-4c0 -44 -11.167 -85.5 -33.5 -124.5s-53.166 -71.167 -92.499 -96.5c37.333 -34.667 77 -63.334 119 -86.001c62.667 -34 131.334 -57.333 206.001 -70
c69.333 -12 138.666 -13.5 207.999 -4.5s132 27.833 188 56.5c4 2 8 3 12 3s7.66699 -0.666992 11 -2s7.33301 -4 12 -8s8.83398 -7.83301 12.501 -11.5s8.5 -8.83398 14.5 -15.501zM510.997 465.002c0 49.333 -18.167 91.667 -54.5 127s-80.166 53 -131.499 53h-130v-366
h130c51.333 0 95.166 17.667 131.499 53s54.5 78 54.5 128v5zM668.997 420.003v251l-46 68h162l-3 -7v-312c0 -37.333 13.833 -69 41.5 -95s61.167 -39 100.5 -39h41c25.333 0 49 6 71 18s39.333 28.333 52 49s19 43 19 67v230l-61 89h162l-3 -6v-313
c0 -43.333 -11.333 -83.5 -34 -120.5s-53.5 -66.333 -92.5 -88s-81.5 -32.5 -127.5 -32.5h-27c-70 0 -130 23.5 -180 70.5s-75 103.833 -75 170.5z" />
    <glyph glyph-name="Re.dlig" unicode="&#xf029;" horiz-adv-x="1323" 
d="M1281 101l21.998 -25.002l-29 -16c-67.333 -36.667 -141.666 -61.334 -222.999 -74.001c-40 -6 -80.333 -9 -121 -9c-44.667 0 -89.667 3.66699 -135 11c-86.667 14.667 -166.667 41.334 -240 80.001c-65.333 34.667 -121 76.667 -167 126c-21.333 -4 -42.333 -6 -63 -6
h-130v-176h-113v658l-46 67h163l-1 -1h127c82 0 152.333 -26.5 211 -79.5s88 -117.167 88 -192.5v-4c0 -29.333 -5 -57.666 -15 -84.999s-24.5 -52.666 -43.5 -75.999s-41.5 -43.333 -67.5 -60c37.333 -34.667 77 -63.334 119 -86.001
c62.667 -34 131.334 -57.333 206.001 -70c69.333 -12 138.666 -13.5 207.999 -4.5s132 27.833 188 56.5c9.33301 4.66699 18.333 4.33398 27 -0.999023s20.334 -16.333 35.001 -33zM510.998 464.998c0 49.333 -18.167 91.667 -54.5 127s-80.166 53 -131.499 53h-130v-366
h130c51.333 0 95.166 17.667 131.499 53s54.5 78 54.5 128v5zM945.998 190.999c-74.667 0 -138.332 26.3311 -190.999 78.998s-79 116 -79 190s26.333 137.333 79 190s116.334 79 191.001 79c44 0 84.667 -10.667 122 -32s67.5 -50.666 90.5 -87.999
s36.5 -79.666 40.5 -126.999c0.666992 -8.66699 1 -16 1 -22c0 -11.333 -1 -24 -3 -38l-3 -22h-396c11.333 -40 33.666 -70 66.999 -90c21.333 -12.667 45.166 -20 71.499 -22s51 1.5 74 10.5s42.5 23.5 58.5 43.5l18 23l75 -76l-19 -18c-26 -25.333 -56.167 -45 -90.5 -59
s-69.833 -21 -106.5 -21zM797 505.997h285.999c-6 41.333 -26 73.666 -60 96.999c-20.667 14 -43.667 22.5 -69 25.5s-48.666 0.5 -69.999 -7.5c-22.667 -9.33301 -41.667 -24.166 -57 -44.499s-25.333 -43.833 -30 -70.5z" />
    <glyph glyph-name="ra.dlig" unicode="&#xf02a;" horiz-adv-x="1335" 
d="M1281 101l21.9971 -25l-29 -16c-67.333 -36.667 -141.666 -61.334 -222.999 -74.001c-40 -6 -80.333 -9 -121 -9c-44.667 0 -89.667 3.66699 -135 11c-86.667 14.667 -166.667 41.334 -240 80.001c-65.333 34.667 -121 76.667 -167 126c-21.333 -4 -42.333 -6 -63 -6
h-130v-176h-113v658l-46 67h163l-1 -1h127c82 0 152.333 -26.5 211 -79.5s88 -117.167 88 -192.5v-4c0 -44 -11.167 -85.5 -33.5 -124.5s-53.166 -71.167 -92.499 -96.5c37.333 -34.667 77 -63.334 119 -86.001c62.667 -34 131.334 -57.333 206.001 -70
c69.333 -12 138.666 -13.5 207.999 -4.5s132 27.833 188 56.5c9.33301 4.66699 18.333 4.33398 27 -0.999023s20.334 -16.333 35.001 -33zM510.997 465c0 49.333 -18.167 91.667 -54.5 127s-80.166 53 -131.499 53h-130v-366h130c51.333 0 95.166 17.667 131.499 53
s54.5 78 54.5 128v5zM948.997 179.001c-50 0 -96.5 12 -139.5 36s-76.833 56.667 -101.5 98s-37 86.333 -37 135c0 74 27.167 137.333 81.5 190s119.833 79 196.5 79c64.667 0 122 -20 172 -60l23 44h77v-503h-113v32c-46.667 -34 -99.667 -51 -159 -51zM899.997 621.001
c-39.333 -11.333 -69.334 -35.667 -90.001 -73c-24.667 -44 -29.667 -91.667 -15 -143c13.333 -48 39.833 -84.5 79.5 -109.5s80.834 -31.5 123.501 -19.5c39.333 11.333 69.5 35.666 90.5 72.999s27.5 78.333 19.5 123l-12 40c-13.333 34.667 -34.5 62.334 -63.5 83.001
s-60.167 31 -93.5 31c-13.333 0 -26.333 -1.66699 -39 -5z" />
    <glyph glyph-name="Zo.dlig" unicode="&#xf02b;" horiz-adv-x="1276" 
d="M1161 136l90.998 -59.999l-36 -22l-34 -18c-86.667 -43.333 -178.667 -65 -276 -65c-84 0 -191.667 8.66699 -323 26c-60.667 8 -106.667 13.333 -138 16c-40 3.33301 -93.167 3.16602 -159.5 -0.500977s-116.666 -7.5 -150.999 -11.5s-58.166 -7 -71.499 -9l-29 -4v107
l383 539h-334l-78 95h548v-97l-380 -533c116 12 210.333 14.667 283 8c32.667 -2.66699 80 -8 142 -16c126 -17.333 228.667 -26 308 -26c78.667 0 153 17.667 223 53l7 4c3.33301 1.33301 7 3 11 5zM897.498 199.001c-76.333 0 -141.666 26.333 -195.999 79
s-81.5 116 -81.5 190s27.167 137.333 81.5 190s119.666 79 195.999 79s141.666 -26.333 195.999 -79s81.5 -116 81.5 -190s-27.167 -137.333 -81.5 -190s-119.666 -79 -195.999 -79zM1037 374.001c23.333 43.333 27.665 90.001 12.998 140.001c-14 46 -41 81 -81 105
s-81 29.667 -123 17c-38.667 -12 -68 -36.667 -88 -74c-23.333 -44 -27.666 -90.667 -12.999 -140c14.667 -46.667 41.834 -81.834 81.501 -105.501s80.5 -29.167 122.5 -16.5c38.667 11.333 68 36 88 74z" />
    <glyph glyph-name="Zg.dlig" unicode="&#xf02c;" horiz-adv-x="1264" 
d="M1159 143l90.998 -59.998l-36 -21c-11.333 -6.66699 -22.666 -12.667 -33.999 -18c-86.667 -43.333 -178.667 -65 -276 -65c-84 0 -191.667 8.66699 -323 26c-60.667 8 -106.667 13.333 -138 16c-40 3.33301 -93.667 3 -161 -1s-116.666 -7.83301 -147.999 -11.5
s-55.666 -6.83398 -72.999 -9.50098l-29 -4v108l383 539h-334l-78 95h548v-98l-380 -532c116.667 11.333 211 14 283 8c31.333 -2.66699 78.666 -8.33398 141.999 -17.001c126 -16.667 228.667 -25 308 -25c78.667 0 153 17.667 223 53l7 3c3.33301 2 7 4 11 6z
M872.998 199.002c-49.333 0 -94.6699 11.833 -136.003 35.5s-74.166 56 -98.499 97s-36.5 85.5 -36.5 133.5c0 73.333 26.5 136.166 79.5 188.499s116.833 78.5 191.5 78.5c80.667 0 147.667 -29.667 201 -89l20 -22l-90 -64l-15 17c-37.333 40.667 -76 61 -116 61
c-42 0 -78.833 -17 -110.5 -51s-47.5 -73.667 -47.5 -119c0 -48.667 17.333 -90 52 -124c30 -30 64.667 -44.667 104 -44c62.667 0.666992 106.334 24 131.001 70h-139v107h269v-36c-0.666992 -23.333 -1.66699 -38.666 -3 -45.999c0 -0.666992 -0.5 -2.83398 -1.5 -6.50098
s-3 -9.66699 -6 -18s-6.5 -17 -10.5 -26s-9.66699 -19.167 -17 -30.5s-15.5 -22 -24.5 -32s-20.167 -20 -33.5 -30s-27.666 -18.667 -42.999 -26s-33.333 -13.166 -54 -17.499s-42.667 -6.5 -66 -6.5z" />
    <glyph glyph-name="Zu.dlig" unicode="&#xf02d;" horiz-adv-x="1265" 
d="M1159 140l91 -59.999l-36 -21l-34 -18c-86.667 -43.333 -178.667 -65 -276 -65c-84.667 0 -192.667 8.66699 -324 26c-60.667 8 -106.334 13.333 -137.001 16c-40 3.33301 -93.167 3 -159.5 -1s-116.666 -7.83301 -150.999 -11.5s-58.166 -6.5 -71.499 -8.5l-29 -4v107
l383 539h-334l-78 95h542l-2 3h162l-5 -10v-309c0 -37.333 13.833 -69 41.5 -95s61.167 -39 100.5 -39h41c38.667 0 72 13.167 100 39.5s42 57.833 42 94.5v230l-61 89h162l-3 -6v-313c0 -43.333 -11.333 -83.5 -34 -120.5s-53.667 -66.333 -93 -88s-82 -32.5 -128 -32.5
h-26c-70.667 0 -130.834 23.5 -180.501 70.5s-74.5 103.833 -74.5 170.5v254l-36 53v-89l-380 -532c116.667 11.333 211 14 283 8c31.333 -2.66699 78.666 -8.33398 141.999 -17.001c126.667 -16.667 229.334 -25 308.001 -25s153 17.667 223 53l7 4
c3.33301 1.33301 7 3 11 5z" />
    <glyph glyph-name="Ze.dlig" unicode="&#xf02e;" horiz-adv-x="1269" 
d="M898 195c-74.667 0 -138.332 26.333 -190.999 79s-79 116 -79 190c0 48.667 12 93.667 36 135s56.833 74 98.5 98s86.834 36 135.501 36c67.333 0 124.833 -23.333 172.5 -70s74.5 -105.667 80.5 -177c0.666992 -8.66699 1 -16 1 -22c0 -11.333 -1 -24 -3 -38l-3 -22
h-396c11.333 -40 33.666 -70 66.999 -90c21.333 -12.667 45.166 -20 71.499 -22s51 1.5 74 10.5s42.5 23.5 58.5 43.5l18 23l75 -76l-19 -18c-26 -25.333 -56.167 -45 -90.5 -59s-69.833 -21 -106.5 -21zM749.002 510h285.999c-6 41.333 -26 73.666 -60 96.999
c-20.667 14 -43.667 22.5 -69 25.5s-48.333 0.5 -69 -7.5c-23.333 -9.33301 -42.666 -24.166 -57.999 -44.499s-25.333 -43.833 -30 -70.5zM1161 135l90.9971 -59.999l-36 -21c-11.333 -6.66699 -22.666 -12.667 -33.999 -18c-86.667 -44 -178.667 -66 -276 -66
c-84 0 -191.667 8.66699 -323 26c-60.667 8 -106.667 13.333 -138 16c-40 4 -93.667 4 -161 0s-116.666 -7.83301 -147.999 -11.5s-55.666 -6.83398 -72.999 -9.50098l-29 -4v107l383 539h-334l-78 95h548v-97l-380 -532c116 11.333 210.333 14 283 8
c32.667 -3.33301 80 -9 142 -17c126 -16.667 228.667 -25 308 -25c78.667 0 153 17.667 223 53l7 3c3.33301 2 7 4 11 6z" />
    <glyph glyph-name="Za.dlig" unicode="&#xf02f;" horiz-adv-x="1275" 
d="M882 199c-37.333 0 -73.166 7.16699 -107.499 21.5s-63.833 33.5 -88.5 57.5s-44.334 52.5 -59.001 85.5s-22 67.833 -22 104.5c0 74 27.167 137.333 81.5 190s119.5 79 195.5 79c65.333 0 122.666 -20 171.999 -60l23 44h77v-504h-112v32
c-47.333 -33.333 -100.666 -50 -159.999 -50zM833.5 640.5c-39 -11 -69.166 -35.501 -90.499 -73.501c-24.667 -44 -29.667 -91.667 -15 -143c13.333 -47.333 40 -83.5 80 -108.5s81.333 -31.5 124 -19.5c38.667 10.667 68.5 34.667 89.5 72s27.5 78.333 19.5 123l-11 40
c-16.667 42.667 -43.834 74.334 -81.501 95.001s-76 25.5 -115 14.5zM1159 142.999l90.9971 -59.999l-36 -21c-11.333 -6.66699 -22.666 -12.667 -33.999 -18c-86.667 -44 -178.667 -66 -276 -66c-84 0 -191.667 8.66699 -323 26c-60.667 8 -106.667 13.667 -138 17
c-40 3.33301 -93.667 3 -161 -1s-116.666 -7.83301 -147.999 -11.5s-55.666 -6.83398 -72.999 -9.50098l-29 -4v108l383 539h-334l-78 95h548v-98l-380 -532c116 11.333 210.333 14 283 8c32.667 -3.33301 80 -9 142 -17c126 -16.667 228.667 -25 308 -25
c78.667 0 153 17.667 223 53l7 3c3.33301 2 7 4 11 6z" />
    <glyph glyph-name="Zc.dlig" unicode="&#xf030;" horiz-adv-x="1263" 
d="M906 195c-78 0 -144.5 26.168 -199.5 78.501s-82.5 115.5 -82.5 189.5s27.5 137.167 82.5 189.5s121.5 78.5 199.5 78.5c76 0 141.333 -24.667 196 -74l17 -16l-67 -90l-20 28c-14 18 -33 32.333 -57 43s-47 16 -69 16c-45.333 0 -85 -17.5 -119 -52.5
s-51 -75.833 -51 -122.5c0 -45.333 16.667 -85 50 -119c34 -34.667 74.333 -52 121 -52c18 0 37.667 3.66699 59 11s40 16.666 56 27.999l21 15l58 -79l-21 -15c-50.667 -38 -108.667 -57 -174 -57zM1161 135.001l90.998 -60l-36 -21
c-11.333 -6.66699 -22.666 -13 -33.999 -19c-86.667 -43.333 -178.667 -65 -276 -65c-84.667 0 -192.667 8.66699 -324 26c-60.667 8 -106.334 13.333 -137.001 16c-40 4 -93.167 4 -159.5 0s-116.666 -8 -150.999 -12s-58.166 -7 -71.499 -9l-29 -4v107l383 539h-334
l-78 95h548v-97l-380 -533c116 12 210.333 14.667 283 8c31.333 -2.66699 78.666 -8 141.999 -16c126.667 -16.667 229.334 -25 308.001 -25s153 17.333 223 52l7 4c3.33301 1.33301 7 3.33301 11 6z" />
    <glyph glyph-name="GA.dlig" unicode="&#xf031;" horiz-adv-x="1483" 
d="M1185 735l278.996 -725.003h-115l-63 167c-50.667 -14.667 -99 -22.667 -145 -24h-11c-52.667 0 -105.334 8.33301 -158.001 25l-63 -168h-114l74 209l-44 21l-43 21c-16 -50 -41.667 -95 -77 -135l1 -1l-20 -21c-63.333 -62 -139.666 -97 -228.999 -105h-5l-6 -1
c-10 -0.666992 -17.667 -1 -23 -1h-1c-49.333 0.666992 -96.666 10.167 -141.999 28.5s-85.666 44.5 -120.999 78.5l-21 20l2 2c-62.667 70.667 -94 153 -94 247c0 68 16.833 130.833 50.5 188.5s79.5 103.334 137.5 137.001s121 50.5 189 50.5c52 0 102 -10.333 150 -31
s89.667 -50 125 -88l20 -21l-90 -65l-15 17c-24.667 26 -53.667 46.167 -87 60.5s-67.666 21.5 -102.999 21.5c-48 0 -92.333 -12.167 -133 -36.5s-72.667 -57.166 -96 -98.499s-35 -86.333 -35 -135s11.667 -93.667 35 -135s55.333 -74 96 -98s85 -36 133 -36
c58.667 0 111.5 18.333 158.5 55s78.5 83.667 94.5 141c-66.667 15.333 -136.667 6.66602 -210 -26.001l-22 -9l-53 94l27 11c28 12.667 55.667 22.334 83 29.001s52 11.167 74 13.5s45.5 2 70.5 -1s45.833 -6.16699 62.5 -9.5s36.834 -9.66602 60.501 -18.999
s41.667 -16.833 54 -22.5l53.5 -25.5l33 -15l140 354l-42 61h178zM1012 277.997c43.333 -13.333 85.667 -19.334 127 -18.001c33.333 0.666992 69 6.33398 107 17.001l-117 296z" />
    <glyph glyph-name="GH.dlig" unicode="&#xf032;" horiz-adv-x="1543" 
d="M1466 738l-3.99707 -6.00098v-722h-112v249c-56.667 -17.333 -114.667 -26 -174 -26c-58.667 0 -125 9 -199 27v-250h-112v280l-84 22c-8 -72 -33.333 -134 -76 -186l1 -2l-23 -22c-41.333 -40.667 -91 -70 -149 -88l-5 -1c-6.66699 -2 -15 -4 -25 -6l-3 -1
c-4 -0.666992 -7 -1.33398 -9 -2.00098c-4 -0.666992 -9.33301 -1.33398 -16 -2.00098l-8 -2c-4.66699 0 -8.33398 -0.333008 -11.001 -1c-6.66699 -0.666992 -15.334 -1 -26.001 -1h-3c-2 -0.666992 -4 -1 -6 -1l-2 1c-102 0.666992 -189.333 36 -262 106l-20 20l2 2
c-62.667 70.667 -94 153 -94 247c0 68 16.833 130.833 50.5 188.5s79.334 103.334 137.001 137.001s120.5 50.5 188.5 50.5c34.667 0 68.667 -4.66699 102 -14s64.666 -22.833 93.999 -40.5s55.666 -39.167 78.999 -64.5l20 -21l-90 -65l-15 17
c-24.667 26 -53.5 46 -86.5 60s-67.5 21 -103.5 21c-47.333 0 -91.333 -12 -132 -36s-72.834 -56.667 -96.501 -98s-35.5 -86.333 -35.5 -135s11.833 -93.667 35.5 -135s55.834 -74 96.501 -98s84.667 -36 132 -36h4h4c8 0.666992 13.333 1 16 1
c1.33301 0 4.66602 0.666992 9.99902 2h7c4 0.666992 6.33301 1 7 1c2 0.666992 4.66699 1.33398 8 2.00098l6 2c4.66699 0.666992 8 1.33398 10 2.00098c1.33301 0.666992 3.33301 1.33398 6 2.00098l3 1c6 2 11.333 4 16 6l5 2c6.66699 2.66699 13 5.66699 19 9l21 12l2 2
c6 3.33301 11 6.66602 15 9.99902c4.66699 4 8 7 10 9l5 4c44 40.667 69 94 75 160c-78 6.66699 -150 -6 -216 -38l-21 -10l-57 92l26 13c41.333 20 83 34.167 125 42.5s83.833 11 125.5 8s77.167 -7.33301 106.5 -13s64.333 -13.834 105 -24.501v275l-44 63h163l-7 -12
v-357c44.667 -11.333 83.834 -19.666 117.501 -24.999s73.667 -6.33301 120 -3s91.5 13.333 135.5 30v299l-47 67h47h112h4z" />
    <glyph glyph-name="Aa.dlig" unicode="&#xf033;" horiz-adv-x="1431" 
d="M1367 146l50.999 -76.999l-25 -13c-87.333 -47.333 -183.666 -75.666 -288.999 -84.999c-22.667 -2 -45.334 -3 -68.001 -3c-91.333 0 -176.333 16 -255 48c-68 27.333 -129.667 66 -185 116l-5 5c-6 5.33301 -11.667 10.666 -17 15.999h-387l-54 -143h-115l254 661
l-43 64h68h114l105 -286l17 -41l9 -22c14 -33.333 41 -75.666 81 -126.999c18.667 -24.667 40.334 -47.334 65.001 -68.001c1.33301 -2 4.33301 -4.66699 9 -8l4 -4c40 -32 83 -57.333 129 -76c82 -34 172 -47 270 -39c90 7.33301 172 30.666 246 69.999zM422.999 394.001
l-3 6l1 1c-6 13.333 -21 51.333 -45 114l-23 61l-124 -316h261c-26.667 42 -49 86.667 -67 134zM990.999 212.001c-76 0 -141.167 26.333 -195.5 79s-81.5 116 -81.5 190s27.167 137.333 81.5 190s119.5 79 195.5 79c65.333 0 122.666 -20 171.999 -60l23 44h77v-504h-112
v33c-47.333 -34 -100.666 -51 -159.999 -51zM942.499 653.501c-39 -11 -69.168 -35.166 -90.501 -72.499c-24.667 -44.667 -29.667 -92.334 -15 -143.001c13.333 -48 40 -84.5 80 -109.5s81.333 -31.5 124 -19.5c25.333 7.33301 47.333 20.666 66 39.999
s31.834 42.833 39.501 70.5s8.83398 56.167 3.50098 85.5l-11 39c-16.667 42.667 -43.834 74.334 -81.501 95.001s-76 25.5 -115 14.5z" />
    <glyph glyph-name="Ai.dlig" unicode="&#xf034;" horiz-adv-x="1432" 
d="M962 159v510l-47 68h162l-3 -5v-573h-112zM1367 146l50.999 -75.999l-25 -14c-87.333 -47.333 -183.666 -75.666 -288.999 -84.999c-22.667 -2 -45.334 -3 -68.001 -3c-91.333 0 -176.333 16 -255 48c-68 27.333 -129.667 66 -185 116l-5 5
c-6 5.33301 -11.667 10.666 -17 15.999h-387l-54 -143h-115l254 661l-43 64h68h114l105 -286l17 -41l9 -22c14 -33.333 41 -75.666 81 -126.999c18.667 -24.667 40.334 -47.334 65.001 -68.001c2 -2 5 -4.66699 9 -8l4 -4c40 -32 83 -57.333 129 -76c82 -34 172 -47 270 -39
c90 7.33301 172 30.666 246 69.999zM422.999 394.001l-3 6l1 1c-6 13.333 -21 51.333 -45 114l-23 61l-124 -316h261c-26.667 42 -49 86.667 -67 134z" />
    <glyph glyph-name="Au.dlig" unicode="&#xf035;" horiz-adv-x="1442" 
d="M1367 146l50.999 -75.999l-25 -14c-87.333 -47.333 -183.666 -75.666 -288.999 -84.999c-22.667 -2 -45.334 -3 -68.001 -3c-91.333 0 -176.333 16 -255 48c-68 27.333 -129.667 66 -185 116l-5 5c-6 5.33301 -11.667 10.666 -17 15.999h-387l-54 -143h-115l254 661
l-43 64h68h114l105 -286l17 -41l9 -22c14 -33.333 41 -75.666 81 -126.999c18.667 -24.667 40.334 -47.334 65.001 -68.001c2 -2 5 -4.66699 9 -8l4 -4c40 -32 83 -57.333 129 -76c82 -34 172 -47 270 -39c90 7.33301 172 30.666 246 69.999zM422.999 394.001l-3 6l1 1
c-6 13.333 -21 51.333 -45 114l-23 61l-124 -316h261c-26.667 42 -49 86.667 -67 134zM780.999 419.001l0.000976562 254.001l-44 65h162l-5 -10v-309c0 -36.667 13.833 -68.167 41.5 -94.5s61.167 -39.5 100.5 -39.5h41c39.333 0 72.833 13.167 100.5 39.5
s41.5 57.833 41.5 94.5v230l-61 89h162l-3 -6v-313c0 -32.667 -6.66699 -63.834 -20 -93.501s-31.333 -55.167 -54 -76.5s-49.834 -38.5 -81.501 -51.5s-64.5 -19.5 -98.5 -19.5h-27c-70 0 -130 23.667 -180 71s-75 104 -75 170z" />
    <glyph glyph-name="Ae.dlig" unicode="&#xf036;" horiz-adv-x="1435" 
d="M1367 146l50.999 -75.999l-25 -14c-87.333 -47.333 -183.666 -75.666 -288.999 -84.999c-22.667 -2 -45.334 -3 -68.001 -3c-91.333 0 -176.333 16 -255 48c-68 27.333 -129.667 66 -185 116l-5 5c-6 5.33301 -11.667 10.666 -17 15.999h-387l-54 -143h-115l254 661
l-43 64h68h114l105 -286l17 -41c2.66699 -6 5.66699 -13.333 9 -22c14 -33.333 41 -75.666 81 -126.999c18.667 -24.667 40.334 -47.334 65.001 -68.001c2 -2 5 -4.66699 9 -8l4 -4c40 -32 83 -57.333 129 -76c82 -34 172 -47 270 -39c90 7.33301 172 30.666 246 69.999z
M422.999 394.001c0 0.666992 -1 2.66699 -3 6l1 1c-6 13.333 -21 51.333 -45 114l-23 61l-124 -316h261c-26.667 42 -49 86.667 -67 134zM1050 190.001c-74 0 -137.334 26.334 -190.001 79.001s-79 116 -79 190s26.333 137.333 79 190s116.334 79 191.001 79
c67.333 0 124.833 -23.333 172.5 -70s74.5 -105.667 80.5 -177c0.666992 -8.66699 1 -16 1 -22c0 -11.333 -1 -24 -3 -38l-4 -22h-395c11.333 -40 33.666 -70 66.999 -90c20.667 -12.667 44.167 -20 70.5 -22s51 1.66699 74 11s42.5 23.666 58.5 42.999l18 23l76 -76
l-19 -18c-26 -25.333 -56.167 -45 -90.5 -59s-70.166 -21 -107.499 -21zM900.998 505.002l287 0.000976562c-6 42 -26.333 74.333 -61 97c-20.667 14 -43.667 22.667 -69 26s-48.333 0.666016 -69 -8.00098c-15.333 -6 -29 -14.667 -41 -26s-22 -24.5 -30 -39.5
s-13.667 -31.5 -17 -49.5z" />
    <glyph glyph-name="Ao.dlig" unicode="&#xf037;" horiz-adv-x="1439" 
d="M1367 146l50.999 -76.999l-25 -13c-87.333 -47.333 -184 -75.666 -290 -84.999c-22 -2 -44.333 -3 -67 -3c-91.333 0 -176.333 16 -255 48c-68 27.333 -129.667 66 -185 116l-5 5c-6 5.33301 -11.667 10.666 -17 15.999h-387l-54 -143h-115l254 661l-43 64h68h114
l105 -286l17 -41l9 -22c14 -33.333 41 -75.666 81 -126.999c18.667 -24.667 40.334 -47.334 65.001 -68.001c2 -2 5 -4.66699 9 -8l4 -4c40 -32 83 -57.333 129 -76c82 -34 172 -47 270 -39c90 7.33301 172 30.666 246 69.999zM422.999 394.001
c-0.666992 0.666992 -1.66699 2.66699 -3 6l1 1c-6 13.333 -21 51.333 -45 114l-23 61l-124 -316h261c-26.667 42 -49 86.667 -67 134zM1043.5 205.001c-76.333 0 -141.666 26.167 -195.999 78.5s-81.5 115.666 -81.5 189.999s27.167 137.666 81.5 189.999
s119.666 78.5 195.999 78.5s141.666 -26.167 195.999 -78.5s81.5 -115.666 81.5 -189.999s-27.167 -137.666 -81.5 -189.999s-119.666 -78.5 -195.999 -78.5zM1183 379.001c23.333 44 27.3301 90.666 11.9971 139.999c-11.333 38.667 -32.166 69.834 -62.499 93.501
s-63.166 35.5 -98.499 35.5c-14 0 -28 -2 -42 -6c-38.667 -12 -68 -36.667 -88 -74c-23.333 -44 -27.666 -90.667 -12.999 -140c14 -46.667 41 -82 81 -106s81 -29.667 123 -17c38.667 12 68 36.667 88 74z" />
    <glyph glyph-name="Ac.dlig" unicode="&#xf038;" horiz-adv-x="1434" 
d="M1367 146l50.999 -75.999l-25 -14c-87.333 -47.333 -183.666 -75.666 -288.999 -84.999c-22.667 -2 -45.334 -3 -68.001 -3c-91.333 0 -176.333 16 -255 48c-68 27.333 -129.667 66 -185 116l-5 5c-6 5.33301 -11.667 10.666 -17 15.999h-387l-54 -143h-115l254 661
l-43 64h68h114l105 -286l17 -41l9 -22c14 -33.333 41 -75.666 81 -126.999c18.667 -24.667 40.334 -47.334 65.001 -68.001c2 -2 5 -4.66699 9 -8l4 -4c40 -32 83 -57.333 129 -76c82 -34 172 -47 270 -39c90 7.33301 172 30.666 246 69.999zM422.999 394.001l-3 6l1 1
c-6 13.333 -21 51.333 -45 114l-23 61l-124 -316h261c-26.667 42 -49 86.667 -67 134zM1088 202.001c-78 0 -144.669 26.1719 -200.002 78.5049s-83 115.5 -83 189.5s27.667 137.167 83 189.5s122 78.5 200 78.5c75.333 0 140.333 -24.667 195 -74l18 -16l-67 -90l-21 28
c-14 18 -33 32.333 -57 43s-47 16 -69 16c-45.333 0 -85 -17.5 -119 -52.5s-51 -75.833 -51 -122.5c0 -14.667 2.16699 -29.334 6.5 -44.001s10.333 -28.334 18 -41.001s16.834 -24.334 27.501 -35.001s22.167 -19.834 34.5 -27.501s25.833 -13.5 40.5 -17.5
s29.334 -6 44.001 -6c18 0 37.833 3.66699 59.5 11s40.167 16.666 55.5 27.999l21 15l59 -79l-21 -15c-51.333 -38 -109.333 -57 -174 -57z" />
    <glyph glyph-name="Cb.dlig" unicode="&#xf039;" horiz-adv-x="1367" 
d="M582 176l17.001 14.001l82 -72l-22 -20c-70 -59.333 -151 -89 -243 -89c-67.333 0 -129.5 16.333 -186.5 49s-102 77 -135 133s-49.5 116.833 -49.5 182.5s16.5 126.5 49.5 182.5s78 100.333 135 133s119.167 49 186.5 49c33.333 0 66.333 -4.5 99 -13.5
s63.5 -22 92.5 -39s54.833 -37.833 77.5 -62.5l21 -21l-90 -65l-15 16c-24.667 24.667 -53 43.834 -85 57.501s-65.333 20.5 -100 20.5c-46.667 0 -89.834 -11.5 -129.501 -34.5s-71.167 -54.333 -94.5 -94s-35 -82.834 -35 -129.501c0 -70.667 25.333 -131.334 76 -182.001
s111.667 -76 183 -76c62.667 0 118 20.333 166 61zM1207 396.001c36 -17.333 64.499 -42.3301 85.499 -74.9971s31.5 -68.334 31.5 -107.001c0 -56 -21 -104 -63 -144s-93 -60 -153 -60h-303v325c-37.333 9.33301 -70.166 15.666 -98.499 18.999s-63.5 2 -105.5 -4
s-86.333 -18.667 -133 -38l-19 -8l-57 81l30 12c86 36 166.667 54 242 54c44 0 91 -6 141 -18v238l-47 68h47h222c62.667 0 116.167 -20.833 160.5 -62.5s66.5 -91.834 66.5 -150.501c0 -48.667 -15.667 -92 -47 -130zM1027 408.004c32 0 59 11.5 81 34.5s33 50.667 33 83
s-11 60 -33 83s-49 34.5 -81 34.5h-110v-235h110zM917 320.004v-211.001h191c28.667 0 53.167 10.333 73.5 31s30.5 45.334 30.5 74.001c0 19.333 -4.66699 37 -14 53s-22 28.833 -38 38.5s-33.333 14.5 -52 14.5h-191z" />
    <glyph glyph-name="Eh.dlig" unicode="&#xf03a;" horiz-adv-x="1338" 
d="M1262 738l-3.99902 -8.99902v-717h-113v266h-373v-175c22.667 7.33301 43.667 16.333 63 27l21 11l56 -84l-25 -14c-18.667 -10 -38.334 -19 -59.001 -27c-39.333 -15.333 -79.333 -25 -120 -29c-19.333 -2 -39 -3 -59 -3c-44.667 0 -93.334 5 -146.001 15l-7 1
c-77.333 16 -133.666 23.333 -168.999 22c-38 -0.666992 -95 -7.33398 -171 -20.001l-2 -1l-72 -5v674l-47 69h163h-1h390l-66 -107h-326v-220h383l-67 -106h-316v-188c60 6 103.667 9 131 9c36 0 70.667 -2.66699 104 -8c16 -2.66699 38.667 -7.33398 68 -14.001l26 -5
c32.667 -6.66699 61.667 -11 87 -13c17.333 -1.33301 33.333 -1.66602 48 -0.999023v584l-46 68h46h113h3l-3 -6v-348h373v288l-45 66h45h113h4z" />
    <glyph glyph-name="En.dlig" unicode="&#xf03b;" horiz-adv-x="1318" 
d="M1243 739l-5.99805 -12v-713h-89l-396 503v-419c28.667 7.33301 56 18 82 32l21 11l56 -84l-25 -14c-18.667 -10 -38.334 -19 -59.001 -27c-40 -15.333 -80.333 -25 -121 -29c-62 -6 -130 -2 -204 12l-7 2c-76.667 15.333 -133 22.333 -169 21
c-92.667 -0.666992 -162.334 -8 -209.001 -22l-36 -18v696l-42 61h42h520h-1h40h82h35l-14 -26l382 -486v448l-44 64h44h112h6zM640.002 674l-43.002 61l-75 -103h-328v-219h285l-78 -107h-207v-188c60.667 6 104.334 9 131.001 9c36 0 70.333 -2.66699 103 -8
c16 -2.66699 39 -7 69 -13c12.667 -2.66699 21.334 -4.66699 26.001 -6c32.667 -6.66699 61.667 -10.667 87 -12c10 -1.33301 20 -2 30 -2v588z" />
    <glyph glyph-name="GG.dlig" unicode="&#xf03c;" horiz-adv-x="1491" 
d="M1140 655c-68 0 -125.167 -24.168 -171.5 -72.501s-70.833 -109.166 -73.5 -182.499h527v-374h-104l-7 16c-1.33301 2.66699 -2.66602 5.66699 -3.99902 9c-52.667 -26 -108.334 -39 -167.001 -39c-84.667 0 -159 26 -223 78s-105.333 120 -124 204h-106v-268h-103l-7 16
c-1.33301 2.66699 -3 5.66699 -5 9c-52.667 -26 -108.334 -39 -167.001 -39c-66.667 0 -127.334 16.333 -182.001 49s-97.5 77.667 -128.5 135s-46.5 121 -46.5 191s15.5 133.667 46.5 191s73.833 102.166 128.5 134.499s115.334 48.5 182.001 48.5
c52 0 101.833 -10.333 149.5 -31s89.167 -49.667 124.5 -87l20 -22l-89 -65l-16 17c-24.667 26 -53.5 46.167 -86.5 60.5s-67.167 21.5 -102.5 21.5c-70 0 -128.333 -25.667 -175 -77s-70 -115.166 -70 -191.499s23.333 -140 70 -191s105 -76.5 175 -76.5
c64 0 120.667 21 170 63v112h-145l-44 106h397c2.66699 103.333 37.834 189.333 105.501 258s151.167 103 250.5 103c52 0 102 -10.333 150 -31s89.667 -49.667 125 -87l20 -22l-89 -65l-16 17c-24.667 26 -53.5 46.167 -86.5 60.5s-67.167 21.5 -102.5 21.5zM1309 181.999
l-0.000976562 111.999h-400c8 -26 19.5 -49.833 34.5 -71.5s32.333 -40.167 52 -55.5s41.834 -27.166 66.501 -35.499s50.667 -12.5 78 -12.5c64 0 120.333 21 169 63z" />
    <glyph glyph-name="Ha.dlig" unicode="&#xf03d;" horiz-adv-x="1430" 
d="M1317 139l70.001 -72l-29 -17c-71.333 -40 -148 -60 -230 -60c-50 0 -109.333 7.33301 -178 22c-56.667 12 -102.667 18 -138 18c-73.333 0 -130 -6.33301 -170 -19l-18 -6c-14.667 -4.66699 -28 -2.66699 -40 6c-10.667 8 -16 18.667 -16 32v236h-373v-266h-113v657
l-47 69h163l-3 -5v-361h373v300l-46 66h163l-5 -8v-615c38 6 82 9 132 9c44 0 98.333 -7 163 -21c60.667 -13.333 111.667 -20 153 -20c61.333 0 118.666 15 171.999 45zM1062 194c-76.667 0 -142.169 26.333 -196.502 79s-81.5 116 -81.5 190
c0 48.667 12.333 93.667 37 135s58.334 74 101.001 98s89.334 36 140.001 36c64.667 0 121.667 -20 171 -60l23 44h77v-504h-112v32c-47.333 -33.333 -100.333 -50 -159 -50zM1012 635c-38.667 -10.667 -68.6709 -34.9971 -90.0039 -72.9971
c-24.667 -44 -29.667 -91.667 -15 -143c14 -47.333 40.833 -83.5 80.5 -108.5s80.834 -31.5 123.501 -19.5c39.333 10.667 69.333 34.667 90 72s27 78.666 19 123.999l-11 39c-9.33301 23.333 -22.166 43.666 -38.499 60.999s-34.666 30.666 -54.999 39.999
s-41.5 14 -63.5 14c-13.333 0 -26.666 -2 -39.999 -6z" />
    <glyph glyph-name="Hi.dlig" unicode="&#xf03e;" horiz-adv-x="1401" 
d="M1317 136l70.001 -72l-29 -17c-71.333 -40 -148 -60 -230 -60c-50 0 -109.333 7.33301 -178 22c-56.667 12.667 -102.667 19 -138 19c-73.333 0 -130 -6.66699 -170 -20l-18 -6c-14.667 -4.66699 -27.667 -2.66699 -39 6c-11.333 8 -17 19 -17 33v235h-373v-266h-113v658
l-47 68h163l-3 -5v-361h373v300l-46 66h163l-5 -7v-615c38 5.33301 82 8 132 8c44 0 98.333 -7 163 -21c60.667 -13.333 111.667 -20 153 -20c61.333 0 118.666 15 171.999 45zM982.001 161v510l-47 68h162l-3 -6v-572h-112z" />
    <glyph glyph-name="Hu.dlig" unicode="&#xf03f;" horiz-adv-x="1436" 
d="M1317 136l70.001 -73l-29 -16c-71.333 -40.667 -148 -61 -230 -61c-50 0 -109.333 7.66699 -178 23c-56.667 12 -102.667 18 -138 18c-73.333 0 -130 -6.33301 -170 -19l-18 -6c-14.667 -4.66699 -27.667 -2.66699 -39 6c-11.333 8 -17 18.667 -17 32v236h-373v-266h-113
v657l-47 69h163l-3 -6v-360h373v300l-46 66h163l-5 -8v-615c38 6 82 9 132 9c44 0 98.333 -7 163 -21c60.667 -13.333 111.667 -20 153 -20c61.333 0 118.666 15 171.999 45zM823.001 420v255l-44 64h162l-5 -10v-309c0 -36.667 13.833 -68.167 41.5 -94.5
s61.167 -39.5 100.5 -39.5h41c39.333 0 72.833 13.167 100.5 39.5s41.5 57.833 41.5 94.5v230l-61 89h162l-3 -6v-313c0 -66 -24.833 -122.5 -74.5 -169.5s-109.5 -70.5 -179.5 -70.5h-27c-70 0 -130 23.5 -180 70.5s-75 103.5 -75 169.5z" />
    <glyph glyph-name="He.dlig" unicode="&#xf040;" horiz-adv-x="1440" 
d="M1317 139l70.001 -72l-29 -17c-71.333 -40 -148 -60 -230 -60c-50 0 -109.333 7.33301 -178 22c-56.667 12 -102.667 18 -138 18c-73.333 0 -130 -6.33301 -170 -19l-18 -6c-14.667 -4.66699 -28 -2.66699 -40 6c-10.667 8 -16 18.667 -16 32v236h-373v-266h-113v658
l-47 68h163l-3 -5v-361h373v300l-46 66h163l-5 -8v-615c38 6 82 9 132 9c44 0 98.333 -7 163 -21c60.667 -13.333 111.667 -20 153 -20c61.333 0 118.666 15 171.999 45zM1132 194c-74.667 0 -138.332 26.334 -190.999 79.001s-79 116 -79 190s26.333 137.333 79 190
s116.334 79 191.001 79c44 0 84.667 -10.5 122 -31.5s67.5 -50.333 90.5 -88s36.5 -79.834 40.5 -126.501c0.666992 -9.33301 1 -17 1 -23c0 -11.333 -1 -24 -3 -38l-3 -22h-396c11.333 -40 33.666 -70 66.999 -90c21.333 -12 45.166 -19 71.499 -21s50.833 1.5 73.5 10.5
s42 23.5 58 43.5l19 22l75 -76l-19 -18c-26 -25.333 -56.167 -45 -90.5 -59s-69.833 -21 -106.5 -21zM983.003 509.001l285.999 0.000976562c-6 42 -26 74.333 -60 97c-20.667 14 -43.667 22.667 -69 26s-48.666 0.666016 -69.999 -8.00098c-14.667 -6 -28 -14.667 -40 -26
s-22.167 -24.5 -30.5 -39.5s-13.833 -31.5 -16.5 -49.5z" />
    <glyph glyph-name="Ho.dlig" unicode="&#xf041;" horiz-adv-x="1423" 
d="M1317 139l70.001 -72l-29 -17c-71.333 -40 -148 -60 -230 -60c-50 0 -109.333 7.33301 -178 22c-56.667 12 -102.667 18 -138 18c-73.333 0 -130 -6.33301 -170 -19l-18 -6c-14.667 -4.66699 -27.667 -2.66699 -39 6c-11.333 8 -17 18.667 -17 32v236h-373v-266h-113v657
l-47 69h163l-3 -5v-361h373v300l-46 66h163l-5 -8v-615c38 6 82 9 132 9c44 0 98.333 -7 163 -21c60.667 -13.333 111.667 -20 153 -20c61.333 0 118.666 15 171.999 45zM1068.5 194c-76.333 0 -141.666 26.333 -195.999 79s-81.5 116 -81.5 190s27.167 137.333 81.5 190
s119.666 79 195.999 79s141.666 -26.333 195.999 -79s81.5 -116 81.5 -190s-27.167 -137.333 -81.5 -190s-119.666 -79 -195.999 -79zM1208 369c23.333 43.333 27.665 90.001 12.998 140.001c-12 38 -33 68.833 -63 92.5s-63 35.5 -99 35.5c-14 0 -28 -2 -42 -6
c-38.667 -11.333 -68 -36 -88 -74c-23.333 -43.333 -27.666 -90 -12.999 -140c14.667 -46.667 41.834 -81.834 81.501 -105.501s80.5 -29.167 122.5 -16.5c38.667 11.333 68 36 88 74z" />
    <glyph glyph-name="Hc.dlig" unicode="&#xf042;" horiz-adv-x="1410" 
d="M1317 139l70.001 -72l-29 -17c-71.333 -40 -148 -60 -230 -60c-50 0 -109.333 7.33301 -178 22c-56.667 12 -102.667 18 -138 18c-73.333 0 -130 -6.33301 -170 -19l-18 -6c-14.667 -4.66699 -27.667 -2.66699 -39 6c-11.333 8 -17 18.667 -17 32v236h-373v-266h-113v657
l-47 69h163l-3 -5v-361h373v300l-46 66h163l-5 -8v-615c38 6 82 9 132 9c44 0 98.333 -7 163 -21c60.667 -13.333 111.667 -20 153 -20c61.333 0 118.666 15 171.999 45zM1106 200c-78 0 -144.667 26.167 -200 78.5s-83 115.5 -83 189.5s27.667 137.167 83 189.5
s122 78.5 200 78.5c75.333 0 140.333 -24.667 195 -74l18 -16l-67 -90l-21 28c-14 18.667 -33 33.167 -57 43.5s-46.667 15.5 -68 15.5c-45.333 0 -85.166 -17.5 -119.499 -52.5s-51.5 -75.833 -51.5 -122.5c0 -45.333 17.167 -85.166 51.5 -119.499
s74.166 -51.5 119.499 -51.5c18 0 37.833 3.66699 59.5 11s40.167 16.666 55.5 27.999l21 16l59 -79l-21 -16c-51.333 -38 -109.333 -57 -174 -57z" />
    <glyph glyph-name="Hg.dlig" unicode="&#xf043;" horiz-adv-x="1417" 
d="M1317 139l70.001 -72l-29 -17c-71.333 -40 -148 -60 -230 -60c-50 0 -109.333 7.33301 -178 22c-56.667 12 -102.667 18 -138 18c-73.333 0 -130 -6.33301 -170 -19l-18 -6c-14 -4.66699 -27 -2.66699 -39 6c-11.333 8 -17 18.667 -17 32v236h-373v-266h-113v657l-47 69
h163l-3 -5v-361h373v300l-46 66h163l-5 -8v-615c38 6 82 9 132 9c44 0 98.333 -7 163 -21c60.667 -13.333 111.667 -20 153 -20c61.333 0 118.666 15 171.999 45zM1070 197c-74.667 0 -138.333 26.168 -191 78.501s-79 115.166 -79 188.499s26.333 136.166 79 188.499
s116.334 78.5 191.001 78.5c80.667 0 148 -29.667 202 -89l19 -22l-90 -65l-15 18c-36.667 40 -75.334 60 -116.001 60c-42 0 -78.833 -16.833 -110.5 -50.5s-47.5 -73.167 -47.5 -118.5c0 -48.667 17.333 -90.334 52 -125.001c30 -29.333 64.667 -43.666 104 -42.999
c62.667 0.666992 106.667 24 132 70h-140v107h269v-36c0 -23.333 -1 -38.666 -3 -45.999c0 -2 -0.833008 -5.66699 -2.5 -11s-5.16699 -14.5 -10.5 -27.5s-11.666 -25.667 -18.999 -38s-18 -26 -32 -41s-29.333 -27.833 -46 -38.5s-37.834 -19.667 -63.501 -27
s-53.167 -11 -82.5 -11z" />
    <glyph glyph-name="Ki.dlig" unicode="&#xf044;" horiz-adv-x="1309" 
d="M1245 139l50.001 -68.002l-26 -14c-87.333 -47.333 -184 -75.666 -290 -84.999c-22 -2 -44.333 -3 -67 -3c-91.333 0 -176.333 16.333 -255 49c-102 40 -186.333 102.667 -253 188c-34.667 44.667 -66.667 100.334 -96 167.001l-114 -120v-242h-113v662l-45 66h163l-5 -9
v-353l276 296l-45 66h118h107l-255 -279c29.333 -81.333 62.666 -146 99.999 -194c28.667 -37.333 62 -70.833 100 -100.5s76 -52.5 114 -68.5c82 -34 172 -47 270 -39l1 1c89.333 6.66699 171 30 245 70zM913.001 158.998v510l-47 68h163l-3 -5v-573h-113z" />
    <glyph glyph-name="Kg.dlig" unicode="&#xf045;" horiz-adv-x="1313" 
d="M1245 139l49.999 -68.001l-26 -14c-87.333 -47.333 -184 -75.666 -290 -84.999c-22 -2 -44.333 -3 -67 -3c-91.333 0 -176.333 16.333 -255 49c-102 40 -186.333 102.667 -253 188c-34.667 44.667 -66.667 100.334 -96 167.001l-114 -120v-242h-113v662l-45 66h163l-5 -9
v-353l276 296l-45 66h118h107l-255 -279c29.333 -81.333 62.666 -146 99.999 -194c18.667 -24.667 39.834 -48 63.501 -70s48.334 -41.333 74.001 -58s51.167 -30.334 76.5 -41.001c82 -34 172 -47 270 -39h1c89.333 7.33301 171 31 245 71zM925.999 193.999
c-74.667 0 -138.333 26.166 -191 78.499s-79 115.166 -79 188.499s26.333 136.166 79 188.499s116.334 78.5 191.001 78.5c81.333 0 148.666 -29.667 201.999 -89l19 -22l-89 -64l-16 17c-36.667 40 -75.334 60 -116.001 60c-27.333 0 -53.166 -7.66699 -77.499 -23
s-43.833 -36.166 -58.5 -62.499s-22 -54.166 -22 -83.499c0 -48.667 17.333 -90 52 -124c30 -29.333 64.667 -44 104 -44c62.667 0.666992 106.667 24 132 70h-140v107h269v-36c0 -23.333 -1 -38.666 -3 -45.999c0 -2 -0.666992 -5.66699 -2 -11s-4.83301 -14.5 -10.5 -27.5
s-12.167 -25.667 -19.5 -38s-17.833 -25.833 -31.5 -40.5s-29 -27.5 -46 -38.5s-38.167 -20.167 -63.5 -27.5s-53 -11 -83 -11z" />
    <glyph glyph-name="Li.dlig" unicode="&#xf046;" horiz-adv-x="914" 
d="M832 139l70.001 -71.999l-30 -17c-70.667 -40 -147 -60 -229 -60c-50.667 0 -110.334 7.33301 -179.001 22c-56.667 12 -102.667 18 -138 18c-36.667 0 -75 -2.33301 -115 -7s-70.333 -10.334 -91 -17.001l-37 -25l-1 48v645l-45 65h163l-6 -9v-614
c56.667 6 100.667 9 132 9c44 0 98.333 -7 163 -21c60.667 -13.333 112 -20 154 -20c60.667 0 117.667 15 171 45zM486.001 159.001v510l-47 69h163l-3 -6v-573h-113z" />
    <glyph glyph-name="Lg.dlig" unicode="&#xf047;" horiz-adv-x="930" 
d="M832 139l70.001 -71.999l-30 -17c-70.667 -40 -147 -60 -229 -60c-50.667 0 -110.334 7.33301 -179.001 22c-56.667 12 -102.667 18 -138 18c-36.667 0 -75 -2.33301 -115 -7s-70.333 -10.334 -91 -17.001l-37 -23l-1 46v645l-45 65h81h76h6l-6 -9v-614
c56.667 6 100.667 9 132 9c44 0 98.333 -7 163 -21c60.667 -13.333 112 -20 154 -20c60.667 0 117.667 15 171 45zM580.001 195.001c-74 0 -137.5 26 -190.5 78s-79.5 114.833 -79.5 188.5s26.5 136.5 79.5 188.5s116.5 78 190.5 78c81.333 0 148.666 -29.667 201.999 -89
l19 -22l-89 -64l-16 17c-36.667 40.667 -75.334 61 -116.001 61c-42 0 -78.667 -17 -110 -51s-47 -73.667 -47 -119c0 -48.667 17.333 -90 52 -124c28.667 -28.667 63.334 -43.334 104.001 -44.001c62.667 0.666992 106.334 24.334 131.001 71.001h-139v106h268v-36
c0 -23.333 -0.666992 -38.333 -2 -45l-3 -12c-1.33301 -5.33301 -4.66602 -14.5 -9.99902 -27.5s-11.833 -25.667 -19.5 -38s-18.334 -25.833 -32.001 -40.5s-29 -27.5 -46 -38.5s-38.167 -20 -63.5 -27s-53 -10.5 -83 -10.5z" />
    <glyph glyph-name="Ld.dlig" unicode="&#xf048;" horiz-adv-x="917" 
d="M476 168l-179 -0.000976562v505l-45 66h162h62c93.333 0 167.333 -25.5 222 -76.5s82 -120.5 82 -208.5c0 -93.333 -30.667 -165.666 -92 -216.999c-54 -46 -124.667 -69 -212 -69zM663 453.499c0 30.333 -3.83301 57 -11.5 80s-17.5 41.333 -29.5 55
s-26.5 24.667 -43.5 33s-33.667 14 -50 17s-33.833 4.5 -52.5 4.5h-62v-379h62c18.667 0 36.167 1.5 52.5 4.5s33 8.83301 50 17.5s31.5 19.667 43.5 33s21.833 31.5 29.5 54.5s11.5 49.667 11.5 80zM832 138.999l70.001 -73l-30 -16c-70.667 -40.667 -147 -61 -229 -61
c-50.667 0 -110.334 7.66699 -179.001 23c-56.667 12 -102.667 18 -138 18c-36.667 0 -75 -2.5 -115 -7.5s-70.333 -10.5 -91 -16.5l-37 -24l-1 47v644l-45 66h163l-6 -9v-614c56.667 5.33301 100.667 8 132 8c44 0 98.333 -7 163 -21c60.667 -12.667 112 -19 154 -19
c60.667 0 117.667 15 171 45z" />
    <glyph glyph-name="Lr.dlig" unicode="&#xf049;" horiz-adv-x="913" 
d="M311 169l-0.00195312 502l-47 68h162h65c44 0 84.833 -10 122.5 -30s67.334 -47.167 89.001 -81.5s32.5 -71.5 32.5 -111.5v-9c0 -22.667 -3.66699 -45 -11 -67s-18.333 -42.333 -33 -61s-32 -35 -52 -49l93 -161h-130l-71 118c-13.333 -2 -26.666 -3 -39.999 -3h-64
v-115h-116zM618.998 507l0.00195312 8.99902c0 23.333 -5.66699 44.833 -17 64.5s-27 35.167 -47 46.5s-41.333 17 -64 17h-64v-265h64c13.333 0 26.666 2.16699 39.999 6.5s25.166 10.333 35.499 18s19.5 16.834 27.5 27.501s14.167 22.5 18.5 35.5s6.5 26.5 6.5 40.5z
M832 137.999l70.001 -72l-30 -17c-70.667 -40 -147 -60 -229 -60c-50.667 0 -110.334 7.33301 -179.001 22c-56.667 12.667 -102.667 19 -138 19c-36.667 0 -75 -2.5 -115 -7.5s-70.333 -10.833 -91 -17.5l-37 -23l-1 47v644l-45 65h163l-5 -9v-614c55.333 6 99 9 131 9
c44 0 98.333 -7 163 -21c60.667 -13.333 112 -20 154 -20c60.667 0 117.667 15 171 45z" />
    <glyph glyph-name="Lk.dlig" unicode="&#xf04a;" horiz-adv-x="914" 
d="M832 139l70.001 -73l-30 -16c-70.667 -40.667 -147 -61 -229 -61c-50.667 0 -110.334 7.66699 -179.001 23c-56.667 12 -102.667 18 -138 18c-36.667 0 -75 -2.5 -115 -7.5s-70.333 -10.5 -91 -16.5l-37 -25l-1 48v644l-45 66h163l-6 -9v-614c56 6 100 9 132 9
c44 0 98.333 -7 163 -21c60.667 -13.333 112 -20 154 -20c60.667 0 117.667 15 171 45zM266.001 671l-47 68h47h117l-1 -220l162 174l-32 46h75h55h33v-1h67l-254 -272l229 -253l-17 -15v-28h-96l-194 214l-27 -30v-184h-117v501z" />
    <glyph glyph-name="Lm.dlig" unicode="&#xf04b;" horiz-adv-x="932" 
d="M236 169l38 503l-46 67h163l-9 -16l155 -298l135 257l-39 57h162v0l44 -570h-117l-24 323l-161 -283l-160 283l-24 -323h-117zM832 139l70.001 -73l-30 -16c-70.667 -40.667 -147 -61 -229 -61c-50.667 0 -110.334 7.66699 -179.001 23c-56.667 12 -102.667 18 -138 18
c-36.667 0 -75 -2.5 -115 -7.5s-70.333 -10.5 -91 -16.5l-37 -24l-1 47v645l-45 65h163l-5 -9v-614c55.333 6 99 9 131 9c44 0 98.333 -7 163 -21c60.667 -13.333 112 -20 154 -20c60.667 0 117.667 15 171 45z" />
    <glyph glyph-name="Ln.dlig" unicode="&#xf04c;" horiz-adv-x="945" 
d="M364 169v503l-46 67h162l-11 -20l264 -327v282l-45 65h162l-1 -2v-568h-87l-282 349v-349h-116zM832 139l70.002 -73l-30 -16c-70.667 -40.667 -147 -61 -229 -61c-50.667 0 -110.334 7.66699 -179.001 23c-56.667 12 -102.667 18 -138 18
c-24.667 0 -50.834 -1.16699 -78.501 -3.5s-52.5 -5.33301 -74.5 -9s-39.667 -7.5 -53 -11.5l-37 -24l-1 47v645l-45 65h163l-5 -9v-614c56 6 99.667 9 131 9c44 0 98.333 -7 163 -21c60.667 -13.333 112 -20 154 -20c60.667 0 117.667 15 171 45z" />
    <glyph glyph-name="Lp.dlig" unicode="&#xf04d;" horiz-adv-x="921" 
d="M497 167h-117v504l-47 68h163h64c44.667 0 85.667 -10 123 -30s67 -47.167 89 -81.5s33 -71.5 33 -111.5v-9c0 -40 -11 -77.167 -33 -111.5s-51.667 -61.5 -89 -81.5s-78.333 -30 -123 -30h-63v-117zM689 507l0.00195312 9c0 23.333 -5.83301 45 -17.5 65
s-27.334 35.833 -47.001 47.5s-41.167 17.5 -64.5 17.5h-63v-269h63c35.333 0 65.666 12.667 90.999 38s38 56 38 92zM832.002 138l70.002 -71.999l-30 -17c-70.667 -40 -147 -60 -229 -60c-50.667 0 -110.334 7.33301 -179.001 22c-56.667 12.667 -102.667 19 -138 19
c-24.667 0 -50.834 -1.33301 -78.501 -4s-52.5 -5.83398 -74.5 -9.50098s-39.667 -7.5 -53 -11.5l-37 -23l-1 47v644l-45 65h163l-5 -9v-614c56 6 99.667 9 131 9c44 0 98.333 -7 163 -21c60.667 -13.333 112 -20 154 -20c60.667 0 117.667 15 171 45z" />
    <glyph glyph-name="Lt.dlig" unicode="&#xf04e;" horiz-adv-x="915" 
d="M500 629h-113l-58 110h475l-51 -110h-136v-461h-117v461zM832 139l70.001 -71.999l-30 -17c-70.667 -40 -147 -60 -229 -60c-50.667 0 -110.334 7.33301 -179.001 22c-56.667 12 -102.667 18 -138 18c-36.667 0 -75 -2.33301 -115 -7s-70.333 -10.334 -91 -17.001
l-37 -24l-1 47v645l-45 65h163l-5 -9v-614c56 6 99.667 9 131 9c44 0 98.333 -7 163 -21c60.667 -13.333 112 -20 154 -20c60.667 0 117.667 15 171 45z" />
    <glyph glyph-name="Lv.dlig" unicode="&#xf04f;" horiz-adv-x="921" 
d="M526 169l-192 505l-45 65h163l-14 -24l147 -369l131 332l-42 61h163h23l-217 -570h-117zM831 139l70.002 -73l-29 -16c-71.333 -40.667 -148 -61 -230 -61c-50 0 -109.333 7.66699 -178 23c-56.667 12 -102.667 18 -138 18c-24.667 0 -50.834 -1.16699 -78.501 -3.5
s-52.667 -5.33301 -75 -9s-39.833 -7.5 -52.5 -11.5l-37 -24l-1 47v645l-45 65h163l-6 -10v-613c56 6 100 9 132 9c44 0 98.333 -7 163 -21c60.667 -13.333 111.667 -20 153 -20c61.333 0 118.666 15 171.999 45z" />
    <glyph glyph-name="Lx.dlig" unicode="&#xf050;" horiz-adv-x="917" 
d="M523 456l-130 235l-33 48h163l-16 -29l86 -155l75 133l-36 51h163h25l-157 -283l159 -287h-124l-105 190l-104 -190h-124zM831 139l70.002 -73l-29 -16c-71.333 -40.667 -148 -61 -230 -61c-50 0 -109.333 7.66699 -178 23c-56.667 12 -102.667 18 -138 18
c-37.333 0 -75.833 -2.5 -115.5 -7.5s-69.834 -10.5 -90.501 -16.5l-37 -24l-1 47v645l-45 65h163l-6 -10v-613c56 6 100 9 132 9c44 0 98.333 -7 163 -21c60.667 -13.333 111.667 -20 153 -20c61.333 0 118.666 15 171.999 45z" />
    <glyph glyph-name="Ly.dlig" unicode="&#xf051;" horiz-adv-x="915" 
d="M505 405l-141 250l-118 84h200l-3 -5l121 -201l91 153l-37 53h163h30l-22 -39c-97.333 -169.333 -153 -267.333 -167 -294v-239h-117v238zM831 139l70.002 -73l-29 -16c-71.333 -40.667 -148 -61 -230 -61c-50 0 -109.333 7.66699 -178 23
c-56.667 12 -102.667 18 -138 18c-24.667 0 -50.834 -1.16699 -78.501 -3.5s-52.667 -5.33301 -75 -9s-39.833 -7.5 -52.5 -11.5l-37 -24l-1 47v645l-45 65h163l-6 -10v-613c56 6 100 9 132 9c44 0 98.333 -7 163 -21c60.667 -13.333 111.667 -20 153 -20
c61.333 0 118.666 15 171.999 45z" />
    <glyph glyph-name="Lz.dlig" unicode="&#xf052;" horiz-adv-x="925" 
d="M381 258l268 371h-280l43 110h396v-90l-268 -370h302l-42 -111h-419v90zM832 139l70.001 -72.999l-30 -16c-70.667 -40 -147 -60 -229 -60c-50.667 0 -110.334 7.33301 -179.001 22c-56.667 12 -102.667 18 -138 18c-36.667 0 -75 -2.33301 -115 -7
s-70.333 -10.334 -91 -17.001l-37 -24l-1 47v645l-45 65h163l-6 -9v-614c56 6 100 9 132 9c44 0 98.333 -7 163 -21c60.667 -13.333 112 -20 154 -20c60.667 0 117.667 15 171 45z" />
    <glyph glyph-name="Na.dlig" unicode="&#xf053;" horiz-adv-x="1447" 
d="M1329 121l26.499 -23.501c5 -4.33301 9.5 -9.33301 13.5 -15s5.83301 -10.5 5.5 -14.5s-2.5 -8.66699 -6.5 -14l-14 -19l-9 5c-68 -36 -140.333 -54 -217 -54c-50 0 -109.667 7.66699 -179 23c-56 12 -102 18 -138 18c-44.667 0 -83 -2.33301 -115 -7
c-8.66699 -1.33301 -23 -4.66602 -43 -9.99902c-13.333 -3.33301 -26.166 -3 -38.499 1s-22.833 11 -31.5 21l-10 13l-378 481v-515h-113v660l-45 65h163l-15 -26l383 -491v450l-47 67h163l-4 -7v-618c37.333 5.33301 81 8 131 8c44.667 0 99.334 -7 164.001 -21
c60.667 -13.333 111.667 -20 153 -20c61.333 0 118.666 15 171.999 45l16 9zM1099 187.999c-76.667 0 -142.167 26.333 -196.5 79s-81.5 116 -81.5 190s27.167 137.333 81.5 190s119.833 79 196.5 79c64.667 0 121.667 -20 171 -60l23 44h77v-504h-112v33
c-47.333 -34 -100.333 -51 -159 -51zM1049.5 629.499c-39 -11 -69.167 -35.168 -90.5 -72.501c-24.667 -44 -29.667 -91.667 -15 -143c14 -48 40.833 -84.5 80.5 -109.5s80.834 -31.5 123.501 -19.5c39.333 11.333 69.333 35.5 90 72.5s27 78.167 19 123.5l-11 39
c-16.667 42.667 -43.834 74.334 -81.501 95.001s-76 25.5 -115 14.5z" />
    <glyph glyph-name="Nu.dlig" unicode="&#xf054;" horiz-adv-x="1441" 
d="M1329 120l25.5029 -22.999c5 -4.66699 9.66699 -9.83398 14 -15.501s6.16602 -10.5 5.49902 -14.5s-3 -8.33301 -7 -13l-13 -20l-9 5c-68 -35.333 -140.667 -53 -218 -53c-50 0 -109.333 7.33301 -178 22c-56.667 12.667 -102.667 19 -138 19
c-45.333 0 -84 -2.66699 -116 -8c-8.66699 -1.33301 -23 -4.33301 -43 -9c-12.667 -4 -25.334 -4 -38.001 0s-23 11.333 -31 22l-11 12l-378 481v-515h-112v662l-44 63h163l-16 -27l382 -489v451l-45 65h163l-6 -10v-615c38 6 82 9 132 9c44 0 98.333 -7 163 -21
c60.667 -13.333 111.667 -20 153 -20c61.333 0 118.666 15 171.999 45l16 9zM1378 736.001l-2.99805 -6v-313c0 -66 -24.833 -122.667 -74.5 -170s-109.834 -71 -180.501 -71h-26c-70.667 0 -130.834 23.667 -180.501 71s-74.5 104 -74.5 170v254l-44 65h162l-5 -10v-309
c0 -36.667 13.833 -68.167 41.5 -94.5s61.167 -39.5 100.5 -39.5h41c38.667 0 72 13.167 100 39.5s42 57.833 42 94.5v230l-61 89h162z" />
    <glyph glyph-name="Ne.dlig" unicode="&#xf055;" horiz-adv-x="1417" 
d="M1329 121l26.002 -23.501c4.66699 -4.33301 9.16699 -9.5 13.5 -15.5s6.16602 -10.833 5.49902 -14.5s-2.66699 -8.16699 -6 -13.5l-14 -19l-9 5c-68 -36 -140.667 -54 -218 -54c-50 0 -109.333 7.66699 -178 23c-56.667 12 -102.667 18 -138 18
c-45.333 0 -84 -2.33301 -116 -7c-8.66699 -1.33301 -22.667 -4.66602 -42 -9.99902c-13.333 -3.33301 -26.333 -3 -39 1s-23 11 -31 21l-10 13l-379 481v-515h-112v663l-43 62h163l-16 -28l381 -489v453l-44 64h44h112h7l-7 -11v-614c38 5.33301 82 8 132 8
c44 0 98.333 -7 163 -21c60.667 -13.333 111.667 -20 153 -20c61.333 0 118.666 15 171.999 45l16 9zM1092 187.999c-74.667 0 -138.331 26.334 -190.998 79.001s-79 116.167 -79 190.5s26.333 137.666 79 189.999s116.334 78.5 191.001 78.5
c33.333 0 64.833 -6.16699 94.5 -18.5s55.667 -29.333 78 -51s40.666 -47.667 54.999 -78s22.833 -63.166 25.5 -98.499c0.666992 -8.66699 1 -16.334 1 -23.001c0 -11.333 -1 -24 -3 -38l-3 -22h-396c11.333 -40 33.666 -69.667 66.999 -89
c21.333 -12.667 45.166 -20 71.499 -22s51 1.5 74 10.5s42.5 23.5 58.5 43.5l18 22l75 -75l-19 -19c-26 -25.333 -56.167 -45 -90.5 -59s-69.833 -21 -106.5 -21zM943.005 504l285.999 0.00292969c-6 41.333 -26 73.666 -60 96.999
c-20.667 13.333 -43.667 21.666 -69 24.999s-48.666 0.666016 -69.999 -8.00098c-22.667 -9.33301 -41.667 -24 -57 -44s-25.333 -43.333 -30 -70z" />
    <glyph glyph-name="No.dlig" unicode="&#xf056;" horiz-adv-x="1423" 
d="M1330 121c12 -11.333 20.502 -19.168 25.502 -23.501s9.66699 -9.33301 14 -15s6.16602 -10.5 5.49902 -14.5s-3 -8.66699 -7 -14l-13 -19l-9 5c-68 -36 -140.667 -54 -218 -54c-50 0 -109.333 7.66699 -178 23c-56.667 12 -102.667 18 -138 18
c-45.333 0 -84 -2.33301 -116 -7c-8.66699 -1.33301 -22.667 -4.66602 -42 -9.99902c-13.333 -3.33301 -26.333 -3 -39 1s-23 11 -31 21l-11 13l-378 481v-515h-112v659l-46 66h46h82h35l-15 -26l383 -491v449l-47 68h47h112h4l-4 -7v-618c38 5.33301 82 8 132 8
c44 0 98.333 -7 163 -21c60.667 -13.333 111.667 -20 153 -20c61.333 0 118.666 15 171.999 45l16 9zM1083 193.998c-76.667 0 -142 26.332 -196 78.999s-81 116 -81 190s27 137.333 81 190s119.333 79 196 79s142.167 -26.333 196.5 -79s81.5 -116.167 81.5 -190.5
s-27.167 -137.666 -81.5 -189.999s-119.833 -78.5 -196.5 -78.5zM1223 368.997c23.333 43.333 27.3301 90 11.9971 140c-11.333 38 -32.166 68.833 -62.499 92.5s-63.166 35.5 -98.499 35.5c-14.667 0 -28.667 -2 -42 -6c-38.667 -12 -68 -36.667 -88 -74
c-23.333 -44 -27.666 -90.667 -12.999 -140c14 -46.667 41 -82 81 -106s81 -29.667 123 -17c38.667 12 68 37 88 75z" />
    <glyph glyph-name="Nc.dlig" unicode="&#xf057;" horiz-adv-x="1404" 
d="M1329 121l26.5 -23.501c5 -4.33301 9.5 -9.5 13.5 -15.5s5.83301 -10.833 5.5 -14.5s-2.5 -8.16699 -6.5 -13.5l-14 -19l-9 5c-68 -36 -140.333 -54 -217 -54c-50 0 -109.667 7.66699 -179 23c-56 12 -102 18 -138 18c-44.667 0 -83 -2.33301 -115 -7
c-8.66699 -1.33301 -23 -4.66602 -43 -9.99902c-12.667 -3.33301 -25.5 -3 -38.5 1s-23.5 11 -31.5 21l-10 13l-378 481v-515h-113v660l-45 65h163l-15 -26l383 -491v450l-47 67h163l-4 -7v-618c37.333 5.33301 81 8 131 8c44.667 0 99 -7 163 -21
c60.667 -13.333 112 -20 154 -20c60.667 0 118 15 172 45l16 9zM1115 199.999c-78 0 -144.667 26.1689 -200 78.502s-83 115.5 -83 189.5s27.667 137.167 83 189.5s122 78.5 200 78.5c75.333 0 140.333 -24.667 195 -74l18 -16l-67 -90l-21 28
c-9.33301 12 -21.5 22.667 -36.5 32s-30.167 16.166 -45.5 20.499s-30 6.5 -44 6.5c-45.333 0 -85 -17.5 -119 -52.5s-51 -75.833 -51 -122.5c0 -30 7.83301 -58.167 23.5 -84.5s36.667 -47.333 63 -63s54.5 -23.5 84.5 -23.5c18 0 37.833 3.66699 59.5 11
s40.167 16.666 55.5 27.999l21 15l58 -79l-20 -15c-51.333 -38 -109.333 -57 -174 -57z" />
    <glyph glyph-name="Ng.dlig" unicode="&#xf058;" horiz-adv-x="1417" 
d="M1330 121c12 -11.333 20.5029 -19.168 25.5029 -23.501s9.66699 -9.33301 14 -15s6.16602 -10.5 5.49902 -14.5s-3 -8.66699 -7 -14l-13 -19l-9 5c-68 -36 -140.667 -54 -218 -54c-50 0 -109.333 7.66699 -178 23c-56.667 12 -102.667 18 -138 18
c-45.333 0 -84 -2.33301 -116 -7c-8.66699 -1.33301 -23 -4.66602 -43 -9.99902c-12.667 -3.33301 -25.334 -3 -38.001 1s-23 11 -31 21l-11 13l-378 481v-515h-112v659l-46 66h46h82h35l-15 -26l383 -491v449l-47 68h47h112h4l-4 -7v-618c38 5.33301 82 8 132 8
c44 0 98.333 -7 163 -21c60.667 -13.333 111.667 -20 153 -20c61.333 0 118.666 15 171.999 45l16 9zM1089 189.998c-74.667 0 -138.335 26.001 -191.002 78.001s-79 114.833 -79 188.5s26.333 136.5 79 188.5s116.334 78 191.001 78c80.667 0 148 -29.667 202 -89l19 -21
l-89 -65l-16 17c-36.667 40.667 -75.334 61 -116.001 61c-27.333 0 -53.166 -7.83301 -77.499 -23.5s-43.833 -36.5 -58.5 -62.5s-22 -53.667 -22 -83c0 -48.667 17.333 -90.334 52 -125.001c30 -29.333 64.667 -43.666 104 -42.999c62.667 0.666992 106.667 24 132 70h-140
v106h269v-35c0 -23.333 -1 -38.666 -3 -45.999c0 -2 -0.833008 -5.66699 -2.5 -11s-5.16699 -14.5 -10.5 -27.5s-11.666 -25.833 -18.999 -38.5s-17.833 -26.334 -31.5 -41.001s-29 -27.334 -46 -38.001s-38.167 -19.667 -63.5 -27s-53 -11 -83 -11z" />
    <glyph glyph-name="Qa.dlig" unicode="&#xf059;" horiz-adv-x="1439" 
d="M1271 153l20.998 9.99902l53 -95l-26 -11c-81.333 -36.667 -153 -56.334 -215 -59.001c-42 -1.33301 -81.5 0.666992 -118.5 6s-72.833 15 -107.5 29s-61.834 26.167 -81.501 36.5l-80.5 44.5l-38 22c-33.333 -47.333 -74.666 -84.166 -123.999 -110.499
s-101.666 -39.5 -156.999 -39.5c-63.333 0 -121.833 16.5 -175.5 49.5s-96.167 77.833 -127.5 134.5s-47 118.334 -47 185.001s15.667 128.334 47 185.001s73.833 101.5 127.5 134.5s112.167 49.5 175.5 49.5s121.833 -16.5 175.5 -49.5s96.167 -77.833 127.5 -134.5
s47 -118.334 47 -185.001c0 -42 -6.66699 -83 -20 -123l48 -27c30.667 -18 54.834 -31.5 72.501 -40.5s40.834 -19.333 69.501 -31s57.667 -19.667 87 -24s61 -5.83301 95 -4.5c47.333 2 104.666 18 171.999 48zM633.998 354.999c0 77.333 -23.167 143.5 -69.5 198.5
s-102.166 82.5 -167.499 82.5c-42.667 0 -82.334 -12.5 -119.001 -37.5s-65.5 -59.167 -86.5 -102.5s-31.5 -90.333 -31.5 -141c0 -77.333 23.167 -143.5 69.5 -198.5s102.166 -82.5 167.499 -82.5c34.667 0 67.834 8.83301 99.501 26.5s58.834 42.167 81.501 73.5
c-62.667 24 -130.334 29 -203.001 15l-24 -5l-26 107l27 6c96 18.667 186.667 11 272 -23c6.66699 26.667 10 53.667 10 81zM1290 702.999h77.001v-504h-113v32c-46.667 -33.333 -99.667 -50 -159 -50c-76.667 0 -142.167 26.333 -196.5 79s-81.5 116 -81.5 190
s27.167 137.333 81.5 190s119.833 79 196.5 79c65.333 0 122.666 -20 171.999 -60zM955.999 548.999c-24.667 -44 -29.6699 -91.668 -15.0029 -143.001c13.333 -47.333 39.833 -83.5 79.5 -108.5s80.834 -31.5 123.501 -19.5c39.333 10.667 69.5 34.667 90.5 72
s27.5 78.333 19.5 123l-11 40c-17.333 42.667 -44.666 74.334 -81.999 95.001s-75.666 25.5 -114.999 14.5s-69.333 -35.5 -90 -73.5z" />
    <glyph glyph-name="Qi.dlig" unicode="&#xf05a;" horiz-adv-x="1360" 
d="M1292 163l52.9941 -95l-26 -11c-81.333 -36.667 -153 -56.334 -215 -59.001c-42 -1.33301 -81.5 0.666992 -118.5 6s-72.833 15 -107.5 29s-61.834 26.167 -81.501 36.5l-80.5 44.5l-38 22c-33.333 -47.333 -74.666 -84.166 -123.999 -110.499
s-101.666 -39.5 -156.999 -39.5c-63.333 0 -121.833 16.5 -175.5 49.5s-96.167 77.833 -127.5 134.5s-47 118.334 -47 185.001c0 40 5.83301 78.667 17.5 116s28.334 71.166 50.001 101.499s46.834 56.833 75.501 79.5s60.834 40.334 96.501 53.001s72.5 19 110.5 19
c63.333 0 121.833 -16.5 175.5 -49.5s96.167 -77.833 127.5 -134.5s47 -118.334 47 -185.001c0 -42 -6.66699 -83 -20 -123l48 -27c30.667 -18 54.834 -31.5 72.501 -40.5s40.834 -19.333 69.501 -31s57.667 -19.667 87 -24s61 -5.83301 95 -4.5c46.667 2 104 18 172 48z
M623.994 274c6.66699 26.667 10 53.667 10 81c0 77.333 -23.167 143.5 -69.5 198.5s-102.166 82.5 -167.499 82.5c-42.667 0 -82.334 -12.5 -119.001 -37.5s-65.5 -59.167 -86.5 -102.5s-31.5 -90.333 -31.5 -141c0 -77.333 23.167 -143.5 69.5 -198.5
s102.166 -82.5 167.499 -82.5c34.667 0 67.834 8.83301 99.501 26.5s58.834 42.167 81.501 73.5c-62.667 24 -130.334 29 -203.001 15l-24 -5l-26 107l27 6c95.333 18.667 186 11 272 -23zM1005.99 143v510l-47 68h162l-3 -5v-573h-112z" />
    <glyph glyph-name="Qg.dlig" unicode="&#xf05b;" horiz-adv-x="1392" 
d="M1292 163l52.9971 -95.0029l-26 -11c-81.333 -36.667 -153 -56.334 -215 -59.001h-27c-38 0 -74.167 3 -108.5 9s-67.5 15.833 -99.5 29.5s-57.5 25.334 -76.5 35.001s-44.5 23.834 -76.5 42.501c-18 10.667 -30.667 18 -38 22
c-33.333 -47.333 -74.666 -84.166 -123.999 -110.499s-101.666 -39.5 -156.999 -39.5c-63.333 0 -121.833 16.5 -175.5 49.5s-96.167 77.833 -127.5 134.5s-47 118.334 -47 185.001s15.667 128.334 47 185.001s73.833 101.5 127.5 134.5s112.167 49.5 175.5 49.5
s121.833 -16.5 175.5 -49.5s96.167 -77.833 127.5 -134.5s47 -118.334 47 -185.001c0 -42 -6.66699 -83 -20 -123c12.667 -6.66699 28.667 -15.667 48 -27c30.667 -18 54.834 -31.5 72.501 -40.5s40.834 -19.333 69.501 -31s57.667 -19.667 87 -24s61 -5.83301 95 -4.5
c47.333 2 104.666 18 171.999 48zM623.997 273.997c6.66699 26.667 10.002 53.667 10.002 81c0 77.333 -23.167 143.5 -69.5 198.5s-102.166 82.5 -167.499 82.5c-42.667 0 -82.334 -12.5 -119.001 -37.5s-65.5 -59.167 -86.5 -102.5s-31.5 -90.333 -31.5 -141
c0 -77.333 23.167 -143.5 69.5 -198.5s102.166 -82.5 167.499 -82.5c23.333 0 46 4 68 12s42.667 19.5 62 34.5s36.333 32.833 51 53.5c-62.667 24 -130.334 29 -203.001 15l-24 -5l-26 107l27 6c95.333 18.667 186 11 272 -23zM1073 174.997
c-74 0 -137.5 26.166 -190.5 78.499s-79.5 115.166 -79.5 188.499s26.5 136.166 79.5 188.499s116.5 78.5 190.5 78.5c81.333 0 148.666 -29.667 201.999 -89l19 -22l-89 -65l-16 18c-36.667 40 -75.334 60 -116.001 60c-27.333 0 -53.166 -7.66699 -77.499 -23
s-43.833 -36.166 -58.5 -62.499s-22 -54.166 -22 -83.499c0 -48.667 17.667 -90 53 -124c29.333 -29.333 64 -44 104 -44c62.667 0.666992 106.334 24 131.001 70h-139v107h268v-36c0 -23.333 -0.666992 -38.666 -2 -45.999c-0.666992 -2 -1.66699 -5.66699 -3 -11
s-4.66602 -14.5 -9.99902 -27.5s-11.833 -25.833 -19.5 -38.5s-18.334 -26.167 -32.001 -40.5s-29 -27 -46 -38s-38.167 -20.167 -63.5 -27.5s-53 -11 -83 -11z" />
    <glyph glyph-name="Ri.dlig" unicode="&#xf05c;" horiz-adv-x="1054" 
d="M950 177l77 -78.001l-23 -18c-79.333 -60.667 -168.333 -91 -267 -91c-24 0 -47.667 2 -71 6c-62 9.33301 -119.833 30.833 -173.5 64.5s-98.167 76.167 -133.5 127.5c-11.333 -1.33301 -22.666 -2 -33.999 -2h-130v-176h-112v657l-47 68h289
c82.667 0 153.167 -26.667 211.5 -80s87.5 -117.333 87.5 -192v-5c0 -48.667 -13.667 -94.167 -41 -136.5s-64.333 -75.5 -111 -99.5c56 -67.333 126.667 -107.666 212 -120.999c17.333 -2.66699 34.666 -4 51.999 -4c70 0 133.333 20.667 190 62h-109v510l-47 68h162l-3 -5
v-571c0.666992 0 1.16699 0.333008 1.5 1s0.833008 1 1.5 1zM511 457.999v5c0 50.667 -18.167 94 -54.5 130s-80.166 54 -131.499 54h-130v-373h130c51.333 0 95.166 18 131.499 54s54.5 79.333 54.5 130z" />
    <glyph glyph-name="Zi.dlig" unicode="&#xf05d;" horiz-adv-x="1253" 
d="M1181 154l57.999 -75.999l-25 -15c-11.333 -6.66699 -22.666 -12.667 -33.999 -18c-86.667 -44 -178.667 -66 -276 -66c-84 0 -191.667 8.66699 -323 26c-61.333 8 -107 13.333 -137 16c-40.667 4 -93.834 3.66699 -159.501 -1s-113.167 -8.83398 -142.5 -12.501
s-52.666 -6.83398 -69.999 -9.50098l-40 -6v93v15l381 542h-338l-67 95h543v-97l-376 -534c125.333 12.667 220.666 16.334 285.999 11.001c32.667 -3.33301 80 -9 142 -17c126.667 -16.667 229.334 -25 308.001 -25s153 17.667 223 53c9.33301 4 18.333 8.66699 27 14z
M868.999 157.001v511l-47 68h163l-4 -6v-573h-112z" />
    <glyph glyph-name="Zd.dlig" unicode="&#xf05e;" horiz-adv-x="1266" 
d="M1181 152l58.0029 -76.999l-25 -15l-34 -18c-86.667 -43.333 -178.667 -65 -276 -65c-84 0 -191.667 8.66699 -323 26c-60.667 8 -106.667 13.333 -138 16c-40 3.33301 -92.833 2.83301 -158.5 -1.5s-113.334 -8.5 -143.001 -12.5s-52.834 -7.33301 -69.501 -10l-40 -6
v94v15l381 541h-338l-67 96h543v-97l-376 -535c125.333 13.333 220.666 17 285.999 11c32 -2.66699 79.333 -8.33398 142 -17.001c126 -16.667 228.667 -25 308 -25c78.667 0 153 17.667 223 53c9.33301 4.66699 18.333 9.66699 27 15zM855.003 167.001
l-178.999 -0.000976562v504l-46 66h163h62c93.333 0 167.166 -25.5 221.499 -76.5s81.5 -120.5 81.5 -208.5c0 -93.333 -30.333 -165.666 -91 -216.999c-54 -45.333 -124.667 -68 -212 -68zM1041 452c0 30 -3.66699 56.499 -11 79.499s-17 41.333 -29 55
s-26.5 24.834 -43.5 33.501s-33.667 14.5 -50 17.5s-33.833 4.5 -52.5 4.5h-63v-379h63c18.667 0 36.167 1.5 52.5 4.5s33 8.66699 50 17s31.5 19.333 43.5 33s21.667 32 29 55s11 49.5 11 79.5z" />
    <glyph glyph-name="Zk.dlig" unicode="&#xf05f;" horiz-adv-x="1255" 
d="M1181 152l58.0039 -77l-25 -15c-10.667 -6 -22 -12 -34 -18c-86.667 -43.333 -178.667 -65 -276 -65c-84 0 -191.667 8.66699 -323 26c-60.667 8 -106.334 13.333 -137.001 16c-40.667 3.33301 -93.834 2.83301 -159.501 -1.5s-113.334 -8.5 -143.001 -12.5
s-52.834 -7 -69.501 -9l-40 -7v94v15l382 541h-339l-67 96h543v-97l-376 -534c124.667 12.667 220 16 286 10c32.667 -2.66699 80 -8 142 -16c126 -16.667 228.667 -25 308 -25c78.667 0 153 17.333 223 52c9.33301 4.66699 18.333 9.66699 27 15zM684.004 168v502l-46 67
h162h1l-1 -219l162 173l-31 46h74h8h80l67 -1l-254 -271l228 -254l-17 -15v-28h-95l-194 214l-27 -30v-184h-117z" />
    <glyph glyph-name="Zn.dlig" unicode="&#xf060;" horiz-adv-x="1260" 
d="M1181 150l58.002 -77l-25 -14c-11.333 -6.66699 -22.666 -13 -33.999 -19c-86.667 -43.333 -178.667 -65 -276 -65c-84 0 -191.667 8.66699 -323 26c-60.667 8 -106.334 13.333 -137.001 16c-40.667 4 -93.334 3.66699 -158.001 -1s-113.334 -9 -146.001 -13
s-55.334 -7 -68.001 -9l-40 -7v94v15l381 541h-338l-67 96h543v-97l-376 -534c124.667 12.667 220 16 286 10c32.667 -2.66699 80 -8 142 -16c126.667 -16.667 229.334 -25 308.001 -25s153 17.667 223 53c9.33301 4 18.333 8.66699 27 14zM637.002 168v503l-46 66h162
l-11 -19l264 -327v282l-45 64h163l-2 -2v-567h-87l-282 349v-349h-116z" />
    <glyph glyph-name="Zp.dlig" unicode="&#xf061;" horiz-adv-x="1264" 
d="M1181 151l58.001 -75.998l-25 -15c-11.333 -6.66699 -22.666 -12.667 -33.999 -18c-86.667 -44 -178.667 -66 -276 -66c-84 0 -191.667 8.66699 -323 26c-60.667 8 -106.667 13.667 -138 17c-40 3.33301 -92.833 2.66602 -158.5 -2.00098
s-113.334 -8.83398 -143.001 -12.501s-52.834 -6.83398 -69.501 -9.50098l-40 -6v93v15l381 542h-338l-67 95h543v-97l-376 -534c125.333 12.667 220.666 16.334 285.999 11.001c32.667 -3.33301 80 -9 142 -17c126.667 -16.667 229.334 -25 308.001 -25s153 17.667 223 53
l27 14zM848.001 165.002h-116v506l-47 67h163v-1h64c32.667 0 64.167 -5.83301 94.5 -17.5s56.5 -27.5 78.5 -47.5s39.5 -43.833 52.5 -71.5s19.5 -56.5 19.5 -86.5v-8c0 -62 -24 -114.833 -72 -158.5s-105.667 -65.5 -173 -65.5h-64v-117zM1040 505.002v10
c0 23.333 -5.66699 44.833 -17 64.5s-26.833 35.334 -46.5 47.001s-41.167 17.5 -64.5 17.5h-64v-268h64c35.333 0 65.5 12.667 90.5 38s37.5 55.666 37.5 90.999z" />
    <glyph glyph-name="Zr.dlig" unicode="&#xf062;" horiz-adv-x="1260" 
d="M1181 151l57.999 -75.998l-25 -15c-11.333 -6.66699 -22.666 -12.667 -33.999 -18c-86.667 -44 -178.667 -66 -276 -66c-84 0 -191.667 8.66699 -323 26c-60.667 8 -106.334 13.667 -137.001 17c-40.667 3.33301 -93.667 2.66602 -159 -2.00098
s-113 -8.83398 -143 -12.501s-53.333 -6.83398 -70 -9.50098l-40 -6v93v15l382 542h-339l-67 95h543v-97l-376 -534c124.667 12.667 220 16.334 286 11.001c32.667 -3.33301 80 -9 142 -17c126.667 -16.667 229.334 -25 308.001 -25s153 17.667 223 53l27 14z
M829.999 167.002h-117v503l-47 67h163h64c44.667 0 85.667 -10 123 -30s67 -47 89 -81s33 -71.333 33 -112v-8c0 -35.333 -8.5 -68.5 -25.5 -99.5s-40.5 -57.167 -70.5 -78.5l92 -161h-130l-70 118c-13.333 -2 -27 -3 -41 -3h-63v-115zM1022 505.002v9
c0 36 -12.667 66.5 -38 91.5s-55.666 37.5 -90.999 37.5h-63v-266h63c35.333 0 65.666 12.5 90.999 37.5s38 55.167 38 90.5z" />
    <glyph glyph-name="Zt.dlig" unicode="&#xf063;" horiz-adv-x="1256" 
d="M1181 154l58 -77.001l-25 -14c-12 -7.33301 -23.333 -13.666 -34 -18.999c-86.667 -43.333 -178.667 -65 -276 -65c-84 0 -191.667 8.66699 -323 26c-60.667 8 -106.667 13.333 -138 16c-40 3.33301 -92.333 2.83301 -157 -1.5s-113.167 -8.5 -145.5 -12.5
s-55.166 -7 -68.499 -9l-40 -7v94v15l381 541h-338l-67 96h543v-97l-376 -534c125.333 12.667 220.666 16 285.999 10c32.667 -2.66699 80 -8 142 -16c126 -16.667 228.667 -25 308 -25c78.667 0 153 17.333 223 52l27 15zM866 626.999h-124l-58 110h486l-52 -110h-136v-461
h-116v461z" />
    <glyph glyph-name="Zv.dlig" unicode="&#xf064;" horiz-adv-x="1260" 
d="M1181 152l58.0039 -77l-25 -15l-34 -18c-86.667 -43.333 -178.667 -65 -276 -65c-84 0 -191.667 8.66699 -323 26c-60.667 8 -106.334 13.333 -137.001 16c-40.667 3.33301 -93.334 2.83301 -158.001 -1.5s-113.334 -8.5 -146.001 -12.5s-55.334 -7 -68.001 -9l-40 -7v94
v15l381 541h-338l-67 96h543v-97l-376 -534c125.333 12.667 220.666 16 285.999 10c32.667 -2.66699 80 -8 142 -16c126.667 -16.667 229.334 -25 308.001 -25s153 17.333 223 52l27 15zM854.004 168l-193 507l-44 63h163l-14 -25l146 -368l132 331l-42 61h162h24l-218 -569
h-116z" />
    <glyph glyph-name="Zx.dlig" unicode="&#xf065;" horiz-adv-x="1253" 
d="M1181 154l58.001 -75.999l-25 -15c-11.333 -6.66699 -22.666 -12.667 -33.999 -18c-86.667 -44 -178.667 -66 -276 -66c-84 0 -191.667 8.66699 -323 26c-61.333 8 -107.333 13.333 -138 16c-40 4 -92.833 3.66699 -158.5 -1s-113.334 -8.83398 -143.001 -12.501
s-52.834 -6.83398 -69.501 -9.50098l-40 -6v93v15l381 542h-338l-67 95h543v-97l-376 -534c125.333 12.667 220.666 16.334 285.999 11.001c32.667 -3.33301 80 -9 142 -17c126.667 -16.667 229.334 -25 308.001 -25s153 17.667 223 53l27 14zM808.001 451.001l-130 235
l-33 48h162l-16 -29l87 -155l74 133l-35 51h187l-157 -283l159 -286h-124l-104 189l-105 -189h-124z" />
    <glyph glyph-name="Zy.dlig" unicode="&#xf066;" horiz-adv-x="1254" 
d="M1181 154l58.0029 -75.999l-25 -15c-11.333 -6.66699 -22.666 -12.667 -33.999 -18c-86.667 -44 -178.667 -66 -276 -66c-84 0 -191.667 8.66699 -323 26c-60.667 8 -106.334 13.333 -137.001 16c-40.667 4 -93.834 3.66699 -159.501 -1
s-113.334 -8.83398 -143.001 -12.501s-52.834 -6.83398 -69.501 -9.50098l-40 -6v93v15l381 542h-338l-67 95h543v-97l-376 -534c125.333 12.667 220.666 16.334 285.999 11.001c32.667 -3.33301 80 -9 142 -17c126.667 -16.667 229.334 -25 308.001 -25s153 17.667 223 53
l27 14zM845.003 403.001l-142.001 251l-107 83h187l-2 -3l122 -203l92 152l-37 54h162h31l-23 -39c-97.333 -170 -152.666 -268 -165.999 -294v-239h-117v238z" />
    <glyph glyph-name="Zz.dlig" unicode="&#xf067;" horiz-adv-x="1253" 
d="M1181 146l58.0039 -75.999l-25 -15c-11.333 -6.66699 -22.666 -12.667 -33.999 -18c-86.667 -44 -178.667 -66 -276 -66c-83.333 0 -191 8.66699 -323 26c-60.667 8.66699 -106.334 14.334 -137.001 17.001c-40.667 3.33301 -93.834 2.66602 -159.501 -2.00098
s-113.334 -8.83398 -143.001 -12.501s-52.834 -6.83398 -69.501 -9.50098l-40 -6v94v14l382 542h-339l-67 96h543v-98l-376 -534c125.333 12.667 220.666 16.334 285.999 11.001c32.667 -3.33301 80 -9 142 -17c126 -16.667 228.667 -25 308 -25c78.667 0 153 17.667 223 53
c9.33301 4.66699 18.333 9.66699 27 15zM913.004 619.001h-222l-65 111h446v-90l-268 -371h209l87 -110h-455v89z" />
    <glyph glyph-name="laa.dlig" unicode="&#xf068;" horiz-adv-x="894" 
d="M728 127l16 10l77 -66l-29 -19c-64.667 -41.333 -134.334 -62 -209.001 -62c-45.333 0 -98.666 7.66699 -159.999 23c-49.333 12 -89 18 -119 18c-43.333 0 -107.333 -6.66699 -192 -20l-30 -5v666l-47 68h163l-4 -6v-617c46.667 5.33301 83.334 8 110.001 8
c40 0 89 -7.33301 147 -22c52.667 -12.667 96.667 -19 132 -19c51.333 0 99.666 14.333 144.999 43zM567 199c-76.667 0 -142.167 26.333 -196.5 79s-81.5 116 -81.5 190s27.167 137.333 81.5 190s119.833 79 196.5 79s142.167 -26.333 196.5 -79s81.5 -116 81.5 -190
s-27.167 -137.333 -81.5 -190s-119.833 -79 -196.5 -79zM707 374c23.333 43.333 27.3311 90.001 11.998 140.001c-11.333 38 -32.166 68.833 -62.499 92.5s-63.166 35.5 -98.499 35.5c-14.667 0 -28.667 -2 -42 -6c-39.333 -11.333 -69 -36 -89 -74
c-23.333 -43.333 -27.333 -90 -12 -140c14 -46.667 40.833 -81.834 80.5 -105.501s80.5 -29.167 122.5 -16.5c39.333 11.333 69 36 89 74z" />
    <glyph glyph-name="nonmarkingreturn" horiz-adv-x="333" 
 />
    </font>
</defs>
</svg>
